<?xml version="1.0" encoding="utf-8"?>
<!-- Generator: Adobe Illustrator 21.0.0, SVG Export Plug-In . SVG Version: 6.00 Build 0)  -->
<svg version="1.1" id="Layer_1" xmlns="http://www.w3.org/2000/svg" xmlns:xlink="http://www.w3.org/1999/xlink" x="0px" y="0px"
	 viewBox="0 0 792 612" style="enable-background:new 0 0 792 612;" xml:space="preserve">
<style type="text/css">
	.st0{fill:#DFCB22;}
	.st1{fill:#FFFFFF;}
</style>
<circle class="st0" cx="367.9" cy="121.9" r="14.6"/>
<ellipse class="st0" cx="310" cy="175.3" rx="41.7" ry="36.6"/>
<circle class="st0" cx="434.5" cy="121.9" r="14.6"/>
<ellipse class="st1" cx="304.1" cy="211.2" rx="41.7" ry="36.6"/>
<ellipse class="st0" cx="304.1" cy="214" rx="41.7" ry="36.6"/>
<ellipse class="st1" cx="371.3" cy="208.5" rx="31.2" ry="48.3"/>
<ellipse class="st0" cx="498.1" cy="174.6" rx="43.3" ry="37.4"/>
<ellipse class="st1" cx="504.2" cy="212.9" rx="43.3" ry="37.4"/>
<ellipse class="st0" cx="504.2" cy="215.8" rx="43.3" ry="37.4"/>
<ellipse class="st1" cx="433.8" cy="207" rx="31.2" ry="48.3"/>
<path class="st0" d="M449.1,178.8l-93.2,0c9.1-23.9,26.6-40.1,46.6-40.1C422.6,138.7,440.1,154.9,449.1,178.8z"/>
<path class="st0" d="M455.8,216.5c0,43-23.9,77.8-53.3,77.8c-29.4,0-53.3-34.8-53.3-77.8c0-8.5,0.9-16.7,2.7-24.4
	c1-4.6,2.4-9.1,4-13.3h93.2c1.6,4.1,2.9,8.4,3.9,13C454.9,199.6,455.8,207.9,455.8,216.5z"/>
<rect x="348.2" y="176.9" class="st1" width="102.4" height="3.8"/>
<rect x="348.2" y="216.3" class="st1" width="108.6" height="3.8"/>
<rect x="349.3" y="254.8" class="st1" width="108.6" height="3.8"/>
<g>
	<path d="M323.9,333.8c0.2,4.3,0.4,7.1,0.4,12.2c0,7.1-0.1,13-0.4,20.1c-0.2,3.7-1.2,4-2.7,4c-1.4,0-2.5-0.7-2.7-3.9
		c-0.2-5.7-0.3-12.3-0.3-22.5c0-4.3,0-7.5,0.2-9.9H316c-6.6,0-9.2,0-9.2-2.9c0-1.4,0.5-2.5,3.7-2.8c3-0.2,4.5-0.3,7.8-0.3
		c4.6,0,8.6,0.1,13.2,0.3c3.7,0.2,4,1.2,4,2.8c0,1.4-0.7,2.4-3.9,2.6C329.4,333.6,326.9,333.7,323.9,333.8z"/>
	<path d="M339.3,356.9c0.7,4.8,3.9,7.3,10.1,7.3c4.5,0,6.9-1.4,8.5-1.4c1.1,0,2.4,0.6,2.4,2.2c0,4-7.3,4.9-11.3,4.9
		c-9.2,0-16-5.2-16-15.2c0-9.8,6.5-15.3,15-15.3c6.7,0,13,3.4,13,10.5c0,6.3-4.9,8.6-12.4,8.6C345.9,358.6,342.8,358.3,339.3,356.9z
		 M339.2,352.2c3,1.4,5.7,1.8,8.9,1.8c4.6,0,6.9-0.9,6.9-4c0-2.8-1.9-5.2-6.8-5.2C343.9,344.8,340.1,346.7,339.2,352.2z"/>
	<path d="M387.9,365.7c-2,2.4-5,4.3-9.8,4.3c-6.2,0-13.5-3.2-13.5-14.7c0-9,4.4-16.3,13.6-16.3c4,0,7.2,1.4,9.7,4.7
		c0-1.8,0.1-4.2,2.8-4.2c1.2,0,2.4,0.6,2.5,3.8c0.2,4.1,0.4,7.3,0.4,10.8c0,4.3-0.1,7.7-0.4,11.8c-0.2,3.6-1.2,4-2.4,4
		C388.4,369.7,388,367.9,387.9,365.7z M378.5,344.7c-5.7,0-7.9,4.3-7.9,9.9c0,6.9,3.3,10.2,8.5,10.2c6.1,0,8.6-4.6,8.6-10.1
		C387.7,346.4,382.2,344.7,378.5,344.7z"/>
	<path d="M413.2,361.8c-0.2-2.7-0.4-7.7-0.4-12.6c0-4.8,0.1-11,0.4-14.1c0.4-4.9,1.7-8.1,11-8.1c10.5,0,15.8,4.1,15.8,11.2
		c0,3.7-1.4,7.1-5.4,8.7c4.5,0.8,7.3,5.3,7.3,9.8c0,5.6-4.4,12.6-18.3,12.6C414.8,369.5,413.6,366.6,413.2,361.8z M419,336.9v8.3
		c1.1,0.1,2.4,0.1,3.5,0.1c5.6,0,11.5-1.3,11.5-6.5c0-3.6-2.8-6-9-6C419.8,332.8,419,334.5,419,336.9z M425.3,350.1
		c-2,0-4.2,0-6,0.1c-0.2,3.4-0.2,7.2-0.2,8.2c0,4.2,1,5.6,6.1,5.6c6.9,0,10.9-2.5,10.9-7.3C436,351,430.3,350.1,425.3,350.1z"/>
	<path d="M451.7,356.9c0.7,4.8,3.9,7.3,10.1,7.3c4.5,0,6.9-1.4,8.5-1.4c1.1,0,2.4,0.6,2.4,2.2c0,4-7.3,4.9-11.3,4.9
		c-9.2,0-16-5.2-16-15.2c0-9.8,6.5-15.3,15-15.3c6.7,0,13,3.4,13,10.5c0,6.3-4.9,8.6-12.4,8.6C458.3,358.6,455.3,358.3,451.7,356.9z
		 M451.7,352.2c3,1.4,5.7,1.8,8.9,1.8c4.6,0,6.9-0.9,6.9-4c0-2.8-1.9-5.2-6.8-5.2C456.3,344.8,452.5,346.7,451.7,352.2z"/>
	<path d="M483.4,356.9c0.7,4.8,3.9,7.3,10.1,7.3c4.5,0,6.9-1.4,8.5-1.4c1.1,0,2.4,0.6,2.4,2.2c0,4-7.3,4.9-11.3,4.9
		c-9.2,0-16-5.2-16-15.2c0-9.8,6.5-15.3,15-15.3c6.7,0,13,3.4,13,10.5c0,6.3-4.9,8.6-12.4,8.6C490,358.6,486.9,358.3,483.4,356.9z
		 M483.3,352.2c3,1.4,5.7,1.8,8.9,1.8c4.6,0,6.9-0.9,6.9-4c0-2.8-1.9-5.2-6.8-5.2C487.9,344.8,484.2,346.7,483.3,352.2z"/>
	<path d="M351.3,389.7c0.2,4.3,0.4,7.1,0.4,12.2c0,7.1-0.1,13-0.4,20.1c-0.2,3.7-1.2,4-2.7,4c-1.4,0-2.5-0.7-2.7-3.9
		c-0.2-5.7-0.3-12.3-0.3-22.5c0-4.3,0-7.5,0.2-9.9h-2.4c-6.6,0-9.2,0-9.2-2.9c0-1.4,0.5-2.5,3.7-2.8c3-0.2,4.5-0.3,7.8-0.3
		c4.6,0,8.6,0.1,13.2,0.3c3.7,0.2,4,1.2,4,2.8c0,1.4-0.7,2.4-3.9,2.6C356.8,389.5,354.3,389.6,351.3,389.7z"/>
	<path d="M383.7,421.6c-2,2.4-5,4.3-9.8,4.3c-6.2,0-13.5-3.2-13.5-14.7c0-9,4.4-16.3,13.6-16.3c4,0,7.2,1.4,9.7,4.7
		c0-1.8,0.1-4.2,2.8-4.2c1.2,0,2.4,0.6,2.5,3.8c0.2,4.1,0.4,7.3,0.4,10.8c0,4.3-0.1,7.7-0.4,11.8c-0.2,3.6-1.2,4-2.4,4
		C384.1,425.6,383.8,423.8,383.7,421.6z M374.3,400.6c-5.7,0-7.9,4.3-7.9,9.9c0,6.9,3.3,10.2,8.5,10.2c6.1,0,8.6-4.6,8.6-10.1
		C383.4,402.3,377.9,400.6,374.3,400.6z"/>
	<path d="M400.7,412.8c0.7,4.8,3.9,7.3,10.1,7.3c4.5,0,6.9-1.4,8.5-1.4c1.1,0,2.4,0.6,2.4,2.2c0,4-7.3,4.9-11.3,4.9
		c-9.2,0-16-5.2-16-15.2c0-9.8,6.5-15.3,15-15.3c6.7,0,13,3.4,13,10.5c0,6.3-4.9,8.6-12.4,8.6C407.2,414.5,404.2,414.2,400.7,412.8z
		 M400.6,408.1c3,1.4,5.7,1.8,8.9,1.8c4.6,0,6.9-0.9,6.9-4c0-2.8-1.9-5.2-6.8-5.2C405.2,400.7,401.4,402.6,400.6,408.1z"/>
	<path d="M427.9,409.6c0-5.6,0-8.6,0.4-11.2c0.4-3.2,1.2-3.8,2.5-3.8c1.8,0,3.2,0.4,3.2,3.7c0,0,0.1,0.7,0.1,1.6
		c2.1-2.7,4.9-4.9,8.3-4.9c2.4,0,3.5,1.1,3.5,2.9c0,2.9-2.5,3.5-5.8,4.1c-2.5,0.5-5,1.8-5.8,3.8c0.1,3,0.1,2.2,0.1,4.6
		c0,4-0.2,7.3-0.4,11.4c-0.2,3.7-1.5,4-2.8,4c-2.2,0-2.7-0.7-3-3.9C427.9,419,427.9,415.1,427.9,409.6z"/>
	<path d="M456.3,403c0,3.3,0,14-0.4,18.9c-0.3,3.1-0.7,3.4-2.5,3.4s-2.4-0.3-2.7-3.3c-0.3-2.8-0.5-10.1-0.5-15c0-4,0.1-6.3,0.4-8.3
		c0.5-3.3,1.2-3.8,2.5-3.8c2,0,2.9,1.1,3.1,3.6c2.9-2.5,6.4-4.1,9.9-4.1c3.4,0,6.3,1.5,8.1,5c1.1,2.1,1.6,4.7,1.8,7.6
		c0.2,2.5,0.2,4.6,0.2,9.2c0,5.1,0,9-3.1,9c-1.8,0-2.8-0.9-2.8-2.6c0-0.4-0.1-8.2-0.2-11.2c-0.1-2.5-0.5-6.1-1.4-8.3
		c-1.1-2.6-2.8-3-4.7-3C461.3,400.2,459.2,401.1,456.3,403z"/>
</g>
<g>
	<path class="st0" d="M354.2,454.4c-1.2,0-2.6,0.1-4,0.1c-1.7,0-3.1,0-4.2,0c0,2.3-0.1,4.4-0.2,7c-0.1,1.8-0.5,1.9-1.3,1.9
		c-0.7,0-1.2-0.3-1.2-1.9c-0.1-2.7-0.1-5.7-0.1-10.5c0-5.3,0-7.5,1.4-7.5c0.6,0,1.2,0.2,1.3,1.7c0.1,2.6,0.2,3.9,0.2,6.5
		c1.4-0.1,2.8-0.1,4.1-0.1c1.3,0,2.6,0,4,0.1V451c0-5.3,0-7.5,1.4-7.5c0.6,0,1.2,0.2,1.3,1.7c0.1,2.7,0.2,4,0.2,6.8
		c0,3.4,0,6-0.2,9.4c-0.1,1.8-0.5,1.9-1.3,1.9c-0.7,0-1.2-0.3-1.2-1.9C354.3,459.5,354.2,457.4,354.2,454.4z"/>
	<path class="st0" d="M362.5,457.2c0.3,2.3,1.9,3.5,4.8,3.5c2.1,0,3.3-0.6,4-0.6c0.5,0,1.1,0.3,1.1,1c0,1.9-3.5,2.3-5.4,2.3
		c-4.4,0-7.6-2.4-7.6-7.2c0-4.7,3.1-7.2,7.1-7.2c3.2,0,6.1,1.6,6.1,5c0,3-2.3,4.1-5.9,4.1C365.6,458.1,364.2,457.9,362.5,457.2z
		 M362.5,455c1.4,0.6,2.7,0.8,4.2,0.8c2.2,0,3.3-0.4,3.3-1.9c0-1.3-0.9-2.4-3.2-2.4C364.6,451.5,362.8,452.4,362.5,455z"/>
	<path class="st0" d="M375.4,455.7c0-2.6,0-4.1,0.2-5.3c0.2-1.5,0.6-1.8,1.2-1.8c0.9,0,1.5,0.2,1.5,1.7c0,0,0.1,0.3,0.1,0.8
		c1-1.3,2.3-2.3,3.9-2.3c1.2,0,1.7,0.5,1.7,1.4c0,1.4-1.2,1.7-2.8,1.9c-1.2,0.2-2.4,0.9-2.8,1.8c0,1.4,0.1,1.1,0.1,2.2
		c0,1.9-0.1,3.5-0.2,5.4c-0.1,1.8-0.7,1.9-1.3,1.9c-1,0-1.3-0.3-1.4-1.9C375.4,460.2,375.4,458.4,375.4,455.7z"/>
	<path class="st0" d="M388.8,452c1-2,3.3-2.9,5.3-2.9c3.4,0,6.1,2.5,6.1,7c0,4.3-2.6,7.3-7.4,7.3c-6.5,0-6.9-5.6-6.9-11.8
		c0-3.1,0.1-5.8,0.3-7.4c0.2-1.4,0.8-2,1.6-2c1.3,0,1.3,1.2,1.3,2.6C389.1,447.1,389,449.7,388.8,452z M389.1,456.5
		c0,2.8,1.5,4.4,3.9,4.4c1.9,0,4.3-1,4.3-4.5c0-3.1-1.9-4.4-4-4.4C391.1,451.9,389.1,453.3,389.1,456.5z"/>
	<path class="st0" d="M412.7,461.4c-0.9,1.2-2.4,2-4.6,2c-2.9,0-6.4-1.5-6.4-7c0-4.3,2.1-7.7,6.4-7.7c1.9,0,3.4,0.6,4.6,2.2
		c0-0.9,0.1-2,1.3-2c0.6,0,1.1,0.3,1.2,1.8c0.1,2,0.2,3.5,0.2,5.1c0,2,0,3.7-0.2,5.6c-0.1,1.7-0.6,1.9-1.1,1.9
		C413,463.3,412.8,462.5,412.7,461.4z M408.3,451.5c-2.7,0-3.8,2-3.8,4.7c0,3.3,1.5,4.8,4,4.8c2.9,0,4.1-2.2,4.1-4.8
		C412.6,452.3,410,451.5,408.3,451.5z"/>
	<path class="st0" d="M418.7,449.4c0-5.3,0-7.6,1.4-7.6c0.6,0,1.2,0.2,1.3,1.7c0.1,2.7,0.2,5.7,0.2,8.5c0,3.4,0,6.1-0.2,9.5
		c-0.1,1.8-0.5,1.9-1.3,1.9c-0.7,0-1.2-0.3-1.2-1.9C418.8,458.9,418.7,454.3,418.7,449.4z"/>
	<path class="st0" d="M438.2,446.3c0.1,2,0.2,3.4,0.2,5.8c0,3.4,0,6.2-0.2,9.5c-0.1,1.8-0.6,1.9-1.3,1.9c-0.7,0-1.2-0.3-1.3-1.9
		c-0.1-2.7-0.1-5.8-0.1-10.7c0-2.1,0-3.6,0.1-4.7h-1.2c-3.1,0-4.4,0-4.4-1.4c0-0.6,0.3-1.2,1.8-1.3c1.4-0.1,2.1-0.1,3.7-0.1
		c2.2,0,4.1,0,6.3,0.1c1.8,0.1,1.9,0.6,1.9,1.3c0,0.7-0.3,1.2-1.9,1.2C440.7,446.2,439.6,446.3,438.2,446.3z"/>
	<path class="st0" d="M445.5,457.2c0.3,2.3,1.9,3.5,4.8,3.5c2.1,0,3.3-0.6,4-0.6c0.5,0,1.1,0.3,1.1,1c0,1.9-3.5,2.3-5.4,2.3
		c-4.4,0-7.6-2.4-7.6-7.2c0-4.7,3.1-7.2,7.1-7.2c3.2,0,6.1,1.6,6.1,5c0,3-2.3,4.1-5.9,4.1C448.6,458.1,447.1,457.9,445.5,457.2z
		 M445.4,455c1.4,0.6,2.7,0.8,4.2,0.8c2.2,0,3.3-0.4,3.3-1.9c0-1.3-0.9-2.4-3.2-2.4C447.6,451.5,445.8,452.4,445.4,455z"/>
	<path class="st0" d="M468.5,461.4c-0.9,1.2-2.4,2-4.6,2c-2.9,0-6.4-1.5-6.4-7c0-4.3,2.1-7.7,6.4-7.7c1.9,0,3.4,0.6,4.6,2.2
		c0-0.9,0.1-2,1.3-2c0.6,0,1.1,0.3,1.2,1.8c0.1,2,0.2,3.5,0.2,5.1c0,2,0,3.7-0.2,5.6c-0.1,1.7-0.6,1.9-1.1,1.9
		C468.7,463.3,468.6,462.5,468.5,461.4z M464,451.5c-2.7,0-3.8,2-3.8,4.7c0,3.3,1.5,4.8,4,4.8c2.9,0,4.1-2.2,4.1-4.8
		C468.4,452.3,465.8,451.5,464,451.5z"/>
</g>
</svg>
