<?xml version="1.0" encoding="utf-8"?>
<!-- Generator: Adobe Illustrator 21.0.0, SVG Export Plug-In . SVG Version: 6.00 Build 0)  -->
<svg version="1.1" id="Layer_1" xmlns="http://www.w3.org/2000/svg" xmlns:xlink="http://www.w3.org/1999/xlink" x="0px" y="0px"
	 viewBox="0 0 792 612" style="enable-background:new 0 0 792 612;" xml:space="preserve">
<style type="text/css">
	.st0{fill:#F9AD7F;}
	.st1{fill:#FFFFFF;}
	.st2{fill:#EFCDB0;}
	.st3{fill:#F3E6DC;}
	.st4{fill:#9E6C5F;}
	.st5{fill:#805840;}
</style>
<rect class="st0" width="792" height="612"/>
<g>
	<path class="st1" d="M130.2,226.3c-4.4,4.5-10.2,6.7-17.2,6.7c-4.5,0-8.5-1-11.9-3.1c-3.4-2-6-4.9-7.9-8.5
		c-1.9-3.6-2.8-7.7-2.8-12.2c0-4.6,1-8.7,3-12.3c2-3.6,4.7-6.4,8.3-8.4c3.6-2,7.6-3,12.3-3c4.6,0,9.7,1.1,15.4,3.3v10.4h-1.6
		c-0.9,0-1.4-0.5-1.5-1.6l-0.3-7c-4.1-1.5-8.1-2.2-11.9-2.2c-4,0-7.6,0.9-10.6,2.7c-3,1.8-5.3,4.2-6.9,7.4
		c-1.6,3.1-2.4,6.7-2.4,10.8c0,4.1,0.8,7.7,2.4,10.9c1.6,3.1,3.8,5.6,6.7,7.3c2.9,1.7,6.3,2.6,10.1,2.6c2.9,0,5.6-0.4,7.8-1.2
		c2.3-0.8,4.5-2.1,6.5-3.9c0.2-0.2,0.5-0.3,0.7-0.3c0.2,0,0.4,0.1,0.5,0.3L130.2,226.3z"/>
	<path class="st1" d="M178,229.9l4.3,0.1c0.9,0.1,1.4,0.5,1.4,1.2v1.3h-15v-1.3c0-0.7,0.5-1.1,1.4-1.2l4.3-0.1v-19.6h-30.1v19.6
		l4.4,0.1c0.9,0,1.3,0.4,1.3,1.2v1.3h-15v-1.3c0-0.7,0.5-1.1,1.4-1.2l4.4-0.1v-41.3l-4.4-0.1c-0.9-0.1-1.4-0.5-1.4-1.2V186h15v1.2
		c0,0.7-0.4,1.1-1.3,1.2l-4.4,0.1v19.1h30.1v-19.1l-4.3-0.1c-0.9-0.1-1.4-0.5-1.4-1.2V186h15v1.2c0,0.7-0.5,1.1-1.4,1.2l-4.3,0.1
		V229.9z"/>
	<path class="st1" d="M238,230.3c0.2,0.2,0.3,0.5,0.3,0.9v1.3h-13v-1.3c0-0.4,0.1-0.7,0.3-0.9c0.2-0.2,0.5-0.3,1-0.3l3.2-0.1
		l-5.1-12.7h-23.2l-5.1,12.6l3.4,0.1c0.5,0,0.8,0.2,1,0.3c0.2,0.2,0.3,0.5,0.3,0.9v1.3h-13v-1.3c0-0.4,0.1-0.7,0.3-0.9
		c0.2-0.2,0.5-0.3,1-0.3l3.3-0.1l18.6-43.8h3.7l18.6,43.8l3.5,0.1C237.5,230,237.8,230.1,238,230.3z M223.6,214.8l-9.4-22.6l-1.1-3
		l-1.1,3l-9.4,22.6H223.6z"/>
	<path class="st1" d="M291.2,187.3c0,0.7-0.5,1.1-1.4,1.2l-4.3,0.1v43.9h-1.7c-0.5,0-0.9-0.2-1.2-0.7l-31.3-40.3
		c0,0.4,0.1,1.1,0.1,1.9v36.4l4.6,0.1c0.9,0.1,1.4,0.5,1.4,1.2v1.3h-14.7v-1.3c0-0.7,0.5-1.1,1.4-1.2l4.4-0.1v-41.2l-4.4-0.1
		c-0.9-0.1-1.4-0.5-1.4-1.2V186h7.5c0.4,0,0.6,0.1,0.8,0.2c0.2,0.1,0.3,0.3,0.5,0.5l31.1,40.2c0-0.4-0.1-1.1-0.1-1.9v-36.4l-4.6-0.1
		c-0.9-0.1-1.4-0.5-1.4-1.2V186h14.7V187.3z"/>
	<path class="st1" d="M321.8,187.4c0,0.7-0.5,1.1-1.4,1.2l-4.4,0.1V217c0,5-1.2,9-3.7,11.8c-2.5,2.8-6,4.2-10.6,4.2
		c-0.9,0-1.9-0.1-3.1-0.3c-1.2-0.2-2.3-0.4-3.2-0.7l0.3-1.4c0.1-0.4,0.2-0.7,0.3-0.8c0.1-0.2,0.3-0.2,0.6-0.2c0.2,0,0.4,0,0.6,0.1
		c1.7,0.4,3.1,0.6,4.2,0.6c3.7,0,6.5-1.1,8.4-3.4c1.9-2.3,2.8-5.5,2.8-9.7v-28.4l-4.9-0.1c-0.9-0.1-1.4-0.5-1.4-1.2V186h15.5V187.4z
		"/>
	<path class="st1" d="M368.9,221.6c-1.9,3.6-4.6,6.4-8,8.4c-3.5,2-7.5,3-12.1,3c-4.6,0-8.6-1-12.1-3.1c-3.5-2-6.1-4.8-8-8.4
		c-1.9-3.6-2.8-7.7-2.8-12.3c0-4.5,0.9-8.6,2.8-12.2c1.9-3.6,4.6-6.4,8-8.5c3.5-2,7.5-3.1,12.1-3.1c4.6,0,8.7,1,12.2,3.1
		c3.5,2.1,6.2,4.9,8,8.5c1.9,3.6,2.8,7.7,2.8,12.2C371.8,213.9,370.8,218,368.9,221.6z M365.8,198.3c-1.5-3.1-3.8-5.6-6.7-7.3
		c-2.9-1.7-6.4-2.6-10.3-2.6c-3.9,0-7.4,0.9-10.3,2.6c-2.9,1.7-5.1,4.2-6.7,7.4c-1.6,3.2-2.3,6.8-2.3,10.9c0,4.1,0.8,7.7,2.3,10.8
		c1.5,3.1,3.7,5.6,6.6,7.3c2.9,1.7,6.4,2.6,10.4,2.6c4,0,7.5-0.9,10.4-2.6c2.9-1.7,5.1-4.2,6.6-7.3c1.5-3.1,2.3-6.8,2.3-10.9
		C368.1,205.1,367.3,201.5,365.8,198.3z"/>
	<path class="st1" d="M420.1,221.6c-1.9,3.6-4.6,6.4-8,8.4c-3.5,2-7.5,3-12.1,3c-4.6,0-8.6-1-12.1-3.1c-3.5-2-6.1-4.8-8-8.4
		c-1.9-3.6-2.8-7.7-2.8-12.3c0-4.5,0.9-8.6,2.8-12.2c1.9-3.6,4.6-6.4,8-8.5c3.5-2,7.5-3.1,12.1-3.1c4.6,0,8.7,1,12.2,3.1
		c3.5,2.1,6.2,4.9,8,8.5c1.9,3.6,2.8,7.7,2.8,12.2C422.9,213.9,422,218,420.1,221.6z M417,198.3c-1.5-3.1-3.8-5.6-6.7-7.3
		c-2.9-1.7-6.4-2.6-10.3-2.6c-3.9,0-7.4,0.9-10.3,2.6c-2.9,1.7-5.1,4.2-6.7,7.4c-1.6,3.2-2.3,6.8-2.3,10.9c0,4.1,0.8,7.7,2.3,10.8
		c1.5,3.1,3.7,5.6,6.6,7.3c2.9,1.7,6.4,2.6,10.4,2.6c4,0,7.5-0.9,10.4-2.6c2.9-1.7,5.1-4.2,6.6-7.3c1.5-3.1,2.3-6.8,2.3-10.9
		C419.3,205.1,418.5,201.5,417,198.3z"/>
	<path class="st1" d="M130.2,305c-4.4,4.5-10.2,6.7-17.2,6.7c-4.5,0-8.5-1-11.9-3.1c-3.4-2-6-4.9-7.9-8.5c-1.9-3.6-2.8-7.7-2.8-12.2
		c0-4.6,1-8.7,3-12.3c2-3.6,4.7-6.4,8.3-8.4c3.6-2,7.6-3,12.3-3c4.6,0,9.7,1.1,15.4,3.3v10.4h-1.6c-0.9,0-1.4-0.5-1.5-1.6l-0.3-7
		c-4.1-1.5-8.1-2.2-11.9-2.2c-4,0-7.6,0.9-10.6,2.7c-3,1.8-5.3,4.2-6.9,7.4C94.8,280.4,94,284,94,288c0,4.1,0.8,7.7,2.4,10.9
		c1.6,3.1,3.8,5.6,6.7,7.3c2.9,1.7,6.3,2.6,10.1,2.6c2.9,0,5.6-0.4,7.8-1.2c2.3-0.8,4.5-2.1,6.5-3.9c0.2-0.2,0.5-0.3,0.7-0.3
		c0.2,0,0.4,0.1,0.5,0.3L130.2,305z"/>
	<path class="st1" d="M175.2,309.9v1.3h-4.8c-0.4,0-0.7-0.1-1-0.2c-0.2-0.2-0.5-0.4-0.7-0.6l-15.4-18.8c-0.5-0.6-1-0.9-1.4-1.1
		c-0.4-0.2-1-0.2-1.9-0.2h-5.7v18.4l4.3,0.1c0.9,0.1,1.4,0.5,1.4,1.2v1.3h-15v-1.3c0-0.7,0.5-1.1,1.4-1.2l4.4-0.1v-41.3l-4.4-0.1
		c-0.9,0-1.3-0.4-1.3-1.2v-1.2h17.4c5.2,0,9.3,1,12.2,2.9c2.9,1.9,4.3,5,4.3,9.3c0,3.6-1.3,6.5-3.8,8.9c-2.5,2.3-5.8,3.7-9.9,4
		c0.6,0.4,1.1,0.8,1.5,1.3l14.4,17.5l2.6,0.1C174.7,308.8,175.2,309.1,175.2,309.9z M162,285c2.5-1.8,3.7-4.4,3.7-7.7
		c0-6.6-4.4-9.8-13.1-9.8h-8.2v20.3h7.7C156.2,287.7,159.5,286.8,162,285z"/>
	<path class="st1" d="M215.6,274.3h-1.7c-0.9,0-1.3-0.5-1.4-1.6l-0.3-5.2h-21.9v18.8h19.2v2.7h-19.2v19.4h21.9l0.3-5.2
		c0.1-1.1,0.6-1.6,1.4-1.6h1.7v9.6h-34.5v-1.3c0-0.7,0.4-1.1,1.3-1.2l4.4-0.1v-41.3l-4.4-0.1c-0.9-0.1-1.4-0.5-1.4-1.2v-1.2h34.6
		V274.3z"/>
	<path class="st1" d="M271.1,309c0.2,0.2,0.3,0.5,0.3,0.9v1.3h-13v-1.3c0-0.4,0.1-0.7,0.3-0.9c0.2-0.2,0.5-0.3,1-0.3l3.2-0.1
		l-5.1-12.7h-23.2l-5.1,12.6l3.4,0.1c0.5,0,0.8,0.2,1,0.3c0.2,0.2,0.3,0.5,0.3,0.9v1.3h-13v-1.3c0-0.4,0.1-0.7,0.3-0.9
		c0.2-0.2,0.5-0.3,1-0.3l3.3-0.1l18.6-43.8h3.7l18.6,43.8l3.5,0.1C270.6,308.8,270.9,308.9,271.1,309z M256.7,293.5l-9.4-22.6
		l-1.1-3l-1.1,3l-9.4,22.6H256.7z"/>
	<path class="st1" d="M312.6,274.3H311c-0.9,0-1.4-0.5-1.5-1.6l-0.3-5.2h-14v41l4.4,0.1c0.9,0.1,1.4,0.5,1.4,1.2v1.3h-15v-1.3
		c0-0.7,0.5-1.1,1.4-1.2l4.3-0.1v-41h-14.1l-0.3,5.2c0,1-0.5,1.6-1.4,1.6h-1.7v-9.6h38.3V274.3z"/>
	<path class="st1" d="M327.3,308.6l4.4,0.1c0.9,0,1.3,0.4,1.3,1.2v1.3h-15v-1.3c0-0.7,0.5-1.1,1.4-1.2l4.4-0.1v-41.2l-4.4-0.1
		c-0.9-0.1-1.4-0.5-1.4-1.2v-1.3h15v1.3c0,0.7-0.4,1.1-1.3,1.2l-4.4,0.1V308.6z"/>
	<path class="st1" d="M386.2,266c0,0.7-0.5,1.1-1.4,1.2l-2.6,0.1l-18.8,43.9h-3.1l-18.8-43.9l-2.7-0.1c-0.9-0.1-1.4-0.5-1.4-1.2
		v-1.2h12.9v1.2c0,0.7-0.5,1.1-1.4,1.2l-3.9,0.1l15.7,36.9c0.4,0.9,0.7,2,1,3.2c0.3-1.1,0.6-2.2,1-3.2l15.6-36.9l-3.9-0.1
		c-0.9,0-1.3-0.4-1.3-1.2v-1.2h12.8V266z"/>
	<path class="st1" d="M425.9,274.3h-1.7c-0.9,0-1.3-0.5-1.4-1.6l-0.3-5.2h-21.9v18.8h19.2v2.7h-19.2v19.4h21.9l0.3-5.2
		c0.1-1.1,0.6-1.6,1.4-1.6h1.7v9.6h-34.5v-1.3c0-0.7,0.4-1.1,1.3-1.2l4.4-0.1v-41.3l-4.4-0.1c-0.9-0.1-1.4-0.5-1.4-1.2v-1.2h34.6
		V274.3z"/>
	<path class="st1" d="M459.5,290.3c2,1.7,3,4.1,3,7.3c0,2.8-0.7,5.3-2,7.5c-1.3,2.1-3.2,3.8-5.5,4.9c-2.4,1.1-5,1.7-7.9,1.7
		c-4.4,0-8.7-0.9-12.9-2.6v-10.4h1.6c1,0,1.4,0.5,1.5,1.6l0.3,6.7c1.7,0.7,3.2,1.2,4.6,1.4c1.4,0.3,3,0.4,5,0.4c3.7,0,6.6-1,8.8-2.9
		c2.2-1.9,3.3-4.6,3.3-7.8c0-2-0.5-3.5-1.4-4.7c-0.9-1.2-2.2-2.1-3.7-2.8c-1.6-0.7-3.9-1.5-6.9-2.4c-4.2-1.3-7.3-2.8-9.2-4.5
		c-1.9-1.7-2.9-4.2-2.9-7.5c0-2.4,0.6-4.4,1.8-6.3c1.2-1.8,2.9-3.2,5-4.2c2.1-1,4.5-1.5,7.1-1.5c3.9,0,8,0.9,12.4,2.7v10.4h-1.6
		c-0.9,0-1.4-0.5-1.5-1.6l-0.3-7.1c-2.7-1.1-5.6-1.6-8.9-1.6c-3.1,0-5.7,0.8-7.7,2.5c-2,1.7-3,3.8-3,6.5c0,1.8,0.5,3.3,1.5,4.5
		c1,1.2,2.3,2.2,3.9,2.9c1.6,0.8,3.9,1.6,6.7,2.5C454.4,287.1,457.5,288.6,459.5,290.3z"/>
</g>
<g>
	<path class="st1" d="M96.4,341.6v17.5c1,0.2,1.6,0.3,1.9,0.4c0.2,0.1,0.4,0.2,0.4,0.6v1.3h-7.3V360c0-0.3,0.1-0.5,0.4-0.6l1.8-0.3
		v-17.5c-1-0.2-1.6-0.3-1.8-0.4c-0.2-0.1-0.4-0.2-0.4-0.6v-1.3h7.3v1.3c0,0.3-0.2,0.5-0.5,0.6L96.4,341.6z"/>
	<path class="st1" d="M105.3,348c1.5-1.7,3.2-2.5,5.1-2.5c1.6,0,2.9,0.5,3.8,1.6c0.9,1,1.3,2.5,1.3,4.3v7.6c1,0.2,1.6,0.3,1.7,0.4
		c0.3,0.1,0.5,0.3,0.5,0.6v1.3h-4.9v-9.9c0-2.4-1.1-3.7-3.2-3.7c-1.5,0-2.9,0.7-4.2,2.2v9.2c0.1,0,0.7,0.1,1.8,0.4
		c0.3,0.1,0.5,0.3,0.5,0.6v1.3h-7.1V360c0-0.3,0.1-0.5,0.4-0.6l1.8-0.3V348c-1-0.2-1.6-0.3-1.8-0.4c-0.3-0.1-0.4-0.3-0.4-0.6v-1.3
		h2.2h1.6c0.4,0,0.6,0.2,0.7,0.6L105.3,348L105.3,348z"/>
	<path class="st1" d="M125.9,345.5c1.7,0,3.1,0.6,4.2,1.8V341c-1-0.2-1.7-0.3-2-0.4c-0.3-0.1-0.5-0.2-0.5-0.6v-1.3h5.2V359
		c1,0.2,1.6,0.3,1.8,0.4c0.3,0.1,0.4,0.2,0.4,0.6v1.3h-3.8c-0.4,0-0.6-0.2-0.7-0.6l-0.2-1.9c-1.5,1.8-3.2,2.6-5.2,2.6
		c-1.8,0-3.2-0.7-4.3-2c-1-1.4-1.6-3.3-1.6-5.9c0-2.3,0.6-4.3,1.8-5.8C122.3,346.3,123.9,345.5,125.9,345.5L125.9,345.5z M126,359.3
		c1.6,0,3-0.8,4.1-2.4v-7.5c-0.9-1.2-2.1-1.8-3.6-1.8c-1.5,0-2.6,0.5-3.4,1.5c-0.8,1-1.2,2.5-1.2,4.4c0,2.9,0.7,4.7,2.3,5.4
		C124.8,359.2,125.4,359.3,126,359.3L126,359.3z"/>
	<path class="st1" d="M144.4,359.4c1.5,0,2.9-0.7,4.2-2.1v-9.2c-0.2-0.1-0.8-0.2-1.7-0.4c-0.3-0.1-0.5-0.3-0.5-0.6v-1.3h2.2h2.7
		v13.3c1,0.2,1.6,0.3,1.7,0.4c0.3,0.1,0.5,0.2,0.5,0.6v1.3h-3.8c-0.4,0-0.6-0.2-0.7-0.6l-0.2-1.7c-1.5,1.7-3.2,2.5-5.1,2.5
		c-1.6,0-2.9-0.6-3.8-1.6c-0.9-1-1.3-2.4-1.3-4.3V348c-1-0.2-1.5-0.3-1.7-0.4c-0.3-0.1-0.5-0.3-0.5-0.6v-1.3h4.9v9.9
		c0,1.2,0.2,2.1,0.8,2.8C142.5,359.1,143.3,359.4,144.4,359.4L144.4,359.4z"/>
	<path class="st1" d="M161.3,345.6c1.1,0,2.4,0.3,4,0.8v1.1v2.9h-1.2c-0.3,0-0.5-0.1-0.5-0.4c0-0.1-0.1-0.7-0.2-2
		c-0.9-0.2-1.7-0.3-2.4-0.3h0c-0.9,0-1.6,0.2-2.1,0.7c-0.5,0.4-0.8,0.9-0.8,1.4c0,0.5,0.1,0.9,0.4,1.2c0.4,0.5,1,0.8,1.8,1.1
		c0.8,0.2,1.4,0.4,1.9,0.6l1.5,0.6c0.5,0.2,0.9,0.5,1.3,0.8c0.9,0.7,1.3,1.6,1.3,2.7c0,1.5-0.5,2.7-1.5,3.6c-1,0.9-2.4,1.4-4.1,1.4
		c-1.6,0-3.4-0.3-5-0.8v-4h1.1c0.2,0,0.4,0.1,0.5,0.4c0,0.1,0.1,0.7,0.2,2c0.9,0.4,1.9,0.6,3.1,0.6c1,0,1.8-0.3,2.4-0.8
		c0.5-0.5,0.8-1,0.8-1.6c0-0.6-0.1-1-0.4-1.3s-0.5-0.6-0.9-0.7c-0.4-0.2-0.8-0.4-1.3-0.5c-1.3-0.4-2.3-0.7-2.8-1
		c-0.5-0.2-1-0.6-1.4-0.9c-0.9-0.7-1.3-1.7-1.3-2.9c0-1.3,0.5-2.3,1.5-3.1C158,346,159.4,345.6,161.3,345.6L161.3,345.6z"/>
	<path class="st1" d="M170.6,360.5c-0.7-0.7-1-1.7-1-2.9v-9.5h-1.9c-0.2,0-0.3,0-0.4-0.1c-0.1-0.1-0.2-0.3-0.2-0.5v-1.1l2.5-0.3
		l0.6-4.8c0-0.2,0.1-0.3,0.2-0.4c0.1-0.1,0.2-0.1,0.4-0.1h1.4v5.3h4.4v2h-4.4v9.3c0,0.7,0.2,1.2,0.5,1.5c0.3,0.3,0.8,0.5,1.3,0.5
		c0.3,0,0.5-0.1,0.8-0.1c0.2-0.1,0.4-0.2,0.5-0.2c0.2-0.1,0.2-0.2,0.4-0.2c0.1-0.1,0.2-0.1,0.3-0.1c0.1,0,0.2,0.1,0.4,0.2l0.8,1.3
		c-0.5,0.4-1,0.8-1.7,1c-0.7,0.2-1.3,0.4-2,0.4C172.2,361.5,171.2,361.2,170.6,360.5z"/>
	<path class="st1" d="M183.6,349c1.1-2.3,2.7-3.5,4.7-3.5c0.8,0,1.5,0.2,2.1,0.6l-0.3,2.1c-0.1,0.2-0.2,0.4-0.4,0.4
		c-0.2,0-0.4-0.1-0.7-0.2c-0.3-0.1-0.7-0.2-1.3-0.2c-1.8,0-3.1,1.1-4,3.2v7.7c0.2,0.1,0.8,0.2,1.7,0.3c0.3,0.1,0.5,0.3,0.5,0.6v1.3
		h-7.1V360c0-0.3,0.2-0.5,0.5-0.6l1.7-0.3V348c-1-0.2-1.6-0.3-1.7-0.4c-0.3-0.1-0.5-0.3-0.5-0.6v-1.3h2.2h1.6c0.3,0,0.5,0,0.6,0.2
		c0.1,0.1,0.2,0.3,0.2,0.6L183.6,349L183.6,349z"/>
	<path class="st1" d="M199,360v1.3h-7.1V360c0-0.3,0.2-0.5,0.5-0.6c0.3-0.1,1.8-0.3,1.8-0.3V348c0,0-1.5-0.3-1.8-0.3
		s-0.5-0.3-0.5-0.6v-1.3h4.9v13.3c0,0,1.5,0.3,1.7,0.3C198.9,359.5,199,359.7,199,360z M193.7,341.7c-0.1-0.2-0.2-0.5-0.2-0.7
		c0-0.2,0-0.5,0.2-0.8c0.1-0.2,0.2-0.5,0.4-0.6c0.2-0.2,0.4-0.3,0.6-0.4c0.2-0.1,0.5-0.2,0.7-0.2s0.5,0,0.7,0.2
		c0.2,0.1,0.4,0.2,0.6,0.4s0.3,0.4,0.4,0.6c0.1,0.2,0.2,0.5,0.2,0.8c0,0.2-0.1,0.5-0.2,0.7c-0.1,0.2-0.2,0.4-0.4,0.6
		s-0.4,0.3-0.6,0.4c-0.2,0.1-0.5,0.2-0.7,0.2s-0.5,0-0.7-0.2c-0.2-0.1-0.4-0.2-0.6-0.4C194,342.1,193.9,341.9,193.7,341.7z"/>
	<path class="st1" d="M214.2,359.3c0.3,0.1,0.5,0.3,0.5,0.6v1.3h-2h-0.2h-1c-0.2,0-0.5-0.1-0.6-0.1c-0.2-0.1-0.2-0.2-0.3-0.5
		l-0.3-1.5c-0.4,0.4-0.9,0.7-1.2,1c-0.4,0.3-0.8,0.6-1.2,0.7s-0.9,0.3-1.3,0.5c-0.5,0.1-1,0.2-1.6,0.2s-1.1-0.1-1.6-0.3
		s-1-0.4-1.4-0.7c-0.4-0.3-0.7-0.8-0.9-1.3c-0.2-0.5-0.3-1.1-0.3-1.8c0-0.6,0.2-1.2,0.5-1.8c0.3-0.6,0.9-1.1,1.6-1.5
		c0.7-0.4,1.7-0.8,2.9-1.1c1.2-0.3,2.7-0.4,4.5-0.4v-1.2c0-1.2-0.3-2.1-0.8-2.8c-0.5-0.6-1.3-0.9-2.3-0.9c-0.7,0-1.2,0.1-1.7,0.3
		s-0.8,0.3-1.2,0.6c-0.3,0.2-0.6,0.4-0.9,0.6s-0.5,0.2-0.7,0.2c-0.2,0-0.4,0-0.5-0.1c-0.1-0.1-0.2-0.2-0.3-0.4l-0.5-0.9
		c0.9-0.8,1.8-1.4,2.7-1.8c1-0.4,2.1-0.6,3.3-0.6c0.9,0,1.6,0.1,2.3,0.4c0.7,0.3,1.2,0.7,1.7,1.2c0.5,0.5,0.8,1.1,1,1.8
		c0.2,0.7,0.3,1.5,0.3,2.4v7.7C213.1,359.2,214,359.3,214.2,359.3L214.2,359.3z M210,354.3c-1.3,0-2.3,0.1-3.2,0.2
		c-0.9,0.2-1.6,0.4-2.1,0.6c-0.5,0.2-1,0.6-1.2,0.9c-0.2,0.4-0.4,0.7-0.4,1.2c0,0.4,0.1,0.7,0.2,1c0.1,0.3,0.3,0.6,0.5,0.7
		c0.2,0.2,0.5,0.3,0.8,0.4c0.3,0.1,0.6,0.2,1,0.2c0.5,0,0.9-0.1,1.3-0.2c0.4-0.1,0.8-0.2,1.1-0.4c0.4-0.2,0.7-0.4,1-0.7
		c0.3-0.2,0.6-0.6,0.9-0.9V354.3z"/>
	<path class="st1" d="M223.6,360v1.3h-7.1V360c0-0.3,0.2-0.5,0.5-0.6l1.7-0.3V341c-1-0.2-1.5-0.3-1.7-0.4c-0.3-0.1-0.5-0.2-0.5-0.6
		v-1.3h4.9V359c1,0.2,1.5,0.3,1.7,0.4C223.4,359.5,223.6,359.7,223.6,360z"/>
	<path class="st1" d="M252,354.8c-0.5,1.3-1.3,2.5-2.2,3.5c-2,2-4.5,3-7.8,3h-10.1V360c0-0.3,0.2-0.5,0.5-0.6l1.7-0.3v-17.5
		c-1-0.2-1.5-0.3-1.7-0.4c-0.3-0.1-0.5-0.3-0.5-0.6v-1.3H242c3.2,0,5.8,1,7.8,3c2,2,3,4.7,3,8C252.7,352,252.5,353.5,252,354.8z
		 M249.1,346.7c-0.4-1-0.9-2-1.5-2.7c-1.4-1.5-3.3-2.3-5.6-2.3h-4.9v17.1h4.9c2.4,0,4.2-0.7,5.6-2.3c1.4-1.5,2.1-3.6,2.1-6.3
		C249.7,349,249.5,347.8,249.1,346.7z"/>
	<path class="st1" d="M262.1,345.6c0.9,0,1.8,0.2,2.6,0.5c0.8,0.3,1.5,0.7,2,1.3c0.5,0.6,1,1.3,1.3,2.2c0.3,0.9,0.5,1.8,0.5,2.9
		c0,0.4,0,0.7-0.1,0.9c-0.1,0.1-0.3,0.2-0.5,0.2h-10.2c0,1,0.1,1.8,0.4,2.6s0.6,1.3,1,1.8c0.4,0.5,0.9,0.9,1.5,1.1
		c0.6,0.2,1.2,0.4,2,0.4c0.7,0,1.3-0.1,1.8-0.2c0.5-0.2,0.9-0.3,1.3-0.5c0.4-0.2,0.7-0.3,0.9-0.5c0.2-0.2,0.4-0.2,0.6-0.2
		c0.2,0,0.4,0.1,0.5,0.3l0.8,1c-0.3,0.4-0.7,0.7-1.2,1c-0.5,0.3-0.9,0.6-1.5,0.8c-0.5,0.2-1.1,0.3-1.6,0.4c-0.5,0.1-1.1,0.2-1.7,0.2
		c-1.1,0-2-0.2-3-0.6c-0.9-0.4-1.7-0.9-2.3-1.6c-0.7-0.7-1.2-1.6-1.5-2.6c-0.4-1-0.5-2.2-0.5-3.6c0-1.1,0.2-2.1,0.5-3
		c0.3-0.9,0.8-1.8,1.4-2.4s1.4-1.2,2.3-1.6C260.1,345.8,261.1,345.6,262.1,345.6L262.1,345.6z M262.2,347.6c-1.3,0-2.3,0.4-3.1,1.1
		c-0.7,0.8-1.2,1.8-1.4,3.2h8.4c0-0.6-0.1-1.2-0.3-1.7c-0.2-0.5-0.4-1-0.7-1.4c-0.3-0.4-0.8-0.7-1.3-0.9
		C263.4,347.7,262.8,347.6,262.2,347.6L262.2,347.6z"/>
	<path class="st1" d="M276.3,345.6c1.1,0,2.4,0.3,4,0.8v1.1v2.9h-1.2c-0.3,0-0.5-0.1-0.5-0.4c0-0.1-0.1-0.7-0.2-2
		c-0.9-0.2-1.7-0.3-2.4-0.3h0c-0.9,0-1.6,0.2-2.1,0.7c-0.5,0.4-0.8,0.9-0.8,1.4c0,0.5,0.1,0.9,0.4,1.2c0.4,0.5,1,0.8,1.8,1.1
		c0.8,0.2,1.4,0.4,1.9,0.6l1.5,0.6c0.5,0.2,0.9,0.5,1.3,0.8c0.9,0.7,1.3,1.6,1.3,2.7c0,1.5-0.5,2.7-1.5,3.6c-1,0.9-2.4,1.4-4.1,1.4
		c-1.6,0-3.4-0.3-5-0.8v-4h1.1c0.2,0,0.4,0.1,0.5,0.4c0,0.1,0.1,0.7,0.2,2c0.9,0.4,1.9,0.6,3.1,0.6c1,0,1.8-0.3,2.4-0.8
		c0.5-0.5,0.8-1,0.8-1.6c0-0.6-0.1-1-0.4-1.3s-0.5-0.6-0.9-0.7s-0.8-0.4-1.3-0.5c-1.3-0.4-2.3-0.7-2.8-1c-0.5-0.2-1-0.6-1.4-0.9
		c-0.9-0.7-1.3-1.7-1.3-2.9c0-1.3,0.5-2.3,1.5-3.1C273.1,346,274.5,345.6,276.3,345.6L276.3,345.6z"/>
	<path class="st1" d="M289.9,360v1.3h-7.1V360c0-0.3,0.2-0.5,0.5-0.6c0.3-0.1,1.8-0.3,1.8-0.3V348c0,0-1.5-0.3-1.8-0.3
		s-0.5-0.3-0.5-0.6v-1.3h4.9v13.3c0,0,1.5,0.3,1.7,0.3C289.7,359.5,289.9,359.7,289.9,360z M284.5,341.7c-0.1-0.2-0.2-0.5-0.2-0.7
		c0-0.2,0-0.5,0.2-0.8c0.1-0.2,0.2-0.5,0.4-0.6s0.4-0.3,0.6-0.4c0.2-0.1,0.5-0.2,0.7-0.2s0.5,0,0.7,0.2c0.2,0.1,0.4,0.2,0.6,0.4
		c0.2,0.2,0.3,0.4,0.4,0.6c0.1,0.2,0.2,0.5,0.2,0.8c0,0.2-0.1,0.5-0.2,0.7c-0.1,0.2-0.2,0.4-0.4,0.6c-0.2,0.2-0.4,0.3-0.6,0.4
		c-0.2,0.1-0.5,0.2-0.7,0.2s-0.5,0-0.7-0.2c-0.2-0.1-0.4-0.2-0.6-0.4S284.7,341.9,284.5,341.7z"/>
	<path class="st1" d="M297.6,345.6c0.7,0,1.3,0.1,1.9,0.2c0.6,0.2,1.1,0.4,1.6,0.7h4.2v1c0,0.3-0.2,0.6-0.6,0.6l-1.7,0.2
		c0.4,0.7,0.5,1.4,0.5,2.2c0,0.7-0.1,1.4-0.4,2.1c-0.3,0.6-0.7,1.1-1.2,1.6c-0.5,0.4-1.1,0.8-1.8,1c-0.7,0.2-1.5,0.3-2.3,0.3
		c-0.7,0-1.4-0.1-2-0.3c-0.3,0.2-0.5,0.4-0.7,0.7s-0.2,0.4-0.2,0.7c0,0.4,0.1,0.6,0.4,0.8c0.3,0.2,0.7,0.3,1.2,0.4
		c0.5,0.1,1.1,0.1,1.7,0.1s1.3,0.1,1.9,0.1c0.6,0.1,1.3,0.1,1.9,0.2c0.6,0.1,1.2,0.3,1.7,0.6c0.5,0.2,0.9,0.6,1.2,1.1
		c0.3,0.4,0.4,1,0.4,1.7c0,0.7-0.2,1.3-0.5,2c-0.3,0.6-0.9,1.2-1.5,1.7c-0.6,0.5-1.3,0.9-2.3,1.2s-1.9,0.4-3,0.4
		c-1.1,0-2.1-0.1-3-0.3c-0.9-0.2-1.6-0.6-2.1-0.9c-0.5-0.4-1-0.8-1.3-1.3c-0.3-0.5-0.4-1-0.4-1.5c0-0.8,0.2-1.4,0.7-2
		c0.5-0.6,1.2-1,2-1.3c-0.4-0.2-0.8-0.5-1-0.8c-0.2-0.3-0.4-0.8-0.4-1.4c0-0.2,0.1-0.4,0.1-0.7c0.1-0.2,0.2-0.5,0.4-0.7
		c0.2-0.2,0.4-0.5,0.6-0.7c0.2-0.2,0.5-0.4,0.9-0.6c-0.8-0.4-1.4-1-1.8-1.7c-0.4-0.7-0.6-1.5-0.6-2.5c0-0.7,0.1-1.4,0.4-2.1
		c0.3-0.6,0.7-1.1,1.2-1.6c0.5-0.4,1.2-0.8,1.9-1C296,345.6,296.8,345.5,297.6,345.6L297.6,345.6z M302.4,362.2
		c0-0.4-0.1-0.7-0.3-0.9s-0.5-0.4-0.9-0.6c-0.4-0.1-0.8-0.2-1.3-0.3c-0.5-0.1-1-0.1-1.5-0.2c-0.5,0-1.1,0-1.6-0.1
		c-0.5,0-1.1-0.1-1.6-0.2c-0.6,0.3-1.1,0.6-1.4,1c-0.4,0.4-0.5,0.9-0.5,1.4c0,0.4,0.1,0.7,0.3,1c0.2,0.3,0.5,0.6,0.8,0.8
		s0.8,0.4,1.4,0.5c0.5,0.1,1.2,0.2,2,0.2c0.7,0,1.4-0.1,2-0.2c0.6-0.1,1.1-0.3,1.5-0.6c0.4-0.2,0.7-0.5,0.9-0.9
		C302.3,363,302.4,362.6,302.4,362.2L302.4,362.2z M297.6,353.8c0.5,0,1-0.1,1.5-0.2c0.4-0.2,0.8-0.4,1.1-0.6c0.3-0.3,0.5-0.6,0.6-1
		c0.1-0.4,0.2-0.8,0.2-1.3c0-0.9-0.3-1.7-0.9-2.3c-0.6-0.6-1.4-0.8-2.5-0.8c-1.1,0-1.9,0.3-2.5,0.8c-0.6,0.6-0.9,1.3-0.9,2.3
		c0,0.5,0.1,0.9,0.2,1.3c0.2,0.4,0.3,0.7,0.6,1c0.3,0.3,0.6,0.5,1.1,0.6S297.1,353.8,297.6,353.8L297.6,353.8z"/>
	<path class="st1" d="M311.9,348c1.5-1.7,3.2-2.5,5.1-2.5c1.6,0,2.9,0.5,3.8,1.6c0.9,1,1.3,2.5,1.3,4.3v7.6c1,0.2,1.6,0.3,1.7,0.4
		c0.3,0.1,0.5,0.3,0.5,0.6v1.3h-4.9v-9.9c0-2.4-1.1-3.7-3.2-3.7c-1.5,0-2.9,0.7-4.2,2.2v9.2c0.1,0,0.7,0.1,1.8,0.4
		c0.3,0.1,0.5,0.3,0.5,0.6v1.3h-7.1V360c0-0.3,0.1-0.5,0.4-0.6l1.8-0.3V348c-1-0.2-1.6-0.3-1.8-0.4c-0.3-0.1-0.4-0.3-0.4-0.6v-1.3
		h2.2h1.6c0.4,0,0.6,0.2,0.7,0.6L311.9,348L311.9,348z"/>
	<path class="st1" d="M348.9,339.4v5.3h-1.5c-0.4,0-0.5-0.2-0.6-0.5c0-0.1-0.1-0.9-0.2-2.4h-8.7v7.7h8.3v2.4h-8.3v7.2
		c0.2,0.1,0.8,0.2,1.7,0.3c0.3,0.1,0.5,0.3,0.5,0.6v1.3h-7.4V360c0-0.3,0.2-0.5,0.5-0.6l1.7-0.3v-17.5c-1-0.2-1.6-0.3-1.7-0.4
		c-0.3-0.1-0.5-0.3-0.5-0.6v-1.3h2.2H348.9z"/>
	<path class="st1" d="M357.5,360v1.3h-7.1V360c0-0.3,0.2-0.5,0.5-0.6c0.3-0.1,1.8-0.3,1.8-0.3V348c0,0-1.5-0.3-1.8-0.3
		s-0.5-0.3-0.5-0.6v-1.3h4.9v13.3c0,0,1.5,0.3,1.7,0.3C357.4,359.5,357.5,359.7,357.5,360z M352.2,341.7c-0.1-0.2-0.2-0.5-0.2-0.7
		c0-0.2,0-0.5,0.2-0.8c0.1-0.2,0.2-0.5,0.4-0.6s0.4-0.3,0.6-0.4c0.2-0.1,0.5-0.2,0.7-0.2s0.5,0,0.7,0.2c0.2,0.1,0.4,0.2,0.6,0.4
		c0.2,0.2,0.3,0.4,0.4,0.6c0.1,0.2,0.2,0.5,0.2,0.8c0,0.2-0.1,0.5-0.2,0.7c-0.1,0.2-0.2,0.4-0.4,0.6c-0.2,0.2-0.4,0.3-0.6,0.4
		c-0.2,0.1-0.5,0.2-0.7,0.2s-0.5,0-0.7-0.2c-0.2-0.1-0.4-0.2-0.6-0.4S352.4,341.9,352.2,341.7z"/>
	<path class="st1" d="M364.1,349c1.1-2.3,2.7-3.5,4.7-3.5c0.8,0,1.5,0.2,2.1,0.6l-0.3,2.1c-0.1,0.2-0.2,0.4-0.4,0.4
		s-0.4-0.1-0.7-0.2c-0.3-0.1-0.7-0.2-1.3-0.2c-1.8,0-3.1,1.1-4,3.2v7.7c0.2,0.1,0.8,0.2,1.7,0.3c0.3,0.1,0.5,0.3,0.5,0.6v1.3h-7.1
		V360c0-0.3,0.2-0.5,0.5-0.6l1.7-0.3V348c-1-0.2-1.6-0.3-1.7-0.4c-0.3-0.1-0.5-0.3-0.5-0.6v-1.3h2.2h1.6c0.3,0,0.5,0,0.6,0.2
		c0.1,0.1,0.2,0.3,0.2,0.6L364.1,349L364.1,349z"/>
	<path class="st1" d="M377.2,348c1.3-1.6,2.7-2.4,4.4-2.4c1,0,1.9,0.3,2.6,0.9s1.1,1.4,1.4,2.4c0.4-1.1,1.1-1.9,2-2.4
		c0.9-0.5,1.7-0.8,2.7-0.8c0.9,0,1.7,0.2,2.4,0.4c0.6,0.2,1.2,0.6,1.6,1.1c0.9,1,1.3,2.5,1.3,4.3v7.7c1,0.2,1.6,0.3,1.8,0.4
		c0.3,0.1,0.5,0.2,0.5,0.6v1.3h-4.9v-9.9c0-1.2-0.2-2.1-0.8-2.8c-0.5-0.6-1.3-0.9-2.3-0.9c-0.9,0-1.7,0.3-2.3,0.9
		c-0.7,0.7-1,1.6-1,2.8v7.7c0.2,0,0.8,0.2,1.7,0.4c0.3,0.1,0.5,0.2,0.5,0.6v1.3h-4.9v-9.9c0-2.4-1-3.7-2.9-3.7c-1.3,0-2.4,0.7-3.4,2
		v9.3l0.8,0.2c0.5,0.1,0.9,0.2,0.9,0.2c0.3,0.1,0.5,0.3,0.5,0.6v1.3h-7.1V360c0-0.3,0.1-0.5,0.4-0.6l1.8-0.3V348
		c-1-0.2-1.6-0.3-1.8-0.4c-0.3-0.1-0.4-0.3-0.4-0.6v-1.3h2.2h1.6c0.4,0,0.6,0.2,0.7,0.6L377.2,348L377.2,348z"/>
</g>
<ellipse class="st2" cx="112.8" cy="412.6" rx="20.7" ry="20.8"/>
<ellipse class="st3" cx="172.1" cy="412.6" rx="20.7" ry="20.8"/>
<ellipse class="st4" cx="233.5" cy="412.6" rx="20.7" ry="20.8"/>
<ellipse class="st5" cx="291.8" cy="412.6" rx="20.7" ry="20.8"/>
</svg>
