<?xml version="1.0" encoding="utf-8"?>
<!-- Generator: Adobe Illustrator 21.0.0, SVG Export Plug-In . SVG Version: 6.00 Build 0)  -->
<svg version="1.1" id="Layer_1" xmlns="http://www.w3.org/2000/svg" xmlns:xlink="http://www.w3.org/1999/xlink" x="0px" y="0px"
	 viewBox="0 0 792 612" style="enable-background:new 0 0 792 612;" xml:space="preserve">
<style type="text/css">
	.st0{fill:#EFDD5F;}
</style>
<rect class="st0" width="792" height="612"/>
<circle cx="399" cy="199.2" r="60.7"/>
<g>
	<path d="M341,331.7l6.2,1.6c0.1,1.3,0.1,2.4,0.1,3.3c0,4.9-1.8,8.8-5.3,11.7c-3.5,2.9-8.3,4.4-14.2,4.4c-14.9,0-22.3-8.4-22.3-25.1
		c0-7.9,2.2-14.4,6.5-19.3c4.3-4.9,10-7.4,16.9-7.4c10.9,0,16.3,5.2,16.3,15.7l-6.2,2.9c0.1-1.5,0.1-2.6,0.1-3.4
		c0-7.4-3-11.1-8.9-11.1c-6.3,0-9.4,7.9-9.4,23.6c0,13.5,3.5,20.3,10.5,20.3c2.9,0,5.3-1.2,7.2-3.5c1.9-2.3,2.9-5.2,2.9-8.6
		C341.4,335.5,341.3,333.9,341,331.7z"/>
	<path d="M371.4,301.7v45.1H392v5h-35.2v-50.2H371.4z"/>
	<path d="M421.9,301.7l14,50.2h-14.6l-3-10.9h-15.1l-3.2,10.9h-5.7l14.8-50.2H421.9z M404.5,335.9h12.3l-5.9-22.2L404.5,335.9z"/>
	<path d="M490.4,301.7v50.2h-14v-34.9l-9.8,34.9h-8.1l-10-34.3v34.3h-4.9v-50.2h14.8l8.6,30.3l8.6-30.3H490.4z"/>
	<path d="M297.5,388.7l-6.8,1.2c0.3-1.3,0.4-2.5,0.4-3.4c0-5.8-3.5-8.7-10.6-8.7c-5.6,0-8.4,2-8.4,6c0,3,3.1,5.6,9.4,7.8
		c12.1,4.1,18.1,10.3,18.1,18.4c0,4.8-1.7,8.6-5.1,11.4c-3.4,2.9-7.9,4.3-13.5,4.3c-12.4,0-18.6-4.8-18.6-14.4
		c0-0.8,0.1-1.8,0.2-2.9l7-1.5c-0.5,2.1-0.8,4-0.8,5.6c0,6.2,3.6,9.3,10.7,9.3c5.7,0,8.6-2.2,8.6-6.7c0-3.3-3.4-6.3-10.3-8.8
		c-9.9-3.6-14.8-9.4-14.8-17.4c0-4.5,1.6-8.1,4.9-10.9c3.3-2.8,7.6-4.1,13-4.1C292,373.9,297.5,378.8,297.5,388.7z"/>
	<path d="M342.5,374.7v5h-18v15.2h15.1v5h-15.1v19.9h21v5H310v-50.2H342.5z"/>
	<path d="M376.9,374.7l14,50.2h-14.6l-3-10.9h-15.1l-3.2,10.9h-5.7l14.8-50.2H376.9z M359.6,409h12.3l-5.9-22.2L359.6,409z"/>
	<path d="M431.6,388.7l-6.8,1.2c0.3-1.3,0.4-2.5,0.4-3.4c0-5.8-3.5-8.7-10.6-8.7c-5.6,0-8.4,2-8.4,6c0,3,3.1,5.6,9.4,7.8
		c12.1,4.1,18.1,10.3,18.1,18.4c0,4.8-1.7,8.6-5.1,11.4c-3.4,2.9-7.9,4.3-13.5,4.3c-12.4,0-18.6-4.8-18.6-14.4
		c0-0.8,0.1-1.8,0.2-2.9l7-1.5c-0.5,2.1-0.8,4-0.8,5.6c0,6.2,3.6,9.3,10.7,9.3c5.7,0,8.6-2.2,8.6-6.7c0-3.3-3.4-6.3-10.3-8.8
		c-9.9-3.6-14.8-9.4-14.8-17.4c0-4.5,1.6-8.1,4.9-10.9c3.3-2.8,7.6-4.1,13-4.1C426.1,373.9,431.6,378.8,431.6,388.7z"/>
	<path d="M464.6,373.8c14.6,0,21.9,8.7,21.9,26c0,17.3-7.4,25.9-22.3,25.9c-14.9,0-22.3-8.8-22.3-26.5
		C441.9,382.3,449.5,373.8,464.6,373.8z M464.2,377.8c-2.7,0-4.6,1.5-5.6,4.5c-1,3-1.5,8.8-1.5,17.4s0.5,14.4,1.5,17.4
		c1,3,2.8,4.5,5.6,4.5c2.7,0,4.6-1.5,5.6-4.5c1-3,1.5-8.8,1.5-17.4c0-8.6-0.5-14.3-1.5-17.4C468.8,379.4,467,377.8,464.2,377.8z"/>
	<path d="M533.6,374.7v50.2h-11.1l-21-31.8v31.8h-4.9v-50.2h9.2l22.9,34.3v-34.3H533.6z"/>
</g>
<g>
	<path d="M377.2,473.5v-22.8h9.8v3.3h-6.2v6.3h4.9v3.3h-4.9v6.7h6.2v3.3H377.2z"/>
	<path d="M390.9,473.5v-22.8h5.7c3.6,0,5.3,1.9,5.3,5.6v11.5c0,3.8-1.8,5.6-5.3,5.6H390.9z M394.5,470.2h2c1.2,0,1.8-0.7,1.8-2.2
		v-11.9c0-1.5-0.6-2.2-1.8-2.2h-2V470.2z"/>
	<path d="M405.9,473.5v-22.8h5l2.6,16.3l2.5-16.3h5.2v22.8h-3.6v-16.4l-2.5,16.4h-3.4l-2.7-16.1v16.1H405.9z"/>
</g>
<path class="st0" d="M318.1,205.3h-0.5c-1.2,0-2.2-1-2.2-2.2v-33.7c0-1.2,1-2.2,2.2-2.2h0.5c1.2,0,2.2,1,2.2,2.2v33.7
	C320.3,204.3,319.3,205.3,318.1,205.3z"/>
<path class="st0" d="M368,219.5h-1.2c-1.2,0-2.3-1-2.3-2.3v-32.9c0-1.2,1-2.3,2.3-2.3h1.2c1.2,0,2.3,1,2.3,2.3v32.9
	C370.2,218.5,369.2,219.5,368,219.5z"/>
<path class="st0" d="M377.1,233.7h-1.2c-1.2,0-2.3-1-2.3-2.3v-60c0-1.2,1-2.3,2.3-2.3h1.2c1.2,0,2.3,1,2.3,2.3v60
	C379.4,232.7,378.3,233.7,377.1,233.7z"/>
<path class="st0" d="M396.7,211.4h-1.2c-1.2,0-2.3-1-2.3-2.3v-16.7c0-1.2,1-2.3,2.3-2.3h1.2c1.2,0,2.3,1,2.3,2.3v16.7
	C399,210.4,398,211.4,396.7,211.4z"/>
<path class="st0" d="M358.8,210h-1.2c-1.2,0-2.3-1-2.3-2.3v-13.9c0-1.2,1-2.3,2.3-2.3h1.2c1.2,0,2.3,1,2.3,2.3v13.9
	C361.1,209,360.1,210,358.8,210z"/>
<path class="st0" d="M386.7,218.6h-1.2c-1.2,0-2.3-1-2.3-2.3v-32c0-1.2,1-2.3,2.3-2.3h1.2c1.2,0,2.3,1,2.3,2.3v32
	C388.9,217.6,387.9,218.6,386.7,218.6z"/>
<path class="st0" d="M406.2,219.7H405c-1.2,0-2.3-1-2.3-2.3v-32c0-1.2,1-2.3,2.3-2.3h1.2c1.2,0,2.3,1,2.3,2.3v32
	C408.5,218.7,407.5,219.7,406.2,219.7z"/>
<path class="st0" d="M415.8,213h-1.2c-1.2,0-2.3-1-2.3-2.3v-18.6c0-1.2,1-2.3,2.3-2.3h1.2c1.2,0,2.3,1,2.3,2.3v18.6
	C418.1,212,417.1,213,415.8,213z"/>
<path class="st0" d="M425.4,219.6h-1.2c-1.2,0-2.3-1-2.3-2.3v-31.9c0-1.2,1-2.3,2.3-2.3h1.2c1.2,0,2.3,1,2.3,2.3v31.9
	C427.7,218.6,426.7,219.6,425.4,219.6z"/>
<path class="st0" d="M435.7,212.8h-1.2c-1.2,0-2.3-1-2.3-2.3v-18.2c0-1.2,1-2.3,2.3-2.3h1.2c1.2,0,2.3,1,2.3,2.3v18.2
	C438,211.8,437,212.8,435.7,212.8z"/>
<path class="st0" d="M446.1,209.2h-1.2c-1.2,0-2.3-1-2.3-2.3v-11c0-1.2,1-2.3,2.3-2.3h1.2c1.2,0,2.3,1,2.3,2.3v11
	C448.3,208.2,447.3,209.2,446.1,209.2z"/>
</svg>
