<?xml version="1.0" encoding="utf-8"?>
<!-- Generator: Adobe Illustrator 21.0.0, SVG Export Plug-In . SVG Version: 6.00 Build 0)  -->
<svg version="1.1" id="Layer_1" xmlns="http://www.w3.org/2000/svg" xmlns:xlink="http://www.w3.org/1999/xlink" x="0px" y="0px"
	 viewBox="0 0 792 612" style="enable-background:new 0 0 792 612;" xml:space="preserve">
<style type="text/css">
	.st0{fill:#55C1B0;}
	.st1{fill:#FFFFFF;}
</style>
<rect width="792" height="612"/>
<line class="st0" x1="259.7" y1="251.5" x2="259.7" y2="171.9"/>
<path class="st0" d="M456.6,458H332.4c-64.9,0-118-53.1-118-118v-75.9c0-64.9,53.1-118,118-118h124.1c64.9,0,118,53.1,118,118V340
	C574.6,404.9,521.5,458,456.6,458z"/>
<path d="M444.7,466.3h-97.4c-64.9,0-118-53.1-118-118v-72c0-64.9,53.1-118,118-118h97.4c64.9,0,118,53.1,118,118v72
	C562.7,413.2,509.6,466.3,444.7,466.3z"/>
<g>
	<path class="st1" d="M266.7,381.2V272h19.2c12.1,0,18.1,9,18.1,27v55.2c0,18-6,27-18.1,27H266.7z M278.9,365.6h6.9
		c4.1,0,6.2-3.5,6.2-10.6v-56.8c0-7.1-2.1-10.6-6.2-10.6h-6.9V365.6z"/>
	<path class="st1" d="M308.4,381.2v-15.5c0.9,0.1,2.3,0.2,4.2,0.2c4.7,0,7-3.5,7-10.4V272h12.1v82.1c0,18.3-5.8,27.4-17.5,27.4
		C311.7,381.5,309.7,381.4,308.4,381.2z"/>
	<path class="st1" d="M357.2,381.2V272h19.2c12.1,0,18.1,9,18.1,27v55.2c0,18-6,27-18.1,27H357.2z M369.3,365.6h6.9
		c4.1,0,6.2-3.5,6.2-10.6v-56.8c0-7.1-2.1-10.6-6.2-10.6h-6.9V365.6z"/>
	<path class="st1" d="M399.1,381.2L411.4,272h18.8l12.3,109.2h-12.1l-2-19h-15.1l-2,19H399.1z M414.9,346.5h11.7l-5.9-55
		L414.9,346.5z"/>
	<path class="st1" d="M447.1,381.2V272h16.4l12.5,65.4V272h10.9v109.2h-12.5l-15.1-79v79H447.1z"/>
	<path class="st1" d="M494.4,381.2V272h12.1v47.6l15.9-47.6h12.1l-16.9,48.6l16.9,60.5h-12.5l-11.8-43.5l-3.8,10v33.5H494.4z"/>
</g>
<path class="st0" d="M552.6,380.1l2.1-107.5l37.2,0.7c13.2,0.3,23.7,11.2,23.4,24.4l-1.2,59.7c-0.3,13.2-11.2,23.7-24.4,23.4
	L552.6,380.1z"/>
<path class="st0" d="M237.8,272.9v107.6h-37.3c-13.2,0-23.9-10.7-23.9-23.9v-59.7c0-13.2,10.7-23.9,23.9-23.9H237.8z"/>
<rect x="219.2" y="402.1" width="363" height="97.8"/>
<rect x="219.2" y="380.7" width="24" height="24"/>
<rect x="544.1" y="380.8" width="30.4" height="23.7"/>
</svg>
