<?xml version="1.0" encoding="utf-8"?>
<!-- Generator: Adobe Illustrator 21.0.0, SVG Export Plug-In . SVG Version: 6.00 Build 0)  -->
<svg version="1.1" id="Layer_1" xmlns="http://www.w3.org/2000/svg" xmlns:xlink="http://www.w3.org/1999/xlink" x="0px" y="0px"
	 viewBox="0 0 792 612" style="enable-background:new 0 0 792 612;" xml:space="preserve">
<style type="text/css">
	.st0{fill:#F37980;}
	.st1{fill:#FFFFFF;}
</style>
<rect class="st0" width="792" height="612"/>
<polygon class="st1" points="452.3,173.9 405.5,250.6 359.7,174.5 "/>
<polygon class="st0" points="444,178.1 405.8,241.6 367.6,178.1 "/>
<polygon points="472,183 426.6,256.6 382.9,184 "/>
<polygon class="st1" points="451.9,174.7 405.6,250.6 403.1,246.4 446.2,174.7 "/>
<path d="M444,178.1"/>
<rect x="403.1" y="246.4" class="st1" width="4.9" height="55.6"/>
<rect x="403.1" y="284.7" transform="matrix(-1.836970e-16 1 -1 -1.836970e-16 709.9009 -101.1393)" class="st1" width="4.7" height="39.3"/>
<g>
	<path class="st1" d="M290,349.1v4.9h-20.6v10h18.7v5h-18.7v16.9h-5.8v-36.8H290z"/>
	<path class="st1" d="M303.7,381.2c1.1,0,2.1-0.2,3.1-0.6c1-0.4,1.8-0.9,2.6-1.6c0.7-0.7,1.3-1.5,1.7-2.4c0.4-0.9,0.6-1.9,0.6-2.9
		c0-1.3-0.3-2.5-0.9-3.7c-0.6-1.1-1.4-2-2.5-2.7c-0.4-0.3-1-0.6-1.6-0.8c-0.6-0.2-1.3-0.4-2.1-0.4c-0.8-0.1-1.5-0.1-2.3,0
		c-0.8,0.1-1.6,0.3-2.3,0.6c-0.8,0.3-1.5,0.8-2.1,1.3l-3.3-2.1l2-16.8h17v4.9h-12.3l-0.9,7.9c1.9-0.6,3.9-0.8,5.9-0.5
		c2,0.2,3.7,0.8,5,1.8c1.8,1.2,3.2,2.7,4.1,4.5c1,1.9,1.5,3.9,1.5,6c0,1.8-0.3,3.4-1,5c-0.7,1.5-1.6,2.9-2.8,4
		c-1.2,1.2-2.6,2.1-4.2,2.8c-1.6,0.7-3.4,1-5.3,1c-2.1,0-4.1-0.5-5.9-1.3c-1.8-0.9-3.3-2.1-4.6-3.5c-0.7-0.8-1.3-1.7-1.8-2.9
		l4.7-2.5c0.3,0.8,0.7,1.5,1.3,2.2c0.7,0.9,1.7,1.6,2.8,2.1C301.2,380.9,302.4,381.2,303.7,381.2z"/>
	<path class="st1" d="M363.7,349.1v4.9h-20.6v10h18.7v5h-18.7v16.9h-5.8v-36.8H363.7z"/>
	<path class="st1" d="M372.7,348v37.9h-5.3V348H372.7z"/>
	<path class="st1" d="M403.7,361v24.9h-4.5l-0.8-2.9c-0.9,1.1-2.1,2-3.5,2.6c-1.4,0.6-2.9,0.9-4.3,0.9c-1.8,0-3.5-0.3-5.1-1
		c-1.6-0.7-3-1.6-4.2-2.8c-1.2-1.2-2.1-2.6-2.8-4.2c-0.7-1.6-1-3.3-1-5.1c0-1.8,0.3-3.5,1-5.1s1.6-3,2.8-4.2
		c1.2-1.2,2.6-2.1,4.2-2.8c1.6-0.7,3.3-1,5.1-1c1.5,0,2.9,0.3,4.2,0.8c1.4,0.5,2.6,1.4,3.6,2.5l0.8-2.8H403.7z M390.5,382
		c1.1,0,2.1-0.2,3-0.7c1-0.4,1.8-1.1,2.5-1.8c0.7-0.8,1.2-1.7,1.7-2.7c0.4-1,0.6-2.1,0.6-3.3c0-1.2-0.2-2.3-0.6-3.3
		c-0.4-1-1-1.9-1.7-2.7c-0.7-0.8-1.5-1.4-2.5-1.8c-1-0.4-2-0.7-3-0.7c-1.1,0-2.1,0.2-3,0.7c-1,0.4-1.8,1.1-2.5,1.8
		c-0.7,0.8-1.2,1.7-1.7,2.7c-0.4,1-0.6,2.1-0.6,3.3c0,1.2,0.2,2.3,0.6,3.3s1,1.9,1.7,2.7c0.7,0.8,1.5,1.4,2.5,1.8
		C388.4,381.8,389.4,382,390.5,382z"/>
	<path class="st1" d="M414.5,385.9h-5.3V361h4.2l1.1,2.1c0.7-0.7,1.4-1.4,2.4-1.9c0.9-0.5,2-0.8,3.4-0.8c0.5,0,1.1,0.1,1.7,0.2
		c0.6,0.1,1.3,0.3,2,0.6c0.7,0.3,1.3,0.7,2,1.2c0.6,0.5,1.2,1.2,1.6,1.9c0.6-1.1,1.6-2,2.8-2.8c1.3-0.8,2.6-1.2,4-1.2
		c1,0,2,0.1,3,0.4c1.1,0.3,2.1,0.8,3,1.6s1.7,1.8,2.3,3.2c0.6,1.3,0.9,3.1,0.9,5.2v15.1h-5v-15.1c0-2.1-0.5-3.6-1.4-4.5
		s-2.2-1.3-3.7-1.3c-1.2,0-2.2,0.5-3.1,1.4c-0.9,0.9-1.3,2.4-1.3,4.4v15.1h-5v-15.1c0-2.1-0.5-3.6-1.4-4.5s-2.2-1.3-3.7-1.3
		c-1.1,0-2.1,0.4-2.9,1.2c-0.8,0.8-1.3,2-1.5,3.7V385.9z"/>
	<path class="st1" d="M452.6,355.6c-1,0-1.8-0.3-2.4-1c-0.7-0.6-1-1.4-1-2.3c0-0.9,0.3-1.7,1-2.3c0.7-0.6,1.5-0.9,2.4-0.9
		s1.8,0.3,2.4,0.9c0.7,0.6,1,1.4,1,2.3c0,0.9-0.3,1.7-1,2.3C454.4,355.3,453.6,355.6,452.6,355.6z M455.4,385.9H450V361h5.3
		L455.4,385.9z"/>
	<path class="st1" d="M466.6,385.9h-5.3V361h4.2l1.1,2.2c0.9-0.8,1.9-1.5,3.2-2c1.2-0.5,2.6-0.8,4.1-0.8c1,0,2,0.1,3.2,0.4
		c1.2,0.3,2.3,0.8,3.4,1.6c1,0.8,1.9,1.8,2.6,3.2s1.1,3.1,1.1,5.2v15.1h-5.1v-15.1c0-1.1-0.2-2-0.5-2.7c-0.3-0.7-0.8-1.3-1.4-1.8
		c-0.6-0.4-1.2-0.8-1.9-1c-0.7-0.2-1.5-0.3-2.2-0.3c-0.6,0-1.3,0.1-2,0.3c-0.8,0.2-1.5,0.5-2.1,1c-0.7,0.5-1.2,1.1-1.7,1.8
		c-0.5,0.7-0.7,1.6-0.7,2.6V385.9z"/>
	<path class="st1" d="M502.7,384.6c-1.8,0-3.5-0.3-5.1-1c-1.5-0.6-2.9-1.5-4-2.6c-1.1-1.1-2-2.4-2.7-3.9c-0.6-1.5-1-3-1-4.7
		c0-1.7,0.3-3.2,1-4.7c0.6-1.5,1.5-2.7,2.7-3.8c1.1-1.1,2.5-1.9,4-2.6c1.5-0.6,3.2-0.9,5.1-0.9c1.8,0,3.4,0.3,4.8,0.8
		c1.4,0.5,2.6,1.3,3.6,2.2l1.1-2.4h4.2c0,0.1,0,0.2,0,0.4c0,0.2,0,0.5,0,0.9s0,1.1,0,1.9c0,0.8,0,2,0,3.4s0,3.3,0,5.5
		c0,2.2,0,4.8,0,7.9c0,1,0,2.1-0.1,3c-0.1,1-0.2,1.9-0.5,2.9c-0.2,0.9-0.6,1.8-1,2.6c-0.5,0.8-1.1,1.7-1.8,2.5
		c-1.5,1.5-3.1,2.4-5,2.9c-1.9,0.5-3.8,0.8-5.9,0.8c-1.8,0-3.4-0.2-5-0.6c-1.6-0.4-3-1-4.2-1.6v-5.6c0.7,1,1.9,1.8,3.4,2.4
		c1.6,0.6,3.3,0.9,5.3,0.9c1.3,0,2.6-0.2,3.7-0.5c1.1-0.3,2.1-0.8,3-1.5c0.8-0.7,1.5-1.6,2-2.6c0.5-1.1,0.7-2.4,0.7-3.9v-1
		c-0.4,0.4-1,0.7-1.6,1.1c-0.6,0.3-1.3,0.6-2.1,0.9c-0.8,0.3-1.5,0.5-2.3,0.6C504.2,384.6,503.5,384.6,502.7,384.6z M503.2,365
		c-1.1,0-2.1,0.2-3,0.6c-1,0.4-1.8,0.9-2.5,1.6c-0.7,0.7-1.3,1.5-1.7,2.4c-0.4,0.9-0.6,1.9-0.6,2.9c0,1,0.2,2,0.6,2.9
		c0.4,0.9,1,1.7,1.7,2.4c0.7,0.7,1.6,1.2,2.5,1.6c1,0.4,2,0.6,3,0.6s2.1-0.2,3-0.5c1-0.3,1.8-0.8,2.5-1.4s1.3-1.4,1.7-2.3
		c0.4-0.9,0.6-2,0.6-3.3c0-1.3-0.2-2.5-0.6-3.5c-0.4-1-1-1.7-1.7-2.3c-0.7-0.6-1.5-1-2.5-1.3C505.3,365.1,504.3,365,503.2,365z"/>
	<path class="st1" d="M534.8,386.5c-1.8,0-3.6-0.3-5.1-1c-1.6-0.7-3-1.6-4.2-2.8c-1.2-1.2-2.1-2.6-2.8-4.2c-0.7-1.6-1-3.3-1-5.1
		c0-1.8,0.3-3.5,1-5.1c0.7-1.6,1.6-3,2.8-4.2c1.2-1.2,2.6-2.1,4.2-2.8c1.6-0.7,3.3-1,5.1-1c1.8,0,3.5,0.3,5.1,1
		c1.6,0.7,3,1.6,4.2,2.8c1.2,1.2,2.1,2.6,2.8,4.2s1,3.3,1,5.1c0,1.8-0.3,3.5-1,5.1c-0.7,1.6-1.6,3-2.8,4.2c-1.2,1.2-2.6,2.1-4.2,2.8
		C538.3,386.2,536.6,386.5,534.8,386.5z M534.8,364.9c-1.1,0-2.1,0.2-3,0.7c-1,0.5-1.8,1.1-2.5,1.8c-0.7,0.8-1.3,1.7-1.7,2.7
		c-0.4,1-0.6,2.2-0.6,3.3c0,1.2,0.2,2.3,0.6,3.3c0.4,1,1,2,1.7,2.7c0.7,0.8,1.6,1.4,2.5,1.8c1,0.5,2,0.7,3,0.7s2.1-0.2,3-0.7
		c1-0.5,1.8-1.1,2.5-1.8c0.7-0.8,1.3-1.7,1.7-2.7c0.4-1,0.6-2.2,0.6-3.3c0-1.2-0.2-2.3-0.6-3.3c-0.4-1-1-1.9-1.7-2.7
		c-0.7-0.8-1.5-1.4-2.5-1.8C536.9,365.1,535.9,364.9,534.8,364.9z"/>
</g>
<g>
	<path class="st1" d="M337.3,431.6c1.1,0,2.2-0.2,3.2-0.7c1-0.5,1.8-1.1,2.5-1.9l2.2,1.8c-1,1-2.1,1.8-3.5,2.4
		c-1.4,0.6-2.8,0.9-4.4,0.9c-1.4,0-2.8-0.2-4-0.7c-1.3-0.5-2.4-1.2-3.3-2c-0.9-0.8-1.7-1.8-2.2-2.9c-0.5-1.1-0.8-2.3-0.8-3.6
		c0-1.3,0.3-2.5,0.8-3.6c0.5-1.1,1.3-2.1,2.2-2.9c0.9-0.8,2-1.5,3.3-2c1.3-0.5,2.6-0.7,4-0.7c1.3,0,2.6,0.2,3.8,0.7s2.2,1,3.2,1.8
		l-1.8,2c-0.7-0.6-1.4-1.1-2.3-1.5c-0.9-0.4-1.8-0.6-2.8-0.6c-1,0-2,0.2-2.8,0.5c-0.9,0.4-1.6,0.9-2.3,1.5c-0.7,0.6-1.2,1.3-1.6,2.2
		c-0.4,0.8-0.6,1.7-0.6,2.6c0,0.9,0.2,1.8,0.6,2.6c0.4,0.8,0.9,1.5,1.6,2.2c0.7,0.6,1.4,1.1,2.3,1.5
		C335.4,431.4,336.3,431.6,337.3,431.6z"/>
	<path class="st1" d="M354,434.1c-1,0-1.9-0.2-2.8-0.5c-0.9-0.3-1.6-0.8-2.3-1.4c-0.6-0.6-1.2-1.3-1.5-2c-0.4-0.8-0.6-1.6-0.6-2.5
		s0.2-1.7,0.6-2.5c0.4-0.8,0.9-1.5,1.5-2c0.6-0.6,1.4-1,2.3-1.4c0.9-0.3,1.8-0.5,2.8-0.5c1,0,1.9,0.2,2.8,0.5
		c0.9,0.3,1.6,0.8,2.3,1.4c0.6,0.6,1.2,1.3,1.5,2c0.4,0.8,0.6,1.6,0.6,2.5s-0.2,1.7-0.6,2.5s-0.9,1.5-1.5,2c-0.6,0.6-1.4,1-2.3,1.4
		C355.9,434,355,434.1,354,434.1z M354,423.6c-0.6,0-1.1,0.1-1.6,0.3c-0.5,0.2-1,0.5-1.4,0.9c-0.4,0.4-0.7,0.8-0.9,1.3
		c-0.2,0.5-0.3,1.1-0.3,1.6c0,0.6,0.1,1.1,0.3,1.6c0.2,0.5,0.5,1,0.9,1.3c0.4,0.4,0.8,0.7,1.4,0.9c0.5,0.2,1.1,0.3,1.6,0.3
		c0.6,0,1.1-0.1,1.6-0.3c0.5-0.2,1-0.5,1.3-0.9c0.4-0.4,0.7-0.8,0.9-1.3c0.2-0.5,0.3-1.1,0.3-1.6c0-0.6-0.1-1.1-0.3-1.6
		c-0.2-0.5-0.5-1-0.9-1.3c-0.4-0.4-0.8-0.7-1.3-0.9C355.1,423.7,354.6,423.6,354,423.6z"/>
	<path class="st1" d="M370,434.1c-1,0-1.9-0.2-2.8-0.5c-0.9-0.3-1.6-0.8-2.2-1.4c-0.6-0.6-1.1-1.3-1.5-2c-0.4-0.8-0.6-1.6-0.6-2.5
		s0.2-1.7,0.6-2.5c0.4-0.8,0.9-1.5,1.5-2c0.6-0.6,1.4-1,2.2-1.4c0.9-0.3,1.8-0.5,2.8-0.5c1.1,0,2.2,0.2,3.2,0.7c1,0.4,1.8,1,2.4,1.8
		l-2,1.3c-0.4-0.5-0.9-0.9-1.5-1.2c-0.6-0.3-1.3-0.4-1.9-0.4c-0.6,0-1.2,0.1-1.7,0.3c-0.5,0.2-1,0.5-1.4,0.9
		c-0.4,0.4-0.7,0.8-0.9,1.3c-0.2,0.5-0.3,1-0.3,1.6c0,0.6,0.1,1.1,0.3,1.6c0.2,0.5,0.5,1,0.9,1.3c0.4,0.4,0.9,0.7,1.4,0.9
		c0.5,0.2,1.1,0.3,1.7,0.3c0.8,0,1.5-0.2,2.1-0.5c0.6-0.4,1.1-0.8,1.5-1.4l2,1.5c-0.6,0.8-1.5,1.5-2.5,1.9
		C372.2,433.9,371.1,434.1,370,434.1z"/>
	<path class="st1" d="M381.6,433.8h-2.9v-18.5h2.9v11.4l5.6-5h3.6l-5.5,4.9l5.9,7.3h-3.3l-4.5-5.6l-1.8,1.6V433.8z"/>
	<path class="st1" d="M398.7,434.2c-0.8,0.1-1.5,0-2.1-0.3c-0.6-0.2-1.1-0.7-1.5-1.3c-0.4-0.6-0.6-1.5-0.6-2.6v-6.2h-2.1v-1.7
		l2.1-0.5v-3.2h2.9v3.2h3.9v2.2h-3.9v6.6c0,0.4,0.1,0.7,0.2,1s0.3,0.4,0.5,0.5c0.3,0.1,0.6,0.2,1,0.2s0.9,0,1.5-0.1l0.6,1.8
		C400.3,434,399.5,434.1,398.7,434.2z"/>
	<path class="st1" d="M417,421.7v12.2h-2.4l-0.4-1.4c-0.5,0.6-1.1,1-1.9,1.3c-0.8,0.3-1.6,0.4-2.3,0.4c-1,0-1.9-0.2-2.8-0.5
		c-0.9-0.3-1.6-0.8-2.3-1.4c-0.6-0.6-1.2-1.3-1.5-2c-0.4-0.8-0.6-1.6-0.6-2.5s0.2-1.7,0.6-2.5c0.4-0.8,0.9-1.5,1.5-2
		c0.6-0.6,1.4-1,2.3-1.4c0.9-0.3,1.8-0.5,2.8-0.5c0.8,0,1.6,0.1,2.3,0.4c0.7,0.3,1.4,0.7,2,1.2l0.4-1.3H417z M409.9,431.9
		c0.6,0,1.1-0.1,1.6-0.3c0.5-0.2,1-0.5,1.3-0.9c0.4-0.4,0.7-0.8,0.9-1.3c0.2-0.5,0.3-1,0.3-1.6c0-0.6-0.1-1.1-0.3-1.6
		c-0.2-0.5-0.5-1-0.9-1.3c-0.4-0.4-0.8-0.7-1.3-0.9c-0.5-0.2-1.1-0.3-1.6-0.3c-0.6,0-1.1,0.1-1.6,0.3c-0.5,0.2-1,0.5-1.3,0.9
		c-0.4,0.4-0.7,0.8-0.9,1.3c-0.2,0.5-0.3,1-0.3,1.6c0,0.6,0.1,1.1,0.3,1.6c0.2,0.5,0.5,1,0.9,1.3c0.4,0.4,0.8,0.7,1.3,0.9
		C408.8,431.8,409.3,431.9,409.9,431.9z"/>
	<path class="st1" d="M421.5,419c-0.5,0-1-0.2-1.3-0.5c-0.4-0.3-0.5-0.7-0.5-1.1c0-0.4,0.2-0.8,0.5-1.1c0.4-0.3,0.8-0.5,1.3-0.5
		c0.5,0,0.9,0.2,1.3,0.5c0.4,0.3,0.5,0.7,0.5,1.1c0,0.4-0.2,0.8-0.5,1.1C422.5,418.9,422,419,421.5,419z M423,433.8h-2.9v-12.2h2.9
		L423,433.8z"/>
	<path class="st1" d="M429.2,415.3v18.5h-2.9v-18.5H429.2z"/>
	<path class="st1" d="M455.2,428.8c0,0.7-0.2,1.3-0.5,2c-0.3,0.6-0.7,1.1-1.3,1.6c-0.5,0.5-1.2,0.8-1.9,1.1
		c-0.7,0.3-1.5,0.4-2.3,0.4h-9v-18h8.2c0.7,0,1.4,0.1,2,0.4c0.6,0.2,1.2,0.6,1.7,1c0.5,0.4,0.9,0.9,1.1,1.4c0.3,0.5,0.4,1.1,0.4,1.8
		c0,0.8-0.1,1.5-0.4,2.1c-0.3,0.6-0.8,1.2-1.5,1.6c1.1,0.4,2,1,2.5,1.8C454.9,426.7,455.2,427.7,455.2,428.8z M443.4,423.1
		c0.8,0,1.5,0,2.2,0h3c0.7,0,1.4-0.2,1.9-0.7c0.5-0.5,0.8-1.1,0.8-1.7c0-0.7-0.3-1.3-0.8-1.7c-0.5-0.5-1.1-0.7-1.9-0.7h-5.1V423.1z
		 M443.4,431.3c0.1,0,0.4,0,0.9,0h5c0.4,0,0.8-0.1,1.2-0.2c0.4-0.2,0.7-0.4,1-0.6c0.3-0.3,0.5-0.6,0.7-0.9c0.2-0.4,0.2-0.7,0.2-1.1
		c0-0.4-0.1-0.8-0.2-1.1c-0.2-0.3-0.4-0.6-0.7-0.9c-0.3-0.3-0.6-0.5-1-0.6c-0.4-0.2-0.8-0.2-1.2-0.2h-5.9V431.3z"/>
	<path class="st1" d="M471.6,421.7v12.2h-2.4l-0.4-1.4c-0.5,0.6-1.1,1-1.9,1.3c-0.8,0.3-1.6,0.4-2.3,0.4c-1,0-1.9-0.2-2.8-0.5
		c-0.9-0.3-1.6-0.8-2.3-1.4c-0.6-0.6-1.2-1.3-1.5-2c-0.4-0.8-0.6-1.6-0.6-2.5s0.2-1.7,0.6-2.5c0.4-0.8,0.9-1.5,1.5-2
		c0.6-0.6,1.4-1,2.3-1.4c0.9-0.3,1.8-0.5,2.8-0.5c0.8,0,1.6,0.1,2.3,0.4c0.7,0.3,1.4,0.7,2,1.2l0.4-1.3H471.6z M464.4,431.9
		c0.6,0,1.1-0.1,1.6-0.3c0.5-0.2,1-0.5,1.3-0.9c0.4-0.4,0.7-0.8,0.9-1.3c0.2-0.5,0.3-1,0.3-1.6c0-0.6-0.1-1.1-0.3-1.6
		c-0.2-0.5-0.5-1-0.9-1.3c-0.4-0.4-0.8-0.7-1.3-0.9c-0.5-0.2-1.1-0.3-1.6-0.3c-0.6,0-1.1,0.1-1.6,0.3s-1,0.5-1.3,0.9
		c-0.4,0.4-0.7,0.8-0.9,1.3c-0.2,0.5-0.3,1-0.3,1.6c0,0.6,0.1,1.1,0.3,1.6c0.2,0.5,0.5,1,0.9,1.3c0.4,0.4,0.8,0.7,1.3,0.9
		S463.9,431.9,464.4,431.9z"/>
	<path class="st1" d="M482.7,423.8c-0.1,0-0.3-0.1-0.4-0.1c-0.2,0-0.3-0.1-0.5-0.1c-0.6,0-1.1,0.1-1.6,0.2c-0.5,0.2-0.9,0.4-1.3,0.6
		c-0.4,0.3-0.6,0.6-0.8,1c-0.2,0.4-0.3,0.7-0.3,1.2l0,7.2h-2.9v-12.2h2.3l0.6,1.3c0.4-0.5,0.9-0.9,1.6-1.2c0.6-0.3,1.5-0.4,2.4-0.4
		c0.6,0,1.4,0.1,2.2,0.2l-0.7,2.3C482.9,423.9,482.8,423.8,482.7,423.8z"/>
</g>
</svg>
