<?xml version="1.0" encoding="utf-8"?>
<!-- Generator: Adobe Illustrator 21.0.0, SVG Export Plug-In . SVG Version: 6.00 Build 0)  -->
<svg version="1.1" id="Layer_1" xmlns="http://www.w3.org/2000/svg" xmlns:xlink="http://www.w3.org/1999/xlink" x="0px" y="0px"
	 viewBox="0 0 792 612" style="enable-background:new 0 0 792 612;" xml:space="preserve">
<style type="text/css">
	.st0{fill:#8DC63F;}
	.st1{fill:#FFFFFF;}
	.st2{fill:#80B241;}
</style>
<path class="st0" d="M562.5,135.9c0,0,21.8,12.2,25,31.2c3.2,19-13.4,37.7-13.4,37.7s-21.8-12.2-25-31.2S562.5,135.9,562.5,135.9z"
	/>
<path class="st0" d="M506.7,201c0,0,18.3-15.6,35.3-11.5c17,4,26.4,26.2,26.4,26.2s-18.3,15.6-35.3,11.5
	C516,223.1,506.7,201,506.7,201z"/>
<path class="st0" d="M647.3,167.1c0,0-2,26.9-19.2,38.9c-17.2,12-43.2,4.4-43.2,4.4s2-26.9,19.2-38.9
	C621.4,159.6,647.3,167.1,647.3,167.1z"/>
<path class="st0" d="M596.7,219.9c0,0,10.2-6.4,21.2-4.5s18.5,11.3,18.5,11.3s-10.2,6.4-21.2,4.5S596.7,219.9,596.7,219.9z"/>
<path class="st0" d="M573.8,223.3c0,0,1.4,12.1-5.3,19.5s-18.9,7.2-18.9,7.2s-1.4-12.1,5.3-19.5
	C561.7,223.1,573.8,223.3,573.8,223.3z"/>
<path class="st0" d="M596.4,279.5c0,0-17.7-9.8-20.3-25.2c-1.6-9.7,3.1-19.2,6.8-25c0.4-0.6,0.8-1.2,1.1-1.7
	c1.7-2.4,2.9-3.8,2.9-3.8s2.1,1.1,4.9,3.3c0,0,0,0,0.1,0.1c0.6,0.5,1.3,1,2,1.6c0.1,0.1,0.1,0.1,0.1,0.1
	c5.2,4.4,11.7,11.4,13.2,20.2C609.9,264.4,596.4,279.5,596.4,279.5z"/>
<path class="st0" d="M583,229.4c0.4-0.7,0.7-1.2,1.1-1.7C583.8,228.2,583.4,228.8,583,229.4L583,229.4z"/>
<path class="st0" d="M594,228.8c-0.7-0.6-1.4-1.1-2-1.6C593,227.9,593.8,228.6,594,228.8z"/>
<rect x="581" y="223.5" transform="matrix(0.9783 -0.2071 0.2071 0.9783 -34.058 126.5912)" class="st1" width="12.9" height="5"/>
<path class="st0" d="M582.5,230c0,0,3.6-7.9,10.2-2.4L582.5,230z"/>
<g>
	<path d="M246,265.2h15.3v23c0,12.4-7.7,20.1-16.5,20.1c-7.7,0-11.8-3.5-11.8-3.5l4.1-12.4c0,0,1.8,1.2,4.1,1.2
		c2.7,0,4.7-2.1,4.7-5.3V265.2z"/>
	<path d="M290.2,307.4c-13.6,0-23-9.4-23-21.5s9.4-21.5,23-21.5s23,9.4,23,21.5S303.8,307.4,290.2,307.4z M290.2,278.8
		c-3.5,0-6.5,3-6.5,7.1s3,7.1,6.5,7.1c3.5,0,6.5-3,6.5-7.1S293.8,278.8,290.2,278.8z"/>
	<path d="M334.5,279.4h9.4v-14.2h15.3v41.3h-15.3v-14.2h-9.4v14.2h-15.3v-41.3h15.3V279.4z"/>
	<path d="M381.7,288.2v18.3h-15.3v-41.3h17.1l10,18.3v-18.3h15.3v41.3h-17.1L381.7,288.2z"/>
	<path d="M431.3,288.2v18.3h-15.3v-41.3H433l10,18.3v-18.3h15.3v41.3h-17.1L431.3,288.2z"/>
	<path d="M482.6,277l4.1-11.8h17.7l-14.2,25.4v15.9h-15.3v-15.9l-14.2-25.4h17.7L482.6,277z"/>
	<path d="M520.9,265.2l-7.1,17.7h-9.4l4.1-17.7H520.9z"/>
	<path d="M540.7,293.5c0-3-15.9-3-15.9-15.9c0-6.8,6.5-13.3,16.8-13.3c10.6,0,15.9,6.5,15.9,6.5l-5.6,8.9c0,0-3.5-3.2-7.7-3.2
		c-1.5,0-2.4,0.9-2.4,1.8c0,3,15.9,3,15.9,15.9c0,6.8-6.5,13.3-16.8,13.3c-13,0-18.3-7.1-18.3-7.1l5.6-8.9c0,0,4.1,3.8,10,3.8
		C539.8,295.3,540.7,294.4,540.7,293.5z"/>
	<path d="M289.5,363.8v-7.1h14.2v14.5c0,0-5.3,7.1-17.1,7.1c-12.4,0-21.8-9.4-21.8-21.5c0-12.1,9.4-21.5,21.8-21.5
		c11.2,0,16.5,6.5,16.5,6.5l-7.1,11.2c0,0-3.5-3.2-7.7-3.2s-7.1,3-7.1,7.1c0,4.1,3,7.1,7.1,7.1C288.9,363.8,289.5,363.8,289.5,363.8
		z"/>
	<path d="M350.9,377.3h-17.1l-1.2-5.9h-7.7l-1.2,5.9h-17.1l12.1-41.3h20.1C338.8,336.3,350.9,377.3,350.9,377.3z M330.8,362
		l-2.1-10.6l-2.1,10.6H330.8z"/>
	<path d="M378,377.3l-7.1-13.6h-0.6v13.6H355V336c0,0,8.3-0.6,17.1-0.6c13,0,18.9,5.9,18.9,14.5s-5.3,11.5-5.3,11.5l10,15.9H378z
		 M372.1,353.1c2.1,0,3.5-1.5,3.5-3.2c0-1.8-1.5-3.2-3.5-3.2h-1.8v6.5H372.1z"/>
	<path d="M415.8,377.9c-9.4,0-17.7-0.6-17.7-0.6V336c0,0,8.3-0.6,17.7-0.6c15.7,0,23.6,8.6,23.6,21.2
		C439.4,369.4,431.5,377.9,415.8,377.9z M415.8,364.9c4.4,0,7.1-2.7,7.1-8.3s-2.7-8.3-7.1-8.3h-2.4v16.5H415.8z"/>
	<path d="M460.6,365.5h17.7v11.8h-33V336h31.9v11.8h-16.5v3h15.3v11.8h-15.3V365.5z"/>
	<path d="M499,359v18.3h-15.3V336h17.1l10,18.3V336h15.3v41.3H509L499,359z"/>
</g>
<g>
	<path class="st2" d="M272.5,430c-1.6-0.8-2.8-2-3.7-3.4s-1.4-3.1-1.4-4.9c0-1.8,0.5-3.5,1.4-4.9c0.9-1.5,2.2-2.6,3.8-3.4
		c1.6-0.8,3.4-1.2,5.4-1.2c1.5,0,2.9,0.2,4.1,0.7c1.3,0.5,2.3,1.2,3.2,2.1l-1.3,1.3c-1.6-1.5-3.5-2.2-5.9-2.2c-1.6,0-3,0.3-4.3,1
		c-1.3,0.7-2.3,1.6-3,2.8c-0.7,1.2-1.1,2.5-1.1,4c0,1.5,0.4,2.8,1.1,4c0.7,1.2,1.8,2.1,3,2.8c1.3,0.7,2.7,1,4.3,1
		c2.4,0,4.4-0.8,5.9-2.3l1.3,1.3c-0.9,0.9-2,1.6-3.2,2.1c-1.3,0.5-2.6,0.7-4.1,0.7C275.8,431.2,274.1,430.8,272.5,430z"/>
	<path class="st2" d="M301.8,426h-11.2l-2.4,5H286l9.2-18.9h2.1l9.2,18.9h-2.2L301.8,426z M301,424.4l-4.8-10.2l-4.8,10.2H301z"/>
	<path class="st2" d="M326.5,412.2v18.9h-1.7l-12.9-15.3v15.3h-2.1v-18.9h1.7l12.9,15.3v-15.3H326.5z"/>
	<path class="st2" d="M349.7,412.2v18.9H348l-12.9-15.3v15.3H333v-18.9h1.7l12.9,15.3v-15.3H349.7z"/>
	<path class="st2" d="M368.8,426h-11.2l-2.4,5H353l9.2-18.9h2.1l9.2,18.9h-2.2L368.8,426z M368,424.4l-4.8-10.2l-4.8,10.2H368z"/>
	<path class="st2" d="M392.4,422.9c0.7,0.8,1.1,1.8,1.1,3.1c0,1.6-0.6,2.9-1.9,3.7c-1.3,0.9-3.1,1.3-5.6,1.3h-9.2v-18.9h8.6
		c2.2,0,4,0.4,5.2,1.3s1.8,2,1.8,3.6c0,1-0.3,1.9-0.8,2.7c-0.5,0.7-1.3,1.3-2.2,1.6C390.7,421.6,391.7,422.1,392.4,422.9z
		 M378.9,413.8v6.9h6.4c1.6,0,2.9-0.3,3.7-0.9s1.3-1.4,1.3-2.6c0-1.1-0.4-2-1.3-2.6c-0.9-0.6-2.1-0.9-3.7-0.9H378.9z M390,428.6
		c0.9-0.6,1.4-1.5,1.4-2.7c0-2.4-1.8-3.5-5.4-3.5h-7.1v7.1h7.1C387.7,429.4,389.1,429.1,390,428.6z"/>
	<path class="st2" d="M398.3,412.2h2.1v18.9h-2.1V412.2z"/>
	<path class="st2" d="M408.2,430.6c-1.4-0.5-2.4-1-3.2-1.8l0.8-1.5c0.7,0.7,1.7,1.2,2.9,1.7c1.2,0.4,2.4,0.6,3.7,0.6
		c1.8,0,3.1-0.3,4-0.9c0.9-0.6,1.3-1.4,1.3-2.4c0-0.8-0.2-1.4-0.7-1.8c-0.5-0.4-1.1-0.8-1.8-1c-0.7-0.2-1.7-0.5-2.9-0.8
		c-1.5-0.4-2.7-0.7-3.6-1c-0.9-0.3-1.7-0.8-2.3-1.5c-0.6-0.7-1-1.6-1-2.8c0-1,0.3-1.8,0.8-2.6s1.4-1.4,2.5-1.9
		c1.1-0.5,2.5-0.7,4.1-0.7c1.1,0,2.3,0.1,3.4,0.4c1.1,0.3,2,0.7,2.8,1.2l-0.7,1.6c-0.8-0.5-1.7-0.9-2.7-1.2c-1-0.3-1.9-0.4-2.8-0.4
		c-1.8,0-3.1,0.3-4,1c-0.9,0.6-1.3,1.5-1.3,2.5c0,0.8,0.2,1.4,0.7,1.8c0.5,0.5,1.1,0.8,1.8,1.1s1.7,0.5,3,0.8c1.5,0.3,2.7,0.7,3.6,1
		s1.7,0.8,2.3,1.5s0.9,1.6,0.9,2.7c0,1-0.3,1.8-0.8,2.6s-1.4,1.4-2.5,1.9c-1.1,0.5-2.5,0.7-4.2,0.7C411,431.2,409.6,431,408.2,430.6
		z"/>
	<path class="st2" d="M433.3,430.6c-1.4-0.5-2.4-1-3.2-1.8l0.8-1.5c0.7,0.7,1.7,1.2,2.9,1.7c1.2,0.4,2.4,0.6,3.7,0.6
		c1.8,0,3.1-0.3,4-0.9c0.9-0.6,1.3-1.4,1.3-2.4c0-0.8-0.2-1.4-0.7-1.8c-0.5-0.4-1.1-0.8-1.8-1c-0.7-0.2-1.7-0.5-2.9-0.8
		c-1.5-0.4-2.7-0.7-3.6-1c-0.9-0.3-1.7-0.8-2.3-1.5c-0.6-0.7-1-1.6-1-2.8c0-1,0.3-1.8,0.8-2.6s1.4-1.4,2.5-1.9
		c1.1-0.5,2.5-0.7,4.1-0.7c1.1,0,2.3,0.1,3.4,0.4c1.1,0.3,2,0.7,2.8,1.2l-0.7,1.6c-0.8-0.5-1.7-0.9-2.7-1.2c-1-0.3-1.9-0.4-2.8-0.4
		c-1.8,0-3.1,0.3-4,1c-0.9,0.6-1.3,1.5-1.3,2.5c0,0.8,0.2,1.4,0.7,1.8c0.5,0.5,1.1,0.8,1.8,1.1s1.7,0.5,3,0.8c1.5,0.3,2.7,0.7,3.6,1
		s1.7,0.8,2.3,1.5s0.9,1.6,0.9,2.7c0,1-0.3,1.8-0.8,2.6s-1.4,1.4-2.5,1.9c-1.1,0.5-2.5,0.7-4.2,0.7
		C436.1,431.2,434.7,431,433.3,430.6z"/>
	<path class="st2" d="M453.3,413.9h-7v-1.7h16.2v1.7h-7v17.2h-2.1V413.9z"/>
	<path class="st2" d="M468.9,430c-1.6-0.8-2.9-2-3.8-3.4s-1.4-3.1-1.4-4.9c0-1.8,0.5-3.5,1.4-4.9s2.2-2.6,3.8-3.4
		c1.6-0.8,3.4-1.3,5.4-1.3s3.8,0.4,5.4,1.2c1.6,0.8,2.8,2,3.8,3.4c0.9,1.5,1.4,3.1,1.4,4.9c0,1.8-0.5,3.5-1.4,4.9s-2.2,2.6-3.8,3.4
		c-1.6,0.8-3.4,1.2-5.4,1.2S470.5,430.8,468.9,430z M478.6,428.4c1.3-0.7,2.3-1.6,3-2.8c0.7-1.2,1.1-2.5,1.1-4c0-1.5-0.4-2.8-1.1-4
		c-0.7-1.2-1.7-2.1-3-2.8s-2.7-1-4.3-1c-1.6,0-3,0.3-4.3,1s-2.3,1.6-3,2.8c-0.7,1.2-1.1,2.5-1.1,4c0,1.5,0.4,2.8,1.1,4
		c0.7,1.2,1.7,2.1,3,2.8c1.3,0.7,2.7,1,4.3,1C475.9,429.4,477.3,429.1,478.6,428.4z"/>
	<path class="st2" d="M503.2,431.1l-4.6-6.1c-0.5,0.1-1,0.1-1.6,0.1h-5.4v6h-2.1v-18.9h7.5c2.6,0,4.6,0.6,6,1.7
		c1.4,1.2,2.2,2.7,2.2,4.8c0,1.5-0.4,2.7-1.2,3.7c-0.8,1-1.9,1.8-3.4,2.2l4.9,6.5H503.2z M501.5,422.1c1-0.8,1.6-2,1.6-3.5
		c0-1.5-0.5-2.7-1.6-3.5c-1-0.8-2.6-1.2-4.6-1.2h-5.3v9.5h5.3C499,423.4,500.5,423,501.5,422.1z"/>
	<path class="st2" d="M524.4,429.3v1.7h-14.2v-18.9H524v1.7h-11.6v6.7h10.4v1.7h-10.4v7H524.4z"/>
</g>
</svg>
