<?xml version="1.0" encoding="utf-8"?>
<!-- Generator: Adobe Illustrator 21.0.0, SVG Export Plug-In . SVG Version: 6.00 Build 0)  -->
<svg version="1.1" id="Layer_1" xmlns="http://www.w3.org/2000/svg" xmlns:xlink="http://www.w3.org/1999/xlink" x="0px" y="0px"
	 viewBox="0 0 792 612" style="enable-background:new 0 0 792 612;" xml:space="preserve">
<style type="text/css">
	.st0{fill:#345236;}
	.st1{fill:#FFFFFF;}
	.st2{fill:#D2DF65;stroke:#000000;stroke-miterlimit:10;}
	.st3{fill:#DEE22A;stroke:#000000;stroke-miterlimit:10;}
</style>
<rect class="st0" width="792" height="612"/>
<g>
	<path class="st1" d="M137.2,260.3c0-4.7-0.7-5.5-5-5.7v-1.9h15.2v1.9c-4.3,0.1-5,1-5,6v30.7c0,8.4-3.7,12.9-10.4,12.9
		c-4.6,0-7.6-2-7.6-4.9c0-1.7,1-2.6,2.6-2.6c1.3,0,1.9,0.5,2.9,2.3c1.2,2.2,1.8,2.8,3.1,2.8c2.7,0,4.3-3.1,4.3-8.5V260.3z"/>
	<path class="st1" d="M193.6,272.2c0,10.9-9.2,19.5-20.8,19.5s-20.8-8.6-20.8-19.5c0-11.3,9.1-20.1,20.8-20.1
		S193.6,260.9,193.6,272.2z M187.1,272.4c0-10.7-5.5-17.5-14.3-17.5c-8.8,0-14.3,6.8-14.3,17.5c0,10.2,5.5,16.6,14.3,16.6
		C181.5,288.9,187.1,282.5,187.1,272.4z"/>
	<path class="st1" d="M234.3,283.2c0,5.1,0.8,5.9,5.5,6.1v1.9h-16.2v-1.9c4.7-0.2,5.5-1,5.5-5.7v-10.9h-20.3v10.5
		c0,5.1,0.8,5.9,5.5,6.1v1.9H198v-1.9c4.7-0.2,5.5-1,5.5-5.7v-23.3c0-4.7-0.7-5.5-5-5.7v-1.9h15.2v1.9c-4.3,0.1-5,1-5,6v9.6H229v-10
		c0-4.7-0.7-5.5-5-5.7v-1.9h15.2v1.9c-4.3,0.1-5,1-5,6V283.2z"/>
	<path class="st1" d="M276.7,291.7L253,260.4h-0.2v21.4c0,6.6,0.7,7.4,5,7.6v1.9h-13.5v-1.9c4.7-0.2,5.5-1,5.5-7.2v-20.3
		c0-5.7-0.7-7-5-7.2v-1.9h9.9l21.9,29.2h0.2v-19.7c0-6.6-0.7-7.4-5-7.5v-1.9h13.5v1.9c-4.7,0.1-5.5,1-5.5,7.2v29.9H276.7z"/>
	<path class="st1" d="M321.8,291.7l-23.8-31.3h-0.2v21.4c0,6.6,0.7,7.4,5,7.6v1.9h-13.5v-1.9c4.7-0.2,5.5-1,5.5-7.2v-20.3
		c0-5.7-0.7-7-5-7.2v-1.9h9.9l21.9,29.2h0.2v-19.7c0-6.6-0.7-7.4-5-7.5v-1.9h13.5v1.9c-4.7,0.1-5.5,1-5.5,7.2v29.9H321.8z"/>
	<path class="st1" d="M337.9,258.9c-2-3.5-3.2-4.3-6-4.3v-1.9h15.8v1.9c-3.3,0-4.6,0.4-4.6,1.7c0,0.7,0.4,1.7,1.2,3l7.8,13.3h0.2
		l5.7-9.5c2.1-3.6,3-5.5,3-6.8c0-1.3-0.8-1.7-3.3-1.7v-1.9h11.5v1.9c-2.8,0-4.1,1.3-8.2,8.2l-7.7,13v6c0,6.5,0.7,7.6,5.5,7.6v1.9
		h-16.2v-1.9c4.8,0,5.5-1.1,5.5-7.2V276L337.9,258.9z"/>
	<path class="st1" d="M372.1,261.9c3-2.3,4.3-4.3,4.3-6.8c-0.4,0.3-1,0.4-1.5,0.4c-1.5,0-2.6-1.1-2.6-2.8c0-1.8,1.3-3,3.4-3
		c2.3,0,3.6,1.6,3.6,4.7c0,3.4-1.4,5.5-6,8.9L372.1,261.9z"/>
	<path class="st1" d="M384.5,279.4h1.8c1,6,5.4,9.7,11.4,9.7c4.9,0,8-2.5,8-6.5c0-3.4-2-5.4-8.8-8.3c-8.3-3.7-10.9-6.4-10.9-11.6
		c0-6.2,4.7-10.6,11.2-10.6c2.9,0,5.4,0.9,8,3l1.3-2.3h1.2l0.5,10h-1.8c-1.6-5.5-4.7-8.1-9-8.1c-4,0-6.7,2.2-6.7,5.6
		c0,3.2,2,5,7.7,7.6c9.9,4.5,12.7,7.2,12.7,12.5c0,6.7-5.5,11.4-13.6,11.4c-3.8,0-6.7-1-9.8-3.5l-1.4,2.5h-1.2L384.5,279.4z"/>
	<path class="st1" d="M430.1,291.2v-1.9c5.2-0.2,6-1,6-5.7v-23.3c0-4.7-0.7-5.5-5-5.7v-1.9h15c9,0,14.3,3.4,14.3,9.2
		c0,4.4-2.7,7.1-8.7,8.9v0.2c4.1,0.5,5.9,1,8,2.4c2.9,2,4.5,4.8,4.5,7.9c0,3.5-2.1,6.8-5.6,8.5c-2.3,1.2-4.6,1.5-10.4,1.5H430.1z
		 M444.1,269.7c4.2,0,5.3-0.2,6.9-1.2c2.1-1.3,3-3,3-6.1c0-5.3-2.5-7.4-8-7.4h-3.9c-0.5,0-0.9,0.4-0.9,0.9v13.8H444.1z M457.3,281.3
		c0-3.8-1.5-6.4-4.7-7.9c-2.1-1-3.6-1.2-9-1.2h-2.3v11.2c0,4.1,2,5.7,6.9,5.7C454.3,289,457.3,286.5,457.3,281.3z"/>
	<path class="st1" d="M511,272.2c0,10.9-9.2,19.5-20.8,19.5s-20.8-8.6-20.8-19.5c0-11.3,9.1-20.1,20.8-20.1
		C501.9,252.2,511,260.9,511,272.2z M504.5,272.4c0-10.7-5.5-17.5-14.3-17.5s-14.3,6.8-14.3,17.5c0,10.2,5.5,16.6,14.3,16.6
		C498.9,288.9,504.5,282.5,504.5,272.4z"/>
	<path class="st1" d="M516.8,272.6c0-12.1,7.8-20.4,19.2-20.4c4,0,7.3,1,11.4,3.6l1.1-3.1h1.8l-0.7,11.5h-2.4
		c0-6.5-5.3-9.4-10.7-9.4c-8.1,0-12.9,6.6-12.9,17.5c0,10.7,4.7,16.7,13.1,16.7c6.5,0,10.2-3.3,10.2-7c0-3.9-1.5-5-5-5v-1.9H556v1.9
		c-3.3,0-4.1,1-4.1,4.5v5.6c-2.6,0-3.9,0.3-7.7,2.5c-2.3,1.3-5.5,2.2-9,2.2C523.9,291.7,516.8,284.2,516.8,272.6z"/>
	<path class="st1" d="M570.3,270c7.2,0,9.5-1.7,9.5-5.8h1.8v13.7h-1.8c0-4-2-5.8-9.5-5.9v11.3c0,4.4,2,5.7,8.3,5.7
		c7,0,9.5-1.8,10.9-7.7h1.9l-0.8,9.9h-31.1v-1.9c4.7-0.2,5.5-1,5.5-5.7v-23.3c0-4.7-0.7-5.5-5-5.7v-1.9H589l0.4,8.8h-1.8
		c-0.8-5.3-3.3-6.7-10.2-6.7h-6.4c-0.5,0-0.8,0.3-0.8,0.8V270z"/>
	<path class="st1" d="M599.3,258.9c-2-3.5-3.2-4.3-6-4.3v-1.9h15.8v1.9c-3.3,0-4.6,0.4-4.6,1.7c0,0.7,0.4,1.7,1.2,3l7.8,13.3h0.2
		l5.7-9.5c2.1-3.6,3-5.5,3-6.8c0-1.3-0.8-1.7-3.3-1.7v-1.9h11.5v1.9c-2.8,0-4.1,1.3-8.2,8.2l-7.7,13v6c0,6.5,0.7,7.6,5.5,7.6v1.9
		h-16.2v-1.9c4.8,0,5.5-1.1,5.5-7.2V276L599.3,258.9z"/>
	<path class="st1" d="M632.7,279.4h1.8c1,6,5.4,9.7,11.4,9.7c4.9,0,8-2.5,8-6.5c0-3.4-2-5.4-8.8-8.3c-8.3-3.7-10.9-6.4-10.9-11.6
		c0-6.2,4.7-10.6,11.2-10.6c2.9,0,5.4,0.9,8,3l1.3-2.3h1.2l0.5,10h-1.8c-1.6-5.5-4.7-8.1-9-8.1c-4,0-6.7,2.2-6.7,5.6
		c0,3.2,2,5,7.7,7.6c9.9,4.5,12.7,7.2,12.7,12.5c0,6.7-5.5,11.4-13.6,11.4c-3.8,0-6.7-1-9.8-3.5l-1.4,2.5h-1.2L632.7,279.4z"/>
</g>
<rect x="111.5" y="322.1" class="st1" width="569" height="29.6"/>
<rect x="111.5" y="322.1" class="st2" width="133.9" height="29.6"/>
<rect x="245.4" y="322.1" class="st3" width="7" height="29.6"/>
<g>
	<path class="st1" d="M334.5,401.3h0.9c0.4,2.8,2.5,4.5,5.2,4.5c2.3,0,3.7-1.2,3.7-3c0-1.6-0.9-2.5-4-3.8c-3.8-1.7-5-2.9-5-5.3
		c0-2.9,2.1-4.9,5.2-4.9c1.3,0,2.5,0.4,3.7,1.4l0.6-1h0.5l0.3,4.6h-0.9c-0.7-2.5-2.2-3.7-4.1-3.7c-1.9,0-3.1,1-3.1,2.6
		c0,1.4,0.9,2.3,3.5,3.5c4.6,2,5.8,3.3,5.8,5.7c0,3.1-2.6,5.2-6.3,5.2c-1.7,0-3.1-0.5-4.5-1.6l-0.6,1.1h-0.5L334.5,401.3z"/>
	<path class="st1" d="M353.3,403c0,2.4,0.3,2.8,2.1,2.9v0.8h-6.6v-0.8c1.9-0.1,2.2-0.5,2.2-2.7v-2.9c0-1.8,0-3-0.2-3.4
		c-0.1-0.7-0.6-0.9-2.1-0.9v-0.8l4.5-0.9V403z M352,388.2c0.8,0,1.4,0.6,1.4,1.4s-0.6,1.4-1.4,1.4c-0.8,0-1.4-0.6-1.4-1.4
		S351.2,388.2,352,388.2z"/>
	<path class="st1" d="M360.8,403.1c0,2.5,0.1,2.7,1.9,2.8v0.8h-6v-0.8c1.7-0.1,1.9-0.4,1.9-2.7v-3.1c0-1.8,0-2.9-0.1-3.3
		c-0.2-0.8-0.5-1-1.8-1v-0.7l3.7-0.9l0.3,2.3h0.1c1.1-1.4,2.8-2.3,4.6-2.3c1.4,0,2.6,0.5,3.3,1.3c0.5,0.7,0.7,1.7,0.7,3.7v3.8
		c0,2.5,0.2,2.7,1.9,2.8v0.8h-6v-0.8c1.7-0.1,1.9-0.4,1.9-2.7v-3c0-3.5-0.7-4.7-2.6-4.7c-1.4,0-2.6,0.8-3.2,2
		c-0.3,0.6-0.4,1-0.4,2.5V403.1z"/>
	<path class="st1" d="M383.3,404.8c-1.1,1.3-2.9,2.1-5,2.1c-3.3,0-5.5-2.5-5.5-6.2c0-3.9,2.6-6.4,6.4-6.4c2.4,0,4,0.8,4,2
		c0,0.6-0.4,1-1.1,1c-0.6,0-0.8-0.2-1.4-0.9c-0.6-0.7-1.1-1-2-1c-2.2,0-3.3,1.7-3.3,5c0,3.5,1.3,5.4,3.7,5.4c1.3,0,2.4-0.5,3.5-1.6
		L383.3,404.8z"/>
	<path class="st1" d="M396,404.5c-1.3,1.6-2.9,2.4-4.9,2.4c-3.6,0-6-2.5-6-6.2c0-3.8,2.6-6.5,6.3-6.5c2.9,0,4.7,1.7,4.7,4.7
		c0,0.4-0.1,0.5-0.7,0.5h-7.6c-0.1,0.3-0.1,0.6-0.1,1c0,3.2,1.6,5.3,4.1,5.3c1.3,0,2.3-0.6,3.5-1.8L396,404.5z M392.2,398.3
		c1.2,0,1.4-0.1,1.4-0.6c0-1.4-1-2.3-2.5-2.3c-1.6,0-2.7,1-3.1,3H392.2z"/>
	<path class="st1" d="M408.3,404.4h4.6c1.5,0,2.1-0.5,2.8-2.6h0.9l-0.9,4.9H405v-0.8c7-6.3,8.7-9,8.7-12.3c0-2.4-1.2-3.9-3.1-3.9
		c-1.8,0-3.1,1.3-3.1,3.2c0,1.7,1,2.7,2.5,2.7c-0.1,0.7-0.9,1.2-1.8,1.2c-1.7,0-3-1.4-3-3.4c0-2.7,2.4-4.8,5.7-4.8
		c3.2,0,5.5,2.1,5.5,5c0,3.8-3.6,7.3-8.1,10.6L408.3,404.4z"/>
	<path class="st1" d="M433,397.9c0,5-3.1,8.9-6.8,8.9s-6.8-4-6.8-8.9c0-5.2,3.1-9.2,6.8-9.2S433,392.8,433,397.9z M430,398
		c0-6.2-1.4-8.2-3.8-8.2s-3.8,2-3.8,8.2c0,6,1.4,7.8,3.8,7.8C428.6,405.8,430,404,430,398z"/>
	<path class="st1" d="M440.7,402.9c0,2.4,0.3,2.8,2.4,2.9v0.9h-7v-0.9c2-0.1,2.4-0.5,2.4-2.7v-8.4c0-1.8,0-3-0.1-3.4
		c-0.2-0.7-0.9-0.7-2.4-0.7v-0.9c1.5-0.1,3.3-0.4,4.8-1V402.9z"/>
	<path class="st1" d="M451.6,397.7c-0.5,0.2-1.1,0.4-1.5,0.4c-0.6,0-1.1-0.3-1.1-0.8c0-0.4,0.4-0.6,1-0.6c0.4,0,0.9,0.1,1.4,0.3
		c1.6,0,2.7-1.6,2.7-4c0-2.2-0.9-3.2-2.7-3.2c-1.6,0-2.6,0.8-2.6,2.1c0,1,0.7,1.7,1.7,1.7c-0.1,0.5-0.8,0.9-1.6,0.9
		c-1.3,0-2.3-1.1-2.3-2.4c0-2,2-3.2,4.9-3.2c3.3,0,5.5,1.6,5.5,4.1c0,2.1-1.5,3.8-3.4,4.3v0.1c2.3,0.6,4,2.4,4,4.7
		c0,2.9-2.6,5-6.1,5c-3.2,0-5.5-1.7-5.5-4.1c0-1.7,1.1-2.9,2.6-2.9c0.9,0,1.6,0.4,1.8,1c-1.1,0-2,0.9-2,2.3c0,1.6,1.2,2.6,3,2.6
		c2.1,0,3.2-1.4,3.2-4.1C454.5,399.2,453.4,397.7,451.6,397.7z"/>
</g>
</svg>
