<?xml version="1.0" encoding="utf-8"?>
<!-- Generator: Adobe Illustrator 21.0.0, SVG Export Plug-In . SVG Version: 6.00 Build 0)  -->
<svg version="1.1" id="Layer_1" xmlns="http://www.w3.org/2000/svg" xmlns:xlink="http://www.w3.org/1999/xlink" x="0px" y="0px"
	 viewBox="0 0 792 612" style="enable-background:new 0 0 792 612;" xml:space="preserve">
<style type="text/css">
	.st0{fill:#F37037;}
	.st1{clip-path:url(#SVGID_2_);}
	.st2{clip-path:url(#SVGID_4_);}
	.st3{fill:#FFFFFF;}
	.st4{stroke:#000000;stroke-width:2;stroke-miterlimit:10;}
</style>
<rect class="st0" width="792" height="612"/>
<g id="Artwork_1">
	<g>
		<defs>
			<rect id="SVGID_1_" x="322.4" y="172.3" width="150.6" height="69"/>
		</defs>
		<clipPath id="SVGID_2_">
			<use xlink:href="#SVGID_1_"  style="overflow:visible;"/>
		</clipPath>
		<g class="st1">
			<defs>
				<rect id="SVGID_3_" x="322.4" y="172.3" width="150.6" height="69"/>
			</defs>
			<clipPath id="SVGID_4_">
				<use xlink:href="#SVGID_3_"  style="overflow:visible;"/>
			</clipPath>
			<path class="st2" d="M466.3,206.1l-3.1,0.8l-6.7,1.8c0,0,0,0-0.1,0.1l6.8,1.8l3.4,0.9c0.8-0.7,1.5-1.6,2.1-2.5
				C468,207.9,467.2,206.9,466.3,206.1 M393.4,192.5c0.7,0,1.4,0,2.1,0l0.5,0l-2.7-0.1V192.5z M466.3,206.1l-3.1,0.8l-6.7,1.8
				c0,0,0,0-0.1,0.1l6.8,1.8l3.4,0.9c0.8-0.7,1.5-1.6,2.1-2.5C468,207.9,467.2,206.9,466.3,206.1 M393.1,225.1l2.1-0.1
				C394.5,225,393.8,225,393.1,225.1L393.1,225.1z"/>
			<path class="st2" d="M473,195.3c0-13-11.4-18.9-23.7-18.9c-11,0-18.9,4.3-28.1,9.7c-7.7,4.6-14.3,6.5-21.7,6.5v-0.2l-3.5,0.1
				l-0.5,0c-0.7,0-1.4,0-2.1,0c-4.6,0-8.8-0.8-13.3-2.6c-2.4-1-4.9-2.2-7.5-3.9c-8.9-5.4-16.5-9.7-27.1-9.7
				c-11.8,0-22.9,5.9-22.9,19c0,4.7,1.5,9.6,4,13.3c-2.6,3.8-4.2,8.9-4.1,13.7c0,13.1,11.1,18.9,23,18.9c10.6,0,18.2-4.3,27.1-9.8
				c2.6-1.6,5.2-2.9,7.6-3.9c4.3-1.7,8.5-2.6,13-2.6c0.7,0,1.4,0,2.1,0c0.1,0,0.1,0,0.1,0l4,0.1v-0.2c7.4,0,13.9,1.9,21.6,6.5
				c9.2,5.4,17.1,9.7,28.1,9.7c12.3,0,23.7-5.9,23.7-18.9c0-4.7-1.5-9.6-4-13.3C471.4,205.2,473,200.1,473,195.3 M366.2,224.4
				L366.2,224.4l0.2-0.1C366.3,224.4,366.3,224.4,366.2,224.4"/>
			<path class="st2" d="M338.4,208.8C338.4,208.9,338.4,208.9,338.4,208.8l-7.3,2.1l-2.3,0.6c-0.8-0.8-1.6-1.8-2.3-2.9
				c0.6-0.9,1.3-1.8,2-2.5l2.5,0.7L338.4,208.8z"/>
			<path class="st2" d="M463.2,206.9v3.7l-6.8-1.8c0,0,0,0,0.1-0.1L463.2,206.9z"/>
		</g>
	</g>
</g>
<g>
	<path class="st3" d="M341.4,332.6c-4.1,0-6.1-0.5-6.1-1.4l-1.4-27.6l-8.4,27.9c-0.2,0.6-1.7,0.8-4.7,0.8c-2.9,0-4.5-0.3-4.5-0.8
		l-8.7-28.3l-1,27.5c0,0.7-0.9,1.2-2.6,1.4c-1.7,0.3-3.1,0.4-4.2,0.4c-1.1,0-2.2-0.1-3.3-0.2c-2.2-0.3-3.3-0.9-3.2-1.7l1.6-44.7
		c0-1.1,2.8-1.7,8.4-1.7c1.7,0,3.7,0.1,6.1,0.4c2.4,0.3,3.7,0.7,4,1.5l7.7,21.7l6.7-21.8c0.4-1.2,3.6-1.8,9.5-1.8
		c1.7,0,3.7,0.1,6.1,0.4c2.4,0.3,3.5,0.7,3.5,1.3l2,45.2c0,0.5-0.9,0.9-2.7,1.1C344.4,332.5,342.8,332.6,341.4,332.6z"/>
	<path class="st3" d="M367.9,294.3c0,0.3-2.1,0.5-6.3,0.5c-4.2,0-6.3-0.1-6.3-0.4v-9.9c0-0.5,2.1-0.7,6.3-0.7c4.2,0,6.3,0.1,6.3,0.4
		V294.3z M367.9,332.2c0,0.4-2.1,0.6-6.3,0.6c-4.2,0-6.3-0.2-6.3-0.5v-33.8c0-0.3,2.1-0.5,6.3-0.5c4.2,0,6.3,0.1,6.3,0.4V332.2z"/>
	<path class="st3" d="M388.5,332.2c0,0.3-1.7,0.5-5,0.5c-4.6-0.1-6.9-0.4-6.9-0.8v-22.3h-1.8c-1.2,0-2-1-2.3-3
		c-0.1-0.6-0.1-1.2-0.1-1.8c0-1.4,0.3-2.8,0.8-4.3c0.8-2,2.1-3,3.9-3c1.7,0,3.3,0.4,4.7,1.2c1.4,0.8,2.3,1.7,2.8,2.5
		c2.9-2.5,6.3-3.7,10.3-3.7c4,0,6.9,1.1,8.7,3.2c1.8,2.2,2.7,5.7,2.7,10.6V332c0,0.6-2,0.8-5.9,0.8c-3.9,0-5.9-0.3-5.9-0.8v-19.9
		c0-2.3-0.8-3.4-2.4-3.4c-0.5,0-1.1,0.2-1.9,0.6c-0.8,0.4-1.4,0.7-1.6,0.9V332.2z"/>
	<path class="st3" d="M412.1,330.2v-31.7c0-0.3,2.1-0.4,6.2-0.4c4.2,0,6.2,0.1,6.2,0.3V335c0,3.4-1.4,6.1-4.2,8.1s-6.3,3-10.6,3
		c-5.9,0-8.9-2.1-8.9-6.2c0-1.4,0.2-2.5,0.7-3.4c0.4,0,1,0.1,1.7,0.1c3.3,0,5.7-0.5,6.9-1.6C411.4,333.9,412.1,332.3,412.1,330.2z
		 M412.1,294.4v-9.9c0-0.5,2.1-0.7,6.2-0.7c4.2,0,6.2,0.1,6.2,0.4v10.1c0,0.3-2.1,0.5-6.2,0.5C414.1,294.8,412.1,294.6,412.1,294.4z
		"/>
	<path class="st3" d="M443.3,294.3c0,0.3-2.1,0.5-6.3,0.5c-4.2,0-6.3-0.1-6.3-0.4v-9.9c0-0.5,2.1-0.7,6.3-0.7c4.2,0,6.3,0.1,6.3,0.4
		V294.3z M443.3,332.2c0,0.4-2.1,0.6-6.3,0.6c-4.2,0-6.3-0.2-6.3-0.5v-33.8c0-0.3,2.1-0.5,6.3-0.5c4.2,0,6.3,0.1,6.3,0.4V332.2z"/>
	<path class="st3" d="M483.4,298.9l0.1-0.7c0-1.1-0.4-2.1-1.1-2.8s-1.7-1-2.8-1c-1.1,0-2,0.4-2.8,1.1c-0.7,0.7-1.1,1.7-1.1,3
		c0,3.5,2.5,5.2,7.4,5.2c1.1,0,2.3-0.1,3.7-0.3c9-1.1,13.6-1.7,13.7-1.7c1.3,0,1.9,1.3,1.9,3.9c0,2.1-0.4,4.2-1.3,6.3l-7,0.8
		c1.2,2.9,1.8,5.5,1.8,7.8c0,3.6-1.4,6.6-4.2,9s-6.8,3.6-12.1,3.6c-5.3,0-9.5-1.3-12.6-3.9c-3.1-2.6-4.6-5.9-4.6-10s2-7.5,5.9-10.4
		c-2.9-3.2-4.3-6.9-4.3-11.2c0-4.2,1.5-7.6,4.4-10.2c2.9-2.6,6.7-3.9,11.4-3.9s8.4,1.1,11.1,3.4c2.7,2.3,4.1,5.4,4.1,9.3
		c0,0.8-0.7,1.5-2.2,2.3c-1.5,0.7-3.3,1.1-5.3,1.1C485.3,299.8,484,299.5,483.4,298.9z M475.8,313c-0.5,1.3-0.8,2.5-0.8,3.5
		c0,1,0.2,1.9,0.5,2.7c0.7,1.8,2.2,2.7,4.4,2.7c1.6,0,2.7-0.6,3.4-1.7c0.7-1.1,1.1-2.5,1.1-4.2c0-0.8,0-1.4-0.1-1.8
		c0-0.4-0.1-0.6-0.1-0.7c-1.6,0.3-3.1,0.4-4.6,0.4C478.1,313.9,476.9,313.6,475.8,313z"/>
	<path class="st3" d="M308.7,352c2.5,0.9,3.8,2.2,3.8,3.8c0,1.6-0.6,3.6-1.8,6c-1.2,2.4-2.2,3.5-3.1,3.5c-0.2,0-0.5-0.1-0.8-0.4
		c-0.3-0.3-1-0.5-2.1-0.8c-1.1-0.3-2-0.4-2.8-0.4c-2.7,0-4.8,0.9-6.4,2.8c-1.6,1.9-2.4,4.8-2.4,8.6s0.8,6.8,2.5,8.6
		c1.7,1.9,3.8,2.8,6.4,2.8c1.1,0,2.2-0.1,3.5-0.4c1.3-0.3,2.2-0.7,2.8-1.3c0.1-0.1,0.3-0.1,0.6-0.1s0.8,0.5,1.5,1.5
		c0.8,1,1.5,2.4,2.1,4.1c0.6,1.7,1,3,1,3.9c0,1.8-1.4,3.2-4.1,4.3c-2.8,1.1-6,1.6-9.8,1.6c-6.1,0-11-2.1-14.9-6.4
		c-3.9-4.3-5.9-10.3-5.9-18.1s2-13.9,6-18.3c4-4.5,9-6.7,15-6.7C303.2,350.6,306.2,351,308.7,352z"/>
	<path class="st3" d="M330,398.9c0,0.4-1.9,0.6-5.7,0.6c-3.8,0-5.7-0.3-5.7-1v-47.2c0-0.3,0.7-0.6,2.1-0.7c1.4-0.1,2.6-0.2,3.6-0.2
		c3.9,0,5.8,0.4,5.8,1.2v13.8c2.6-0.8,4.5-1.2,5.9-1.2c3.5,0,6.2,0.9,8.3,2.8c2,1.9,3,5.3,3,10.4v21.3c0,0.4-1.8,0.6-5.4,0.6
		c-4-0.1-6.1-0.4-6.1-0.7v-20.2c0-2.2-0.7-3.4-2.2-3.4c-1,0-2.2,0.5-3.5,1.4V398.9z"/>
	<path class="st3" d="M379,397.5c-2.9,1.7-6.6,2.5-11.2,2.5s-8.4-1.5-11.5-4.6c-3.1-3.1-4.7-7.4-4.7-12.9c0-5.5,1.5-9.9,4.5-13.3
		c3-3.3,6.8-5,11.4-5c4.6,0,8.1,1.2,10.6,3.5c2.5,2.3,3.8,5.2,3.8,8.5c0,7.4-4.3,11.2-12.8,11.2h-4.7c0,1.4,0.4,2.3,1.1,2.9
		c0.8,0.5,1.9,0.8,3.3,0.8c3.2,0,6.3-0.7,9.2-2.2c0,0,0.3,0.3,0.6,1c1.1,2,1.7,3.6,1.7,5C380.3,396.2,379.9,397.1,379,397.5z
		 M370.4,377.6c0-1.9-0.9-2.9-2.8-2.9c-0.9,0-1.6,0.3-2.2,0.8s-0.9,1.3-0.9,2.3v2.1h3.7C369.6,380,370.4,379.2,370.4,377.6z"/>
	<path class="st3" d="M422.1,365.3c0-0.4,1.3-0.6,3.8-0.6c5.7,0,8.5,0.2,8.4,0.6l-6.7,33.5c-0.1,0.7-2.7,1.1-7.6,1.1
		s-7.5-0.4-7.6-1.1l-2.8-15.4l-3.5,15.4c-0.1,0.7-2.8,1-7.9,1c-5.1,0-7.7-0.4-7.9-1.2l-6.1-33.5c-0.1-0.3,1.8-0.4,5.9-0.4
		c4,0,6.1,0.1,6.1,0.3l3.2,23.3l5.7-23c0.1-0.3,1.6-0.4,4.5-0.4c2.9,0,4.5,0.1,4.5,0.4l5.6,22.7L422.1,365.3z"/>
	<path class="st3" d="M450.8,361.1c0,0.3-2.1,0.5-6.3,0.5c-4.2,0-6.3-0.1-6.3-0.4v-9.9c0-0.5,2.1-0.7,6.3-0.7c4.2,0,6.3,0.1,6.3,0.4
		V361.1z M450.8,399c0,0.4-2.1,0.6-6.3,0.6c-4.2,0-6.3-0.2-6.3-0.5v-33.8c0-0.3,2.1-0.5,6.3-0.5c4.2,0,6.3,0.1,6.3,0.4V399z"/>
	<path class="st3" d="M483,397.5c-2.9,1.7-6.6,2.5-11.2,2.5s-8.4-1.5-11.5-4.6c-3.1-3.1-4.7-7.4-4.7-12.9c0-5.5,1.5-9.9,4.5-13.3
		s6.8-5,11.4-5c4.6,0,8.1,1.2,10.6,3.5c2.5,2.3,3.8,5.2,3.8,8.5c0,7.4-4.3,11.2-12.8,11.2h-4.7c0,1.4,0.4,2.3,1.1,2.9
		c0.8,0.5,1.9,0.8,3.3,0.8c3.2,0,6.3-0.7,9.2-2.2c0,0,0.3,0.3,0.6,1c1.1,2,1.7,3.6,1.7,5C484.3,396.2,483.9,397.1,483,397.5z
		 M474.4,377.6c0-1.9-0.9-2.9-2.8-2.9c-0.9,0-1.6,0.3-2.2,0.8s-0.9,1.3-0.9,2.3v2.1h3.7C473.6,380,474.4,379.2,474.4,377.6z"/>
	<path class="st3" d="M491.9,387c3.7,2.2,6.7,3.4,8.8,3.4c1.4,0,2.1-0.5,2.1-1.4c0-0.7-1.2-1.6-3.6-2.7c-5.7-2.3-8.6-6.2-8.6-11.5
		c0-3.4,1.2-6,3.7-7.8c2.5-1.8,5.4-2.7,8.9-2.7c3.5,0,6.4,0.4,8.8,1.1c2.4,0.7,3.6,1.7,3.6,2.9c0,1-0.5,2.3-1.5,4
		c-1,1.7-1.7,2.5-2,2.7c-2-1.1-4.1-1.7-6.4-1.7c-1.2,0-1.9,0.4-1.9,1.3c0,0.6,0.2,1,0.7,1.4c0.5,0.4,1.4,0.9,2.6,1.4
		c1.3,0.6,2.4,1.1,3.2,1.5c0.8,0.5,1.8,1.1,2.9,1.9c2.2,1.7,3.3,4,3.3,6.8c0,3.7-1.2,6.6-3.6,8.9c-2.4,2.3-6.1,3.4-11,3.4
		c-3.3,0-6.2-0.6-8.9-1.7s-4-2.6-4-4.5c0-1.3,0.3-2.6,0.9-4.1C490.6,388.4,491.2,387.4,491.9,387z"/>
</g>
<g>
	<path class="st4" d="M345.9,433.2c-1,0.8-2.5,1.6-4.3,2.3c-0.7,0.3-1.3,0.5-2,0.7c-0.7,0.2-1.1,0.4-1.4,0.4c0.1,2.3,0.2,4.3,0.2,6
		c0,0.5,0.1,1,0.2,1.3c0.1,0.3,0.2,0.6,0.2,0.6c0,0.2-0.1,0.4-0.4,0.5c-0.2,0.1-0.5,0.2-0.7,0.2c-0.3,0-0.5-0.2-0.6-0.6
		c0,0,0-0.2-0.1-0.5c-0.1-0.3-0.1-0.7-0.1-1.3c0-1.5-0.1-4-0.2-7.4c-0.1-1.7-0.1-3-0.1-3.7c0-0.6,0-1.2,0-1.7c0-0.5,0-0.9,0-1.1
		c-1.4,0.3-2.5,0.7-3.5,1c-0.3,0.1-0.8,0.4-1.4,0.7c-0.3,0.1-0.5,0.3-0.8,0.4c-0.2,0.1-0.4,0.2-0.6,0.2c-0.2,0-0.3-0.1-0.5-0.2
		c-0.1-0.1-0.2-0.3-0.2-0.5c0-0.2,0.4-0.6,1.2-0.9c0.8-0.4,1.8-0.7,3-1.1c1.2-0.3,2.3-0.6,3.2-0.8c1.2-0.2,2.5-0.3,3.9-0.3
		c2,0,3.5,0.2,4.6,0.7c1.1,0.5,1.7,1.1,1.7,2C347.5,431.5,347,432.4,345.9,433.2z M344.6,429.2c-0.9-0.3-2.1-0.4-3.4-0.4
		c-1,0-2,0.1-3,0.2c0,0.2,0,0.5-0.1,1.1c0,0.6,0,1.1,0,1.6l0,2.1c0,0.5,0,1,0,1.8c0.5,0,1.4-0.3,2.9-0.9c1.4-0.6,2.6-1.2,3.6-1.9
		c1-0.7,1.5-1.4,1.5-2.2C346,429.9,345.5,429.4,344.6,429.2z"/>
	<path class="st4" d="M362.5,437.3c0,0.3-0.3,1.1-0.9,2.3c-0.6,1.2-1.4,2.3-2.6,3.3c-1.1,1-2.6,1.5-4.2,1.5c-1.4,0-2.5-0.4-3.5-1.2
		c-0.9-0.8-1.4-1.9-1.4-3.5c0-1.5,0.4-3,1.2-4.5c0.8-1.5,1.8-2.7,3-3.6c1.2-0.9,2.5-1.4,3.9-1.4c0.8,0,1.5,0.2,2,0.5
		c0.5,0.3,0.8,0.8,0.8,1.4c0,0.7-0.4,1.3-1.3,2c-0.8,0.6-2,1.2-3.3,1.7c-1.4,0.5-2.8,0.8-4.2,1c-0.3,0.9-0.4,1.7-0.4,2.6
		c0,1.1,0.3,2,0.9,2.6c0.6,0.6,1.4,0.9,2.5,0.9c1.7,0,3-0.5,4-1.6c1-1.1,1.9-2.2,2.6-3.6c0-0.1,0.1-0.2,0.2-0.4
		c0.1-0.2,0.2-0.3,0.3-0.3C362.4,436.9,362.5,437.1,362.5,437.3z M358.9,431.7c-0.4-0.2-0.8-0.3-1.2-0.3c-0.8,0-1.6,0.2-2.4,0.7
		c-0.8,0.5-1.4,1.1-1.9,1.7c-0.5,0.7-0.8,1.3-1,1.8c1-0.1,2-0.3,3.1-0.7c1.1-0.4,2-0.8,2.8-1.3c0.7-0.5,1.1-0.9,1.1-1.2
		C359.4,432.1,359.3,431.8,358.9,431.7z"/>
	<path class="st4" d="M378.9,433.1c-0.3,0.2-0.9,0.3-1.7,0.4c-2,0.3-3.1,0.5-3.3,0.5l-2.1,0.3c0,1,0,2,0,3.1c0,1.1,0.1,2.1,0.1,2.9
		c0.1,1.1,0.2,2,0.5,2.6c0.2,0.6,0.3,0.9,0.4,1c0,0.2-0.1,0.4-0.4,0.5s-0.5,0.2-0.8,0.2c-0.1,0-0.2,0-0.3-0.1
		c-0.1-0.1-0.2-0.2-0.2-0.3c-0.1-0.3-0.3-0.8-0.4-1.5c-0.1-0.7-0.2-1.5-0.3-2.4c-0.1-0.8-0.1-1.7-0.1-2.7c0-1,0-2.1,0-3
		c-1.2,0.2-2.4,0.4-3.7,0.6c-1.1,0.2-1.8,0.3-2,0.3c-0.3,0-0.5-0.1-0.7-0.2c-0.2-0.1-0.3-0.3-0.3-0.5c0-0.2,0.1-0.4,0.3-0.5
		c0.2-0.1,0.5-0.1,1-0.1c0.3,0,0.8-0.1,1.4-0.2c0.6-0.1,1-0.2,1.2-0.2c1.4-0.2,2.4-0.4,2.9-0.5c0-0.4,0-0.9-0.1-1.6
		c0-0.9-0.1-1.6-0.1-2c0-0.7,0-1.3,0.1-1.7c0.1-0.4,0.2-0.8,0.3-1.1c0.2-0.4,0.5-0.6,1-0.6c0.2,0,0.3,0,0.4,0.1
		c0.1,0.1,0.1,0.2,0.1,0.3c0,0.1-0.1,0.5-0.2,1c-0.1,0.6-0.2,1.3-0.2,2.2c0,0.7,0,1.5,0.1,2.4l0,0.8c1-0.1,2.9-0.5,5.7-1.1
		c0.2,0,0.3-0.2,0.4-0.4c0.1-0.2,0.2-0.3,0.4-0.3c0.2,0,0.5,0.1,0.7,0.4s0.4,0.5,0.4,0.7C379.3,432.7,379.2,432.9,378.9,433.1z"/>
	<path class="st4" d="M404,442.1c-0.7,0.9-1.7,1.7-3,2.3c-1.3,0.6-2.8,0.9-4.4,0.9c-1.4,0-2.5-0.1-3.3-0.3c-0.8-0.2-1.2-0.5-1.2-0.8
		c0-0.2,0.2-0.5,0.5-1s0.6-0.7,0.7-0.7c0.3,0,0.4,0,0.4,0.1c0,0.1,0,0.1-0.1,0.2c-0.1,0.1-0.1,0.2-0.1,0.2c0,0.1,0.1,0.1,0.4,0.3
		c0.3,0.1,0.7,0.2,1.2,0.3c0.6,0.1,1.2,0.1,2,0.1c1.3,0,2.4-0.2,3.3-0.7c1-0.4,1.7-1,2.2-1.7c0.5-0.7,0.8-1.3,0.8-2
		c0-0.8-0.4-1.5-1.3-2.1s-2.3-1.2-4.3-1.7c-1.9-0.6-3.4-1-4.4-1.4c-1-0.4-1.9-0.8-2.5-1.4c-0.6-0.5-1-1.2-1-2c0-1.1,0.7-2.1,2-3.1
		c1.3-1,3-1.9,4.9-2.5c2-0.6,3.8-1,5.5-1c0.9,0,1.3,0.2,1.4,0.5c0.1,0.3,0.1,0.7,0.1,1c0,0.3-0.1,0.4-0.4,0.4c-0.1,0-0.2,0-0.4-0.1
		c-0.1-0.1-0.3-0.1-0.4-0.2c-0.1,0-0.3-0.1-0.5-0.1c-0.2,0-0.4-0.1-0.7-0.1c-1.1,0-2.5,0.3-4,0.8c-1.6,0.5-2.9,1.2-4.1,1.9
		c-1.1,0.8-1.7,1.5-1.7,2.2c0,0.6,0.3,1.1,0.8,1.5c0.5,0.4,1.2,0.8,2.1,1.1c0.9,0.3,2.1,0.7,3.7,1.1c2.4,0.6,4.1,1.3,5.2,2.1
		c1.1,0.8,1.7,1.7,1.7,2.8C405.1,440.2,404.7,441.1,404,442.1z"/>
	<path class="st4" d="M421.8,433.1c-0.3,0.2-0.9,0.3-1.7,0.4c-2,0.3-3.1,0.5-3.3,0.5l-2.1,0.3c0,1,0,2,0,3.1c0,1.1,0.1,2.1,0.1,2.9
		c0.1,1.1,0.2,2,0.5,2.6c0.2,0.6,0.3,0.9,0.4,1c0,0.2-0.1,0.4-0.4,0.5c-0.3,0.2-0.5,0.2-0.8,0.2c-0.1,0-0.2,0-0.3-0.1
		c-0.1-0.1-0.2-0.2-0.2-0.3c-0.1-0.3-0.3-0.8-0.4-1.5c-0.1-0.7-0.2-1.5-0.3-2.4c-0.1-0.8-0.1-1.7-0.1-2.7c0-1,0-2.1,0-3
		c-1.2,0.2-2.4,0.4-3.7,0.6c-1.1,0.2-1.8,0.3-2,0.3c-0.3,0-0.5-0.1-0.7-0.2c-0.2-0.1-0.3-0.3-0.3-0.5c0-0.2,0.1-0.4,0.3-0.5
		c0.2-0.1,0.5-0.1,1-0.1c0.3,0,0.8-0.1,1.4-0.2c0.6-0.1,1-0.2,1.2-0.2c1.4-0.2,2.4-0.4,2.9-0.5c0-0.4,0-0.9-0.1-1.6
		c0-0.9-0.1-1.6-0.1-2c0-0.7,0-1.3,0.1-1.7c0.1-0.4,0.2-0.8,0.3-1.1c0.2-0.4,0.5-0.6,1-0.6c0.2,0,0.3,0,0.4,0.1
		c0.1,0.1,0.1,0.2,0.1,0.3c0,0.1-0.1,0.5-0.2,1c-0.1,0.6-0.2,1.3-0.2,2.2c0,0.7,0,1.5,0.1,2.4l0,0.8c1-0.1,2.9-0.5,5.7-1.1
		c0.2,0,0.3-0.2,0.4-0.4c0.1-0.2,0.2-0.3,0.4-0.3c0.2,0,0.5,0.1,0.7,0.4c0.2,0.2,0.4,0.5,0.4,0.7
		C422.3,432.7,422.1,432.9,421.8,433.1z"/>
	<path class="st4" d="M434.2,440.9c-0.6,1-1.5,1.8-2.6,2.5c-1.1,0.7-2.4,1.1-3.9,1.1c-1.4,0-2.5-0.4-3.2-1.1c-0.7-0.7-1-1.6-1-2.6
		c0-0.9,0.2-2.1,0.6-3.4c0.4-1.4,0.9-2.6,1.6-3.7c0-0.1,0.2-0.4,0.5-0.8c0.3-0.5,0.7-0.9,1-1.1c0.4-0.3,0.8-0.4,1.2-0.4
		c0.2,0,0.4,0,0.5,0.1c0.2,0.1,0.2,0.2,0.2,0.3c0,0-0.1,0.1-0.2,0.3c-0.1,0.1-0.2,0.3-0.3,0.3c-0.7,0.8-1.3,1.6-1.8,2.3
		c-0.6,1-1.1,1.9-1.4,2.9c-0.3,1-0.5,2-0.5,3.1c0,1.5,1,2.3,3.1,2.3c1,0,1.9-0.2,2.7-0.7c0.8-0.5,1.5-1.1,2-1.8
		c0.5-0.7,0.7-1.4,0.7-2c0-0.7-0.2-1.3-0.7-1.8c-0.5-0.5-1.2-1-2-1.6c-0.6-0.4-1-0.7-1.2-0.9c-0.3-0.2-0.4-0.4-0.4-0.6
		c0-0.2,0.2-0.4,0.5-0.6c0.4-0.1,0.8-0.2,1.3-0.2c0.3,0,0.5,0,0.5,0c0.1,0,0.1,0.1,0.1,0.2c0,0,0,0.1-0.1,0.2
		c-0.1,0.1-0.1,0.2-0.1,0.2c0,0.1,0.2,0.2,0.6,0.6c0.9,0.6,1.6,1.3,2.2,1.9c0.6,0.7,0.9,1.4,0.9,2.3
		C435.1,439,434.8,439.9,434.2,440.9z"/>
	<path class="st4" d="M448.4,432.7c-0.3,0.2-0.5,0.3-0.7,0.3c-0.2,0-0.3-0.1-0.4-0.2c-0.1-0.1-0.3-0.3-0.5-0.5
		c-0.2-0.2-0.3-0.4-0.6-0.5c-0.2-0.1-0.5-0.2-0.8-0.2c-0.6,0-1.5,0.7-2.5,2.2c-1.1,1.5-2.1,3.3-3.1,5.5c0,0.4,0.1,1,0.1,1.7
		c0.1,0.7,0.1,1.2,0.1,1.5l0.1,1.2c0,0.3-0.1,0.5-0.2,0.7c-0.1,0.2-0.4,0.3-0.7,0.3c-0.4,0-0.6-0.4-0.7-1.3
		c-0.1-0.9-0.2-2.1-0.2-3.8c0-0.4,0-1,0-1.8c0-0.8,0-1.7-0.1-2.8c-0.1-1.7-0.1-2.8-0.1-3.5c0-0.4,0.3-0.7,0.9-0.7
		c0.4,0,0.6,0.1,0.7,0.4c0.1,0.3,0.1,0.8,0.1,1.6v4.6c0.6-1.5,1.3-2.8,2.1-3.8c0.8-1.1,1.5-1.9,2.2-2.5c0.7-0.6,1.4-0.9,1.9-0.9
		c0.5,0,0.9,0.1,1.4,0.3c0.4,0.2,0.8,0.4,1,0.7c0.3,0.3,0.4,0.6,0.4,0.8C448.8,432.3,448.7,432.5,448.4,432.7z"/>
	<path class="st4" d="M463.5,437.3c0,0.3-0.3,1.1-0.9,2.3c-0.6,1.2-1.4,2.3-2.6,3.3c-1.1,1-2.6,1.5-4.2,1.5c-1.4,0-2.5-0.4-3.5-1.2
		c-0.9-0.8-1.4-1.9-1.4-3.5c0-1.5,0.4-3,1.2-4.5c0.8-1.5,1.8-2.7,3-3.6c1.2-0.9,2.5-1.4,3.9-1.4c0.8,0,1.5,0.2,2,0.5
		c0.5,0.3,0.8,0.8,0.8,1.4c0,0.7-0.4,1.3-1.3,2s-2,1.2-3.3,1.7c-1.4,0.5-2.8,0.8-4.2,1c-0.3,0.9-0.4,1.7-0.4,2.6
		c0,1.1,0.3,2,0.9,2.6c0.6,0.6,1.4,0.9,2.5,0.9c1.7,0,3-0.5,4-1.6c1-1.1,1.9-2.2,2.6-3.6c0-0.1,0.1-0.2,0.2-0.4
		c0.1-0.2,0.2-0.3,0.3-0.3C463.4,436.9,463.5,437.1,463.5,437.3z M459.9,431.7c-0.4-0.2-0.8-0.3-1.2-0.3c-0.8,0-1.6,0.2-2.4,0.7
		c-0.8,0.5-1.4,1.1-1.9,1.7c-0.5,0.7-0.8,1.3-1,1.8c1-0.1,2-0.3,3.1-0.7c1.1-0.4,2-0.8,2.8-1.3c0.7-0.5,1.1-0.9,1.1-1.2
		C460.4,432.1,460.3,431.8,459.9,431.7z"/>
</g>
<polygon class="st0" points="325.1,206.3 323.8,209.1 326.9,208.8 "/>
<polygon class="st0" points="323.9,208 324.7,210.9 326.9,208.7 "/>
<polygon class="st0" points="325.2,207 324.7,210 327.5,208.9 "/>
<polygon class="st0" points="324.9,207.6 325.1,210.6 327.6,209 "/>
<polygon class="st0" points="325.2,207.3 325,210.4 327.8,209 "/>
</svg>
