<?xml version="1.0" encoding="utf-8"?>
<!-- Generator: Adobe Illustrator 21.0.0, SVG Export Plug-In . SVG Version: 6.00 Build 0)  -->
<svg version="1.1" id="Layer_1" xmlns="http://www.w3.org/2000/svg" xmlns:xlink="http://www.w3.org/1999/xlink" x="0px" y="0px"
	 viewBox="0 0 792 612" style="enable-background:new 0 0 792 612;" xml:space="preserve">
<style type="text/css">
	.st0{fill:#FFDEB0;}
	.st1{fill:#EFDE91;stroke:#000000;stroke-miterlimit:10;}
	.st2{fill:#D29629;stroke:#000000;stroke-miterlimit:10;}
	.st3{fill:#F15632;stroke:#000000;stroke-miterlimit:10;}
	.st4{fill:#FEF8C0;stroke:#000000;stroke-miterlimit:10;}
	.st5{fill:#2DB34A;stroke:#000000;stroke-miterlimit:10;}
	.st6{stroke:#000000;stroke-miterlimit:10;}
	.st7{fill:#F89843;}
</style>
<rect class="st0" width="792" height="612"/>
<polygon class="st1" points="538.5,315.1 530,318.1 473.5,338.1 421.5,356.5 345.8,383.3 290,403.1 231.4,423.9 368.7,138.4 
	372.6,130.3 "/>
<path class="st2" d="M532.3,330L355.8,133.3c-6.8-7.5-6.2-19.2,1.4-25.9L370.9,95c7.5-6.8,19.2-6.2,25.9,1.4l176.6,196.7
	c6.8,7.5,6.2,19.2-1.4,25.9l-13.8,12.4C550.7,338.2,539.1,337.6,532.3,330z"/>
<path class="st3" d="M466.1,340.7l-57.9,20.5c-11.8-13.6-10.5-34.1,2.9-46.2c13.6-12.2,34.4-11,46.6,2.5
	C463.6,324.2,466.4,332.5,466.1,340.7z"/>
<path class="st4" d="M348,192.3c-1-6.5,12.3-18.3,25.8-16.2c10.9,1.7,17.5,11.7,19.5,19.6c1.5,5.9,2.7,19.2-5.6,23.3
	c-5.5,2.7-13.3,0.5-19.3-5.4c-3.7,5.4-7.4,10.9-11.2,16.3c-4.5-5-9-10-13.5-15c7.6-3.7,14.4-8.2,14-12.5
	C357.3,197.7,348.8,197.1,348,192.3z"/>
<ellipse transform="matrix(0.7442 -0.668 0.668 0.7442 -97.2616 298.2639)" class="st3" cx="340.7" cy="276.1" rx="33" ry="33"/>
<path class="st4" d="M323.8,325.9c3.3-4.3,17.9-3.2,24.4,6c5.3,7.4,3.1,17.1-0.4,22.9c-2.6,4.3-9.8,12.6-17,10.1
	c-4.7-1.7-8-7.6-7.9-14.5c-5.4,0.9-10.7,1.8-16.1,2.8c0.4-5.5,0.8-11.1,1.1-16.6c6.6,2.4,13.1,3.8,15.5,1.1
	C325.9,334.5,321.3,329.1,323.8,325.9z"/>
<rect x="281.1" y="324.4" transform="matrix(0.8537 0.5207 -0.5207 0.8537 218.2864 -100.5232)" class="st5" width="13.8" height="27.7"/>
<rect x="411.7" y="266.2" transform="matrix(0.9382 0.3461 -0.3461 0.9382 122.8022 -127.5894)" class="st5" width="13.8" height="27.7"/>
<path class="st6" d="M404.5,241.6c-5.6-6.2-15.2-6.7-21.4-1.2c-6.2,5.6-6.8,15.2-1.2,21.4c5.6,6.2,15.2,6.7,21.4,1.1
	C409.6,257.4,410.1,247.8,404.5,241.6z M388,256.3c-2.6-2.8-2.3-7.2,0.5-9.8c2.8-2.5,7.2-2.3,9.7,0.5c2.6,2.8,2.3,7.2-0.5,9.7
	C395,259.4,390.6,259.2,388,256.3z"/>
<path class="st6" d="M474.7,282.5c-5.6-6.2-15.2-6.7-21.4-1.2c-6.2,5.6-6.8,15.2-1.2,21.4c5.6,6.2,15.2,6.7,21.4,1.1
	C479.8,298.3,480.3,288.7,474.7,282.5z M458.3,297.2c-2.6-2.8-2.3-7.2,0.5-9.8c2.8-2.5,7.2-2.3,9.7,0.5c2.6,2.8,2.3,7.2-0.5,9.7
	C465.2,300.3,460.8,300.1,458.3,297.2z"/>
<path class="st6" d="M388.7,325.9c-5.6-6.2-15.2-6.7-21.4-1.2c-6.2,5.6-6.8,15.2-1.2,21.4c5.6,6.2,15.2,6.7,21.4,1.1
	C393.7,341.7,394.3,332.1,388.7,325.9z M372.2,340.6c-2.6-2.8-2.3-7.2,0.5-9.8c2.8-2.5,7.2-2.3,9.7,0.5c2.6,2.8,2.3,7.2-0.5,9.7
	C379.1,343.7,374.8,343.5,372.2,340.6z"/>
<path class="st3" d="M323.9,391.1l-62.2,22.1c-4.9-12.5-1.8-27.1,8.7-36.6c13.6-12.2,34.4-11,46.6,2.5
	C320.2,382.7,322.5,386.8,323.9,391.1z"/>
<path class="st1" d="M298.6,400.1l-10.4,71c-1,6.6-7.1,11.1-13.7,10.2h0c-6.6-1-11.1-7.1-10.2-13.7l1.5-10.4l-14.7-2.1l-6,40.7
	c-1,6.6-7.1,11.1-13.7,10.2h0c-6.6-1-11.1-7.1-10.2-13.7l10-68.4L298.6,400.1z"/>
<g>
	<path class="st7" d="M336.2,435.9h-10.1v-33.6h9.8l4.1,7l4.1-7h9.9v33.6h-10.1v-16.8l-3.9,6.5l-3.8-6.5V435.9z"/>
	<path class="st7" d="M358.2,435.9v-26.5c1.3,1,2.8,1.5,4.6,1.5c1.9,0,3.5-0.5,4.7-1.5v26.5H358.2z M364.8,401.9
		c0.7,0,1.4,0.4,1.9,1.1s0.8,1.6,0.8,2.7c0,1.1-0.3,2-0.8,2.8c-0.5,0.8-1.1,1.1-1.9,1.1c-0.7,0-1.3-0.4-1.8-1.1
		c-0.5-0.8-0.8-1.7-0.8-2.8c0-1,0.3-1.9,0.8-2.7C363.5,402.2,364.1,401.9,364.8,401.9z"/>
	<path class="st7" d="M370.9,409.5h9.3v3.3c1.5-2.3,3.4-3.5,5.6-3.5c1.2,0,2.3,0.3,3.2,0.9c0.9,0.6,1.7,1.5,2.1,2.6s0.8,2.3,1,3.6
		c0.2,1.3,0.2,3.4,0.2,6.5v13.2h-8.8v-12.3c0-2.9-0.1-4.7-0.3-5.4c-0.2-0.7-0.7-1.1-1.5-1.1c-0.5,0-1,0.3-1.6,0.9v17.9h-9.3V409.5z"
		/>
	<path class="st7" d="M397.7,425.8v-16.3c1.7,1,3.3,1.5,4.8,1.5c1.7,0,3.2-0.5,4.5-1.5V426c0,3.4-0.2,6-0.5,7.8s-0.8,3.4-1.6,4.8
		c-0.7,1.4-1.7,2.6-3,3.4s-2.6,1.2-4.1,1.2c-1.5,0-2.7-0.4-3.8-1.2v-10c0.5,0.3,1,0.4,1.5,0.4c0.9,0,1.4-0.4,1.7-1.2
		S397.7,428.6,397.7,425.8z M404.3,401.7c0.7,0,1.4,0.4,1.9,1.1c0.5,0.8,0.8,1.7,0.8,2.8c0,1.1-0.3,2-0.8,2.8
		c-0.5,0.8-1.2,1.2-1.9,1.2c-0.7,0-1.4-0.4-1.9-1.1c-0.5-0.8-0.8-1.7-0.8-2.8c0-1.1,0.3-2,0.8-2.8
		C403,402.1,403.6,401.7,404.3,401.7z"/>
	<path class="st7" d="M411,435.9v-26.5c1.3,1,2.8,1.5,4.6,1.5c1.9,0,3.5-0.5,4.7-1.5v26.5H411z M417.5,401.9c0.7,0,1.4,0.4,1.9,1.1
		c0.5,0.7,0.8,1.6,0.8,2.7c0,1.1-0.3,2-0.8,2.8c-0.5,0.8-1.1,1.1-1.9,1.1c-0.7,0-1.3-0.4-1.8-1.1s-0.8-1.7-0.8-2.8
		c0-1,0.3-1.9,0.8-2.7S416.9,401.9,417.5,401.9z"/>
	<path class="st7" d="M425.2,422.4l-0.3-0.3c1.4-1.3,2.2-3.2,2.4-5.6c-2.7-1.2-4-3.5-4-7.1c0-2.1,0.5-3.9,1.5-5.4s2.2-2.2,3.6-2.2
		c1.5,0,2.7,0.8,3.6,2.3c0.9,1.5,1.4,3.5,1.4,6.1c0,2.7-0.8,5.3-2.3,7.7C429.5,420.3,427.5,421.8,425.2,422.4z"/>
	<path class="st7" d="M436.2,425.9c0.6,1.2,1.4,2.2,2.3,2.9s1.8,1.1,2.6,1.1c1.2,0,1.8-0.6,1.8-1.9c0-0.5-0.1-1-0.4-1.4
		c-0.3-0.4-0.7-0.7-1.2-0.9l-2.1-0.9c-1.5-0.6-2.6-1.7-3.3-3s-1.2-3-1.2-4.9c0-2.5,0.8-4.5,2.4-5.9c1.6-1.4,3.9-2.1,6.8-2.1
		c2.8,0,5.4,0.8,7.7,2.3l-2.2,6.8c-1.5-1.9-2.8-2.9-4.2-2.9c-0.5,0-0.9,0.1-1.1,0.4c-0.3,0.3-0.4,0.7-0.4,1.1c0,0.7,0.2,1.2,0.6,1.6
		s1.2,0.8,2.3,1.2c2.4,0.8,3.9,2,4.6,3.5c0.7,1.5,1,3.1,1,4.7c0,2.7-0.7,4.8-2.2,6.3c-1.5,1.6-3.5,2.4-6,2.4c-1.4,0-3-0.3-4.7-0.8
		c-1.8-0.5-3.4-1.2-5-2.1L436.2,425.9z"/>
	<path class="st7" d="M470.1,435.9v-33.6h9.8c3.6,0,6.2,0.3,7.7,0.8c1.5,0.5,2.8,1.7,3.8,3.6c1,1.9,1.6,4.2,1.6,6.8
		c0,3.3-0.7,6.1-2.2,8.2s-3.3,3.2-5.6,3.2c-1.6,0-3.2-1-5-2.9v13.9H470.1z M480.4,409.6h-0.2v7.3h0.1l0.6,0c0.9,0,1.5-0.3,2-1
		c0.5-0.7,0.7-1.6,0.7-2.8c0-1.3-0.2-2.2-0.7-2.8C482.4,409.8,481.6,409.6,480.4,409.6z"/>
	<path class="st7" d="M495.2,435.9v-26.5c1.3,1,2.8,1.5,4.6,1.5c1.9,0,3.5-0.5,4.7-1.5v26.5H495.2z M501.8,401.9
		c0.7,0,1.4,0.4,1.9,1.1s0.8,1.6,0.8,2.7c0,1.1-0.3,2-0.8,2.8c-0.5,0.8-1.1,1.1-1.9,1.1c-0.7,0-1.3-0.4-1.8-1.1
		c-0.5-0.8-0.8-1.7-0.8-2.8c0-1,0.3-1.9,0.8-2.7C500.5,402.2,501.1,401.9,501.8,401.9z"/>
	<path class="st7" d="M519.5,427h6.3v8.9h-19.3l6.5-18h-5.7v-8.4h18.6L519.5,427z"/>
	<path class="st7" d="M539.6,427h6.3v8.9h-19.3l6.5-18h-5.7v-8.4H546L539.6,427z"/>
	<path class="st7" d="M557.2,435.9v-2c-0.6,0.7-1.3,1.2-2.1,1.6s-1.6,0.6-2.3,0.6c-1.4,0-2.6-0.6-3.5-1.9s-1.4-3-1.4-5
		c0-2.3,0.6-4.2,1.7-5.6c1.2-1.4,2.7-2.1,4.7-2.1c0.9,0,1.8,0.2,2.9,0.6c-0.1-2.6-1.2-3.8-3.5-3.8c-1.9,0-3.7,0.7-5.4,2.1v-8
		c2.4-2.1,5.4-3.1,9-3.1c1.8,0,3.4,0.3,4.6,1c1.3,0.6,2.2,1.6,2.9,2.9c0.7,1.3,1.1,2.6,1.3,3.9c0.2,1.3,0.3,3.3,0.3,6v13H557.2z
		 M557.2,430.1v-3.7c-0.5-0.3-1-0.4-1.5-0.4c-0.6,0-1,0.2-1.4,0.6c-0.4,0.4-0.5,1-0.5,1.6c0,0.8,0.2,1.4,0.5,1.9
		c0.4,0.5,0.8,0.7,1.4,0.7C556.3,430.8,556.8,430.6,557.2,430.1z"/>
</g>
</svg>
