<?xml version="1.0" encoding="utf-8"?>
<!-- Generator: Adobe Illustrator 21.0.0, SVG Export Plug-In . SVG Version: 6.00 Build 0)  -->
<svg version="1.1" id="Layer_1" xmlns="http://www.w3.org/2000/svg" xmlns:xlink="http://www.w3.org/1999/xlink" x="0px" y="0px"
	 viewBox="0 0 792 612" style="enable-background:new 0 0 792 612;" xml:space="preserve">
<style type="text/css">
	.st0{fill:#C59B6C;}
	.st1{fill:#FFFFFF;}
</style>
<rect x="144.9" y="253.8" width="196.3" height="4.9"/>
<rect x="144.9" y="263" width="196.3" height="4.9"/>
<rect x="484.3" y="263" width="185.9" height="4.9"/>
<rect x="484.3" y="253.8" width="185.9" height="4.9"/>
<ellipse class="st0" cx="392.8" cy="221.5" rx="17.7" ry="23.6"/>
<ellipse class="st1" cx="392.8" cy="221.3" rx="10.8" ry="16.3"/>
<rect x="390.1" y="243.7" class="st0" width="5.5" height="13.6"/>
<path class="st0" d="M398.4,256.9v48.3c0,2.5-2.5,4.6-5.6,4.6c-3.1,0-5.6-2.1-5.6-4.6v-48.3H398.4z"/>
<path class="st1" d="M393.9,261.2v40.7c0,2.1-0.5,3.9-1.1,3.9c-0.6,0-1.1-1.7-1.1-3.9v-40.7H393.9z"/>
<path class="st0" d="M450.3,210.8L450.3,210.8c0,0.2,0,0.4,0,0.6v19.9c0,6.9-5.4,12.5-12,12.5h-4.1c-6.6,0-12-5.6-12-12.5v-19.9
	c0-0.2,0-0.4,0-0.6h0v-8.2c0-1.4,1.1-2.6,2.5-2.6c1,0,1.8,0.6,2.2,1.5c0.1,0.3,0.2,0.7,0.2,1.1V230c0,5.2,4.1,9.5,9.1,9.5
	c5,0,9.2-4.3,9.2-9.5v-27.4c0-0.4,0.1-0.8,0.2-1.1c0.4-0.9,1.3-1.5,2.2-1.5c1.3,0,2.4,1.1,2.4,2.6V210.8z"/>
<path class="st0" d="M432.4,220.3L432.4,220.3c-1.3,0-2.4-1.1-2.4-2.4v-15.4c0-1.3,1.1-2.4,2.4-2.4l0,0c1.3,0,2.4,1.1,2.4,2.4v15.4
	C434.9,219.2,433.8,220.3,432.4,220.3z"/>
<path class="st0" d="M440,220.3L440,220.3c-1.3,0-2.4-1.1-2.4-2.4v-15.4c0-1.3,1.1-2.4,2.4-2.4l0,0c1.3,0,2.4,1.1,2.4,2.4v15.4
	C442.5,219.2,441.4,220.3,440,220.3z"/>
<rect x="433.5" y="243.7" class="st0" width="5.5" height="13.6"/>
<path class="st0" d="M441.8,256.9v48.3c0,2.5-2.5,4.6-5.6,4.6c-3.1,0-5.6-2.1-5.6-4.6v-48.3H441.8z"/>
<path class="st1" d="M437.4,260.5v40.7c0,2.1-0.5,3.9-1.1,3.9c-0.6,0-1.1-1.7-1.1-3.9v-40.7H437.4z"/>
<g>
	<path d="M212,343.3l-4.1,8.1c0,0-4.4-3.1-9-3.1c-3.5,0-5.3,1.6-5.3,4c0,2.5,4.2,4.3,9.3,6.4c5,2.1,10.4,6.3,10.4,12.1
		c0,10.6-8.1,14.4-16.8,14.4c-10.4,0-16.7-5.9-16.7-5.9l5.1-8.5c0,0,5.9,5,10.9,5c2.2,0,6.4-0.2,6.4-4.4c0-3.2-4.8-4.7-10-7.3
		c-5.3-2.6-8.5-6.8-8.5-11.4c0-8.3,7.3-13.6,14.5-13.6C206.3,339.1,212,343.3,212,343.3z"/>
	<path d="M228.2,384.5h-10.2v-44.6h10.2v17.8h14.4v-17.8h10.2v44.6h-10.2v-17.9h-14.4V384.5z"/>
	<path d="M299.8,384.5h-10.9l-3.3-8.9h-17l-3.3,8.9h-10.9l18-44.6h9.4L299.8,384.5z M277.2,353.7h-0.1l-5,13h10L277.2,353.7z"/>
	<path d="M311.7,384.5h-10.2v-44.6h10.2l17.7,27.6h0.1v-27.6h10.2v44.6h-10.2l-17.7-27.6h-0.1V384.5z"/>
	<path d="M371.6,348.8h-15.3v8.9H371v8.9h-14.7v9h15.3v8.9h-25.5v-44.6h25.5V348.8z"/>
	<path d="M388.7,344.8c0,5.9-4.3,10.7-8.2,14l-2.5-2c0,0,3-2.8,3.7-6.9c-2.4-0.6-4.2-2.5-4.2-5.1c0-3.1,2.5-5.7,5.6-5.7
		C386.2,339.1,388.7,341.7,388.7,344.8z"/>
	<path d="M423.4,343.3l-4.1,8.1c0,0-4.4-3.1-9-3.1c-3.5,0-5.3,1.6-5.3,4c0,2.5,4.2,4.3,9.3,6.4c5,2.1,10.4,6.3,10.4,12.1
		c0,10.6-8.1,14.4-16.8,14.4c-10.4,0-16.7-5.9-16.7-5.9l5.1-8.5c0,0,5.9,5,10.9,5c2.2,0,6.4-0.2,6.4-4.4c0-3.2-4.8-4.7-10-7.3
		c-5.3-2.6-8.5-6.8-8.5-11.4c0-8.3,7.3-13.6,14.5-13.6C417.7,339.1,423.4,343.3,423.4,343.3z"/>
	<path d="M458,339.9c7.7,0,13.7,2.9,13.7,11.3c0,4.1-1.8,7.6-5.6,9.6c5.6,1,9.5,4,9.5,11.2c0,7.3-5.3,12.4-14.6,12.4h-16.9v-44.6
		H458z M455.2,357.4c4.4,0,6.8-1.3,6.8-5.1c0-3.2-2.3-4.5-6.8-4.5h-0.8v9.6H455.2z M457.5,376.7c4.8,0,7.5-1.5,7.5-5
		c0-4.1-2.6-5.6-7.5-5.6h-3.2v10.5H457.5z"/>
	<path d="M490.3,384.5h-10.2v-44.6h10.2V384.5z"/>
	<path d="M526,343.3l-4.1,8.1c0,0-4.4-3.1-9-3.1c-3.5,0-5.3,1.6-5.3,4c0,2.5,4.2,4.3,9.3,6.4c5,2.1,10.4,6.3,10.4,12.1
		c0,10.6-8.1,14.4-16.8,14.4c-10.4,0-16.7-5.9-16.7-5.9l5.1-8.5c0,0,5.9,5,10.9,5c2.2,0,6.4-0.2,6.4-4.4c0-3.2-4.8-4.7-10-7.3
		c-5.3-2.6-8.5-6.8-8.5-11.4c0-8.3,7.3-13.6,14.5-13.6C520.2,339.1,526,343.3,526,343.3z"/>
	<path d="M526.6,339.9h31.3v8.9h-10.6v35.6h-10.2v-35.6h-10.6V339.9z"/>
	<path d="M577.5,339.9c8.3,0,14.5,4.5,14.5,13.2c0,6.7-3.7,11.2-9.1,12.9l15.3,18.4h-12.9l-13.6-17.6v17.6h-10.2v-44.6H577.5z
		 M572.9,359.7c3.8,0,8.4-0.3,8.4-5.8c0-5.6-4.6-5.8-8.4-5.8h-1.2v11.7H572.9z"/>
	<path d="M620.7,339.1c12.4,0,22.4,10,22.4,23.1c0,13-9.6,23.1-22.4,23.1c-13.2,0-22.5-10.1-22.5-23.1
		C598.3,349.2,608.5,339.1,620.7,339.1z M620.7,375.5c8.1,0,11.4-6.6,11.4-13.3c0-6.6-3.6-13.3-11.4-13.3c-7.8,0-11.5,6.6-11.5,13.3
		C609.2,368.8,612.4,375.5,620.7,375.5z"/>
</g>
<g>
	<path d="M326.5,427.4v-1.7h3.4v1.9c0,1.3,0.6,2,1.8,2c0.6,0,1-0.2,1.3-0.5c0.3-0.3,0.5-0.9,0.5-1.8v-1.6c0-0.9-0.2-1.6-0.5-2
		c-0.4-0.4-0.9-0.6-1.7-0.6h-1.2v-2.9h1.3c0.7,0,1.2-0.2,1.5-0.5c0.3-0.3,0.5-0.9,0.5-1.6V417c0-0.9-0.1-1.5-0.4-1.8
		s-0.7-0.5-1.3-0.5c-1.2,0-1.8,0.7-1.8,2v1.3h-3.4v-1.1c0-1.6,0.5-2.9,1.4-3.8c0.9-0.9,2.2-1.3,3.9-1.3c1.7,0,2.9,0.4,3.8,1.3
		c0.9,0.9,1.3,2.1,1.3,3.8v0.5c0,2.2-0.8,3.6-2.4,4.2c1.6,0.7,2.4,2.1,2.4,4.3v1.6c0,1.6-0.4,2.9-1.3,3.8c-0.9,0.9-2.1,1.3-3.8,1.3
		c-1.7,0-2.9-0.4-3.9-1.3C327,430.4,326.5,429.1,326.5,427.4z"/>
	<path d="M343.8,432.3V412h4.7l2.5,14.5l2.3-14.5h4.9v20.3h-3.4v-14.6l-2.4,14.6h-3.2l-2.5-14.3v14.3H343.8z"/>
	<path d="M360.6,432.3V412h3.4v20.3H360.6z"/>
	<path d="M366.2,427.4v-10.6c0-1.6,0.4-2.9,1.3-3.8c0.9-0.9,2.1-1.3,3.8-1.3s3,0.4,3.9,1.3c0.9,0.9,1.4,2.1,1.4,3.8v2h-3.4v-2.2
		c0-1.3-0.6-2-1.8-2c-1.2,0-1.8,0.7-1.8,2v11c0,1.3,0.6,2,1.8,2c1.2,0,1.8-0.7,1.8-2v-2.9h3.4v2.7c0,1.6-0.5,2.9-1.4,3.8
		c-0.9,0.9-2.2,1.3-3.9,1.3s-2.9-0.4-3.8-1.3C366.6,430.4,366.2,429.1,366.2,427.4z"/>
	<path d="M378.4,432.3V412h3.4v8.7h3.9V412h3.4v20.3h-3.4v-8.7h-3.9v8.7H378.4z"/>
	<path d="M391.7,432.3V412h9.3v2.9h-5.9v5.6h4.7v2.9h-4.7v5.9h5.9v2.9H391.7z"/>
	<path d="M403.1,432.3V412h3.4v17.4h5.6v2.9H403.1z"/>
	<path d="M413.6,432.3V412h3.4v20.3H413.6z"/>
	<path d="M419.4,432.3V412h4.6l3.5,12.2V412h3v20.3h-3.5l-4.2-14.7v14.7H419.4z"/>
	<path d="M437,427.4v-1.2h3.5v1.5c0,1.3,0.5,2,1.6,2h0c1.1,0,1.6-0.7,1.6-2c0-0.8-0.2-1.5-0.7-2.1c-0.5-0.7-1-1.3-1.7-1.8l-1.8-1.7
		c-0.7-0.6-1.3-1.3-1.8-2.2c-0.5-0.9-0.7-1.9-0.7-2.9c0-1.6,0.5-2.9,1.4-3.8c0.9-0.9,2.2-1.3,3.8-1.3c1.6,0,2.8,0.4,3.6,1.3
		c0.8,0.9,1.3,2.1,1.3,3.8v0.7h-3.2v-0.8c0-1.3-0.6-2-1.7-2s-1.7,0.7-1.7,2c0,0.6,0.1,1.1,0.4,1.6s0.6,1,1,1.4
		c0.4,0.4,0.8,0.8,1.3,1.2c0.5,0.4,0.9,0.8,1.4,1.2s0.9,0.9,1.3,1.4s0.7,1.1,1,1.8s0.4,1.4,0.4,2.2c0,1.6-0.4,2.9-1.3,3.8
		c-0.9,0.9-2.1,1.3-3.7,1.3s-2.8-0.4-3.8-1.3C437.5,430.4,437,429.1,437,427.4z"/>
	<path d="M448.1,414.9V412h10.6v2.9h-3.6v17.4h-3.4v-17.4H448.1z"/>
	<path d="M459.3,432.3l3.5-20.3h5.3l3.5,20.3H468l-0.6-3.5h-4.2l-0.6,3.5H459.3z M463.7,425.9h3.3l-1.7-10.2L463.7,425.9z"/>
	<path d="M472.8,432.3V412h5.1c1.8,0,3,0.4,3.8,1.1c0.8,0.8,1.2,1.9,1.2,3.5v1.6c0,2.1-0.7,3.5-2.2,4.1c1.5,0.6,2.3,2,2.3,4.3v3.1
		c0,0,0,0.1,0,0.1c0,1,0.1,1.8,0.4,2.3h-3.5c-0.2-0.6-0.3-1.4-0.3-2.5v-3.2c0-0.9-0.2-1.6-0.5-2s-0.9-0.6-1.7-0.6h-1.2v8.3H472.8z
		 M476.2,421.2h1.3c0.7,0,1.2-0.2,1.5-0.5c0.3-0.3,0.5-0.9,0.5-1.7v-2c0-1.4-0.6-2.1-1.7-2.1h-1.7V421.2z"/>
	<path d="M484.7,427.4v-1.2h3.5v1.5c0,1.3,0.5,2,1.6,2h0c1.1,0,1.6-0.7,1.6-2c0-0.8-0.2-1.5-0.7-2.1c-0.5-0.7-1-1.3-1.7-1.8
		l-1.8-1.7c-0.7-0.6-1.3-1.3-1.8-2.2c-0.5-0.9-0.7-1.9-0.7-2.9c0-1.6,0.5-2.9,1.4-3.8c0.9-0.9,2.2-1.3,3.8-1.3
		c1.6,0,2.8,0.4,3.6,1.3c0.8,0.9,1.3,2.1,1.3,3.8v0.7h-3.2v-0.8c0-1.3-0.6-2-1.7-2s-1.7,0.7-1.7,2c0,0.6,0.1,1.1,0.4,1.6
		s0.6,1,1,1.4c0.4,0.4,0.8,0.8,1.3,1.2c0.5,0.4,0.9,0.8,1.4,1.2s0.9,0.9,1.3,1.4s0.7,1.1,1,1.8s0.4,1.4,0.4,2.2
		c0,1.6-0.4,2.9-1.3,3.8c-0.9,0.9-2.1,1.3-3.7,1.3s-2.8-0.4-3.8-1.3C485.2,430.4,484.7,429.1,484.7,427.4z"/>
</g>
</svg>
