<?xml version="1.0" encoding="utf-8"?>
<!-- Generator: Adobe Illustrator 21.0.0, SVG Export Plug-In . SVG Version: 6.00 Build 0)  -->
<svg version="1.1" id="Layer_1" xmlns="http://www.w3.org/2000/svg" xmlns:xlink="http://www.w3.org/1999/xlink" x="0px" y="0px"
	 viewBox="0 0 792 612" style="enable-background:new 0 0 792 612;" xml:space="preserve">
<style type="text/css">
	.st0{fill:#C3972D;}
	.st1{fill:#3D3A3B;}
</style>
<rect x="170.1" y="165.3" class="st0" width="478.3" height="5.8"/>
<rect x="170.1" y="165.3" class="st0" width="5.4" height="64.8"/>
<rect x="643.1" y="165.3" class="st0" width="5.4" height="64.8"/>
<rect x="643.1" y="353.4" class="st0" width="5.4" height="64.8"/>
<rect x="170.1" y="353.4" class="st0" width="5.4" height="64.8"/>
<g>
	<path class="st1" d="M125.9,256.4h-14.1v5.1h-3.7v-8.4h42.5v8.4h-3.7v-5.1h-14.1v37.9h4.9v2.9H121v-2.9h4.9V256.4z"/>
	<path class="st1" d="M167.9,275.9v18.4h4.9v2.9H156v-2.9h4.9V256H156v-2.9h16.7v2.9h-4.9V273h22.8V256h-4.9v-2.9h16.7v2.9h-4.9
		v38.3h4.9v2.9h-16.7v-2.9h4.9v-18.4H167.9z"/>
	<path class="st1" d="M243,297.2h-33.7v-2.9h4.9V256h-4.9v-2.9h32.3v7.3h-3.7V256h-16.7V273h11.8v-3.7h3.3v10.3h-3.3v-3.7h-11.8V294
		h18.2v-4.8h3.7V297.2z"/>
	<path class="st1" d="M287.2,297.2h-17.1v-2.9h4.9V256h-4.9v-2.9h31.8v7.3h-3.7V256h-16.3v17.3h11.4v-3.7h3.3V280h-3.3v-3.7h-11.4
		v18h5.3V297.2z"/>
	<path class="st1" d="M312.5,256h-4.9v-2.9h16.3v2.9h-4.5v23.5c0,3.8,0.2,6.6,0.6,8.4c0.4,1.8,1.2,3.2,2.3,4.3
		c2.1,2.1,5,3.2,8.5,3.2c3.4,0,6.2-1,8.3-3c2.1-1.9,3.1-5.7,3.1-11.6V256h-4.9v-2.9h14.7v2.9h-4.9v23.2c0,4.1-0.2,7.1-0.7,8.9
		c-0.5,1.9-1.5,3.7-3.1,5.4c-2.8,3.2-7.2,4.8-13.2,4.8c-6.1,0-10.6-1.4-13.4-4.2c-2.8-2.8-4.3-7.2-4.3-13.3V256z"/>
	<path class="st1" d="M392.9,297.8l-25.5-35.6v32.1h4.9v2.9H358v-2.9h4.9V256H358v-2.9h10.3l25.9,35.7V256h-4.9v-2.9h14.3v2.9h-4.9
		v41.8H392.9z"/>
	<path class="st1" d="M426.5,256.4h-14.1v5.1h-3.7v-8.4h42.5v8.4h-3.7v-5.1h-14.1v37.9h4.9v2.9h-16.7v-2.9h4.9V256.4z"/>
	<path class="st1" d="M465.5,284l-4.5,10.3h4.9v2.9h-11.7v-2.9h2.9l18.3-41.9h3.9l18.3,41.9h2.8v2.9h-14.8v-2.9h4.5l-4.5-10.3H465.5
		z M466.8,281.1h17.6l-8.8-20.1L466.8,281.1z"/>
	<path class="st1" d="M506.1,296.3v-8.5h3.7l0.4,4.4c1.8,1,3.5,1.8,5.1,2.3s2.9,0.8,4.2,0.8c2.8,0,5-0.8,6.8-2.3
		c1.8-1.5,2.7-3.5,2.7-5.8c0-2-0.6-3.6-1.7-5c-1.1-1.4-3.2-2.8-6.1-4.3l-3.4-1.8c-4.1-2.1-7-4.1-8.7-6c-1.7-1.9-2.5-4.1-2.5-6.5
		c0-3.4,1.3-6.2,4-8.4c2.7-2.2,6.1-3.4,10.1-3.4c2.2,0,4.4,0.1,6.5,0.4c2.1,0.3,4.2,0.8,6.3,1.4v7.7h-3.7l-0.4-4.2
		c-1.4-0.8-2.9-1.4-4.3-1.8c-1.4-0.4-2.8-0.6-4.1-0.6c-2.1,0-3.9,0.7-5.3,2.2c-1.5,1.5-2.2,3.2-2.2,5.3c0,3.1,2.2,5.7,6.6,8l3.5,1.8
		c4.8,2.5,8,4.6,9.7,6.4c1.7,1.8,2.5,4.1,2.5,6.9c0,3.7-1.5,6.7-4.6,9.2c-3,2.4-6.8,3.7-11.4,3.7c-2.6,0-5.1-0.2-7.4-0.5
		C510.1,297.5,508,297,506.1,296.3z"/>
	<path class="st1" d="M559.4,256.4h-14.1v5.1h-3.7v-8.4h42.5v8.4h-3.7v-5.1h-14.1v37.9h4.9v2.9h-16.7v-2.9h4.9V256.4z"/>
	<path class="st1" d="M601.4,256v38.3h4.9v2.9h-16.7v-2.9h4.9V256h-4.9v-2.9h16.7v2.9H601.4z"/>
	<path class="st1" d="M653.2,294.8c-4.4,2.4-9.5,3.5-15.3,3.5c-7.4,0-13.3-2.1-17.6-6.2c-4.3-4.2-6.5-9.8-6.5-17
		c0-7.3,2.1-13,6.2-17s10-6,17.5-6c2,0,4.2,0.2,6.8,0.6c2.5,0.4,5.4,0.9,8.5,1.7v8.1h-3.7l-0.6-4.5c-1.8-1-3.5-1.7-5.3-2.1
		s-3.4-0.7-5.1-0.7c-5.1,0-9.2,1.9-12.3,5.6c-3.1,3.7-4.6,8.7-4.6,14.8c0,5.8,1.7,10.5,5.1,14.3c3.4,3.7,7.8,5.6,13.1,5.6
		c5,0,9.6-1.3,13.8-3.9V294.8z"/>
	<path class="st1" d="M662.2,296.3v-8.5h3.7l0.4,4.4c1.8,1,3.5,1.8,5.1,2.3s2.9,0.8,4.2,0.8c2.8,0,5-0.8,6.8-2.3
		c1.8-1.5,2.7-3.5,2.7-5.8c0-2-0.6-3.6-1.7-5c-1.1-1.4-3.2-2.8-6.1-4.3l-3.4-1.8c-4.1-2.1-7-4.1-8.7-6c-1.7-1.9-2.5-4.1-2.5-6.5
		c0-3.4,1.3-6.2,4-8.4c2.7-2.2,6.1-3.4,10.1-3.4c2.2,0,4.4,0.1,6.5,0.4c2.1,0.3,4.2,0.8,6.3,1.4v7.7h-3.7l-0.4-4.2
		c-1.4-0.8-2.9-1.4-4.3-1.8c-1.4-0.4-2.8-0.6-4.1-0.6c-2.1,0-3.9,0.7-5.3,2.2c-1.5,1.5-2.2,3.2-2.2,5.3c0,3.1,2.2,5.7,6.6,8l3.5,1.8
		c4.8,2.5,8,4.6,9.7,6.4c1.7,1.8,2.5,4.1,2.5,6.9c0,3.7-1.5,6.7-4.6,9.2c-3,2.4-6.8,3.7-11.4,3.7c-2.6,0-5.1-0.2-7.4-0.5
		C666.2,297.5,664.1,297,662.2,296.3z"/>
</g>
<rect x="170.1" y="412.4" class="st0" width="478.3" height="5.8"/>
<circle class="st0" cx="312.3" cy="320.6" r="2.4"/>
<circle class="st0" cx="500.6" cy="320.6" r="2.4"/>
<g>
	<path class="st1" d="M548,319.2h5v6.5h-1.3l-0.4-1.4c-0.8,1-1.9,1.6-3.5,1.6c-1.6,0-2.9-0.5-3.9-1.6c-1-1.1-1.4-2.5-1.4-4.4
		c0-2,0.5-3.6,1.4-4.7c0.9-1.2,2.3-1.7,4.2-1.7c2.9,0,4.6,1.4,4.9,4.2l-2.8,0.4c-0.2-1.6-0.9-2.4-2-2.4c-0.7,0-1.3,0.3-1.7,0.9
		c-0.4,0.6-0.6,1.7-0.6,3.3c0,1.5,0.2,2.5,0.6,3.1c0.4,0.6,1,0.9,1.8,0.9c1.3,0,1.9-0.8,1.9-2.4H548V319.2z"/>
	<path class="st1" d="M556.6,313.6h4.5c0.9,0,1.5,0,2,0.1s0.9,0.3,1.4,0.6c0.5,0.3,0.8,0.7,1.1,1.2s0.4,1.1,0.4,1.7
		c0,1.5-0.7,2.6-2,3.2l2.6,5.3h-3.4l-1.9-4.8h-1.6v4.8h-3.1V313.6z M559.8,315.5v3.4h1.4c1.2,0,1.8-0.6,1.8-1.8c0-0.4-0.1-0.7-0.3-1
		c-0.2-0.3-0.4-0.4-0.6-0.5s-0.6-0.1-1.1-0.1H559.8z"/>
	<path class="st1" d="M569.6,313.6h8.7v2.1h-5.6v2.8h4.3v2.1h-4.3v3h5.6v2.2h-8.7V313.6z"/>
	<path class="st1" d="M583.6,313.6h3.2l4.1,12.1h-3.2l-0.7-2.5h-4l-0.7,2.5h-2.9L583.6,313.6z M586.3,321.1l-1.4-5l-1.4,5H586.3z"/>
	<path class="st1" d="M591.3,313.6h8.9v2.3h-2.9v9.9h-3.1v-9.9h-2.9V313.6z"/>
	<path class="st1" d="M607.8,313.6h4.6l2,7.5l2.3-7.5h4.5v12.1h-2.9v-10.2l-2.9,10.2H613l-2.7-10.2v10.2h-2.6V313.6z"/>
	<path class="st1" d="M625.2,313.6h3.1v6.9c0,1,0.1,1.7,0.2,2c0.1,0.4,0.3,0.7,0.7,0.9c0.3,0.2,0.7,0.3,1.2,0.3
		c0.5,0,0.9-0.1,1.2-0.3c0.3-0.2,0.5-0.5,0.6-0.9c0.1-0.4,0.1-1,0.1-2v-6.9h2.6v6.8c0,1.4-0.1,2.4-0.3,3c-0.2,0.7-0.7,1.2-1.4,1.7
		c-0.8,0.5-1.8,0.7-3.1,0.7c-1.2,0-2.2-0.2-2.9-0.5c-0.7-0.4-1.2-0.8-1.5-1.5s-0.5-1.8-0.5-3.4V313.6z"/>
	<path class="st1" d="M647.6,316.2L645,317c-0.4-1-1-1.5-2-1.5c-0.5,0-0.8,0.1-1.1,0.3c-0.3,0.2-0.4,0.5-0.4,0.8
		c0,0.3,0.2,0.6,0.5,0.8c0.3,0.2,1,0.5,2,0.8c0.9,0.3,1.6,0.6,2.2,0.9c0.5,0.3,1,0.7,1.3,1.2c0.3,0.5,0.5,1.1,0.5,1.7
		c0,1.1-0.5,2.1-1.4,2.8c-0.9,0.7-2.2,1.1-3.7,1.1c-2.6,0-4.3-1.1-5-3.3l2.7-0.7c0.3,1.2,1.1,1.8,2.3,1.8c0.5,0,1-0.1,1.3-0.4
		c0.3-0.2,0.5-0.6,0.5-0.9c0-0.3-0.1-0.6-0.4-0.8s-0.8-0.5-1.6-0.7c-1.1-0.3-1.9-0.6-2.5-0.9c-0.5-0.3-1-0.7-1.3-1.2
		c-0.3-0.5-0.5-1.1-0.5-1.7c0-1.1,0.4-2,1.2-2.7c0.8-0.7,1.9-1,3.3-1C645.4,313.4,647,314.3,647.6,316.2z"/>
	<path class="st1" d="M651.1,313.6h3.1v12.1h-3.1V313.6z"/>
	<path class="st1" d="M665.1,321.3l2.9,0.2c-0.1,1.3-0.6,2.4-1.5,3.2c-0.9,0.8-2,1.2-3.5,1.2c-1.8,0-3.1-0.6-4-1.7
		c-0.9-1.1-1.4-2.6-1.4-4.6c0-2,0.5-3.5,1.4-4.6s2.3-1.7,4.1-1.7c3,0,4.6,1.6,4.9,4.7l-2.9,0.2c-0.1-1.8-0.7-2.7-2-2.7
		c-0.7,0-1.2,0.3-1.6,0.9c-0.4,0.6-0.6,1.7-0.6,3.4c0,1.5,0.2,2.5,0.5,3.1c0.4,0.6,0.9,0.8,1.6,0.8
		C664.3,323.7,664.9,322.9,665.1,321.3z"/>
</g>
<g>
	<path class="st1" d="M362,313.6h3.1v4.9h3.4v-4.9h3.1v12.1h-3.1v-5h-3.4v5H362V313.6z"/>
	<path class="st1" d="M385.6,319.6c0,4.2-1.7,6.3-5.2,6.3c-1.7,0-3-0.5-3.9-1.6c-0.9-1.1-1.3-2.6-1.3-4.7c0-4.2,1.7-6.2,5.2-6.2
		c1.7,0,3,0.5,3.9,1.6C385.1,316,385.6,317.5,385.6,319.6z M382.2,319.6c0-1.6-0.2-2.7-0.5-3.3c-0.3-0.5-0.8-0.8-1.4-0.8
		c-0.7,0-1.1,0.3-1.4,0.8c-0.3,0.5-0.5,1.6-0.5,3.3c0,1.6,0.1,2.7,0.4,3.2s0.8,0.8,1.4,0.8c0.7,0,1.1-0.3,1.4-0.8
		S382.2,321.3,382.2,319.6z"/>
	<path class="st1" d="M387.6,313.6h8.9v2.3h-2.9v9.9h-3.1v-9.9h-2.9V313.6z"/>
	<path class="st1" d="M409.1,319.2h5v6.5h-1.3l-0.4-1.4c-0.8,1-1.9,1.6-3.5,1.6c-1.6,0-2.9-0.5-3.9-1.6c-1-1.1-1.4-2.5-1.4-4.4
		c0-2,0.5-3.6,1.4-4.7c0.9-1.2,2.3-1.7,4.2-1.7c2.9,0,4.6,1.4,4.9,4.2l-2.8,0.4c-0.2-1.6-0.9-2.4-2-2.4c-0.7,0-1.3,0.3-1.7,0.9
		c-0.4,0.6-0.6,1.7-0.6,3.3c0,1.5,0.2,2.5,0.6,3.1c0.4,0.6,1,0.9,1.8,0.9c1.3,0,1.9-0.8,1.9-2.4h-2.1V319.2z"/>
	<path class="st1" d="M417.8,313.6h3.1v12.1h-3.1V313.6z"/>
	<path class="st1" d="M424.9,313.6h4.5c0.9,0,1.5,0,2,0.1s0.9,0.3,1.4,0.6c0.5,0.3,0.8,0.7,1.1,1.2s0.4,1.1,0.4,1.7
		c0,1.5-0.7,2.6-2,3.2l2.6,5.3h-3.4l-1.9-4.8H428v4.8h-3.1V313.6z M428,315.5v3.4h1.4c1.2,0,1.8-0.6,1.8-1.8c0-0.4-0.1-0.7-0.3-1
		c-0.2-0.3-0.4-0.4-0.6-0.5s-0.6-0.1-1.1-0.1H428z"/>
	<path class="st1" d="M437.8,313.6h3.1v9.9h4.6v2.3h-7.8V313.6z"/>
	<path class="st1" d="M457,316.2l-2.6,0.8c-0.4-1-1-1.5-2-1.5c-0.5,0-0.8,0.1-1.1,0.3c-0.3,0.2-0.4,0.5-0.4,0.8
		c0,0.3,0.2,0.6,0.5,0.8c0.3,0.2,1,0.5,2,0.8c0.9,0.3,1.6,0.6,2.2,0.9c0.5,0.3,1,0.7,1.3,1.2c0.3,0.5,0.5,1.1,0.5,1.7
		c0,1.1-0.5,2.1-1.4,2.8c-0.9,0.7-2.2,1.1-3.7,1.1c-2.6,0-4.3-1.1-5-3.3l2.7-0.7c0.3,1.2,1.1,1.8,2.3,1.8c0.5,0,1-0.1,1.3-0.4
		c0.3-0.2,0.5-0.6,0.5-0.9c0-0.3-0.1-0.6-0.4-0.8s-0.8-0.5-1.6-0.7c-1.1-0.3-1.9-0.6-2.5-0.9c-0.5-0.3-1-0.7-1.3-1.2
		c-0.3-0.5-0.5-1.1-0.5-1.7c0-1.1,0.4-2,1.2-2.7c0.8-0.7,1.9-1,3.3-1C454.8,313.4,456.4,314.3,457,316.2z"/>
</g>
<g>
	<path class="st1" d="M148.6,313.6h8.5v2.1h-5.3v3.2h4.1v2.1h-4.1v4.8h-3.1V313.6z"/>
	<path class="st1" d="M159.3,313.6h4.5c0.9,0,1.5,0,2,0.1s0.9,0.3,1.4,0.6c0.5,0.3,0.8,0.7,1.1,1.2s0.4,1.1,0.4,1.7
		c0,1.5-0.7,2.6-2,3.2l2.6,5.3H166l-1.9-4.8h-1.6v4.8h-3.1V313.6z M162.5,315.5v3.4h1.4c1.2,0,1.8-0.6,1.8-1.8c0-0.4-0.1-0.7-0.3-1
		c-0.2-0.3-0.4-0.4-0.6-0.5s-0.6-0.1-1.1-0.1H162.5z"/>
	<path class="st1" d="M172.3,313.6h8.7v2.1h-5.6v2.8h4.3v2.1h-4.3v3h5.6v2.2h-8.7V313.6z"/>
	<path class="st1" d="M183.8,313.6h8.7v2.1h-5.6v2.8h4.3v2.1h-4.3v3h5.6v2.2h-8.7V313.6z"/>
	<path class="st1" d="M200.5,313.6h3.4c1.5,0,2.7,0.2,3.6,0.5c0.9,0.3,1.7,1,2.2,1.9s0.8,2.1,0.8,3.7c0,1.1-0.2,2.1-0.5,2.9
		c-0.3,0.8-0.8,1.5-1.3,2c-0.5,0.5-1.2,0.8-1.8,1c-0.7,0.2-1.5,0.2-2.6,0.2h-3.8V313.6z M203.7,315.6v8h0.5c0.7,0,1.3-0.1,1.7-0.4
		s0.7-0.7,1-1.2c0.2-0.6,0.4-1.4,0.4-2.6c0-1-0.1-1.8-0.4-2.4c-0.3-0.6-0.6-0.9-1-1.1c-0.4-0.2-0.9-0.3-1.6-0.3H203.7z"/>
	<path class="st1" d="M213.8,313.6h4.5c0.9,0,1.5,0,2,0.1s0.9,0.3,1.4,0.6c0.5,0.3,0.8,0.7,1.1,1.2s0.4,1.1,0.4,1.7
		c0,1.5-0.7,2.6-2,3.2l2.6,5.3h-3.4l-1.9-4.8H217v4.8h-3.1V313.6z M217,315.5v3.4h1.4c1.2,0,1.8-0.6,1.8-1.8c0-0.4-0.1-0.7-0.3-1
		c-0.2-0.3-0.4-0.4-0.6-0.5s-0.6-0.1-1.1-0.1H217z"/>
	<path class="st1" d="M226.8,313.6h3.1v12.1h-3.1V313.6z"/>
	<path class="st1" d="M233.8,313.6h3.5l3.7,7.5v-7.5h2.4v12.1h-2.8l-4.4-8.8v8.8h-2.4V313.6z"/>
	<path class="st1" d="M247.2,313.6h3.1v5.1l3.5-5.1h3.2l-3.6,4.5l3.9,7.7h-3.3l-2.5-5.6l-1.2,1.5v4.1h-3.1V313.6z"/>
	<path class="st1" d="M268.5,316.2l-2.6,0.8c-0.4-1-1-1.5-2-1.5c-0.5,0-0.8,0.1-1.1,0.3c-0.3,0.2-0.4,0.5-0.4,0.8
		c0,0.3,0.2,0.6,0.5,0.8c0.3,0.2,1,0.5,2,0.8c0.9,0.3,1.6,0.6,2.2,0.9c0.5,0.3,1,0.7,1.3,1.2c0.3,0.5,0.5,1.1,0.5,1.7
		c0,1.1-0.5,2.1-1.4,2.8c-0.9,0.7-2.2,1.1-3.7,1.1c-2.6,0-4.3-1.1-5-3.3l2.7-0.7c0.3,1.2,1.1,1.8,2.3,1.8c0.5,0,1-0.1,1.3-0.4
		c0.3-0.2,0.5-0.6,0.5-0.9c0-0.3-0.1-0.6-0.4-0.8s-0.8-0.5-1.6-0.7c-1.1-0.3-1.9-0.6-2.5-0.9c-0.5-0.3-1-0.7-1.3-1.2
		c-0.3-0.5-0.5-1.1-0.5-1.7c0-1.1,0.4-2,1.2-2.7c0.8-0.7,1.9-1,3.3-1C266.4,313.4,267.9,314.3,268.5,316.2z"/>
</g>
</svg>
